<svg xmlns="http://www.w3.org/2000/svg" version="1.1" xmlns:xlink="http://www.w3.org/1999/xlink" xmlns:svgjs="http://svgjs.dev/svgjs" width="1500" height="227" viewBox="0 0 1500 227"><g transform="matrix(1,0,0,1,-0.9090909090909918,2.0722674874526206)"><svg viewBox="0 0 396 60" data-background-color="#ffffff" preserveAspectRatio="xMidYMid meet" height="227" width="1500" xmlns="http://www.w3.org/2000/svg" xmlns:xlink="http://www.w3.org/1999/xlink"><g id="tight-bounds" transform="matrix(1,0,0,1,0.2400000000000091,0.02275951617147598)"><svg viewBox="0 0 395.52 59.954388042370134" height="59.954388042370134" width="395.52"><g><svg viewBox="0 0 477.0197347054666 72.30842" height="59.954388042370134" width="395.52"><g><svg viewBox="0 0 477.0197347054666 72.30842" height="72.30842" width="477.0197347054666"><g id="textblocktransform"><svg viewBox="0 0 477.0197347054666 72.30842" height="72.30842" width="477.0197347054666" id="textblock"><g><svg viewBox="0 0 477.0197347054666 72.30842" height="72.30842" width="477.0197347054666"><g><svg><g></g><g></g></svg></g><g><svg><g><svg></svg></g><g></g></svg></g><g id="text-0"><svg viewBox="0 0 477.0197347054666 72.30842" height="72.30842" width="477.0197347054666"><g transform="matrix(1,0,0,1,0,0)"><svg width="385.89300000000003" viewBox="3.85 -34.5 239.48000000000002 44.689930611099996" height="72.30842" data-palette-color="#000000"><g class="wordmark-text-0" data-fill-palette-color="primary"><path d="M22.8-34.5L29.6-34.5 20.15-20.45Q19.65-19.65 19.1-19.07 18.55-18.5 17.9-18L17.9-18 17.9-17.85Q18.6-17.35 19.3-16.65 20-15.95 20.45-15.15L20.45-15.15 30.25 0 23.25 0 11.9-18.05 22.8-34.5ZM3.85-34.5L10.1-34.5 10.1-24.3Q10.1-22.7 9.88-21.15 9.65-19.6 9.2-18.05L9.2-18.05Q9.55-16.6 9.83-15.08 10.1-13.55 10.1-12.15L10.1-12.15 10.1 0 3.85 0 3.85-34.5ZM8.1-20.25L14.5-20.25 14.5-15.7 8.1-15.7 8.1-20.25ZM45.15-25.15L45.15-25.15Q51.1-25.15 53.7-23.08 56.3-21 56.35-16.95L56.35-16.95Q56.4-13.6 54.77-11.88 53.15-10.15 49.4-10.15L49.4-10.15 35.4-10.15 35.4-13.9 47.75-13.9Q49.45-13.9 49.92-14.8 50.4-15.7 50.4-17L50.4-17Q50.35-19.05 49.22-19.85 48.1-20.65 45.4-20.65L45.4-20.65Q43.05-20.65 41.75-20 40.45-19.35 39.92-17.65 39.4-15.95 39.4-12.75L39.4-12.75Q39.4-9.35 40.05-7.5 40.7-5.65 42.2-4.98 43.7-4.3 46.2-4.3L46.2-4.3Q48.05-4.3 50.47-4.45 52.9-4.6 55.15-4.85L55.15-4.85 55.75-1Q54.4-0.45 52.65-0.1 50.9 0.25 49.02 0.43 47.15 0.6 45.5 0.6L45.5 0.6Q41 0.6 38.27-0.73 35.55-2.05 34.32-4.9 33.1-7.75 33.1-12.25L33.1-12.25Q33.1-17.1 34.32-19.93 35.55-22.75 38.22-23.95 40.9-25.15 45.15-25.15ZM78.75-24.55L85.25-24.55 76.05 0.75Q75.4 2.5 74.42 4.23 73.45 5.95 71.95 7.35 70.45 8.75 68.4 9.55 66.34 10.35 63.65 10.15L63.65 10.15 63.15 6.55Q66.15 5.7 67.82 4.25 69.5 2.8 70.45 0.55L70.45 0.55 71.8-2.65Q72.25-3.75 72.67-5.18 73.09-6.6 73.4-7.65L73.4-7.65 78.75-24.55ZM59-24.55L65.45-24.55 70.9-7.65Q71.15-6.8 71.34-5.93 71.55-5.05 71.7-4.2L71.7-4.2 72.95-4.2 71.05 0 69.45 0Q68.75 0 68.2-0.4 67.65-0.8 67.45-1.5L67.45-1.5 59-24.55ZM111.84-34.5L117.79-34.5 117.79-2.35Q117.79 0 115.49 0L115.49 0 111.24 0Q110.19 0 109.64-0.48 109.09-0.95 108.64-1.9L108.64-1.9 98.19-22.7Q97.69-23.8 97.09-25.13 96.49-26.45 96.14-27.65L96.14-27.65 95.49-27.65Q95.59-26.4 95.67-25.13 95.74-23.85 95.74-22.6L95.74-22.6 95.74 0 89.74 0 89.74-32.15Q89.74-34.5 92.04-34.5L92.04-34.5 96.19-34.5Q97.24-34.5 97.79-34.02 98.34-33.55 98.79-32.6L98.79-32.6 108.94-12.35Q109.54-11.25 110.17-9.88 110.79-8.5 111.34-7.1L111.34-7.1 112.09-7.1Q111.99-8.55 111.92-9.93 111.84-11.3 111.84-12.65L111.84-12.65 111.84-34.5ZM136.04-25.15L136.04-25.15Q137.29-25.15 138.79-25.05 140.29-24.95 141.84-24.65 143.39-24.35 144.64-23.8L144.64-23.8 143.94-20Q142.09-20.1 140.27-20.15 138.44-20.2 137.09-20.2L137.09-20.2Q134.54-20.2 133.07-19.53 131.59-18.85 130.94-17.13 130.29-15.4 130.29-12.3L130.29-12.3Q130.29-9.2 130.94-7.48 131.59-5.75 133.07-5.05 134.54-4.35 137.09-4.35L137.09-4.35Q137.84-4.35 139.07-4.4 140.29-4.45 141.72-4.55 143.14-4.65 144.49-4.8L144.49-4.8 145.09-0.9Q143.14-0.1 140.74 0.25 138.34 0.6 135.99 0.6L135.99 0.6Q131.59 0.6 128.94-0.65 126.29-1.9 125.12-4.73 123.94-7.55 123.94-12.3L123.94-12.3Q123.94-17.05 125.14-19.88 126.34-22.7 128.99-23.93 131.64-25.15 136.04-25.15ZM150.04-24.55L154.74-24.55 155.54-19.75 156.09-19.05 156.09 0 150.04 0 150.04-24.55ZM165.54-25.15L166.74-25.15 166.14-19.55 164.39-19.55Q162.44-19.55 160.44-18.9 158.44-18.25 155.44-16.95L155.44-16.95 155.04-20.5Q157.64-22.7 160.34-23.93 163.04-25.15 165.54-25.15L165.54-25.15ZM187.79-24.55L194.29-24.55 185.09 0.75Q184.44 2.5 183.46 4.23 182.49 5.95 180.99 7.35 179.49 8.75 177.44 9.55 175.39 10.35 172.69 10.15L172.69 10.15 172.19 6.55Q175.19 5.7 176.86 4.25 178.54 2.8 179.49 0.55L179.49 0.55 180.84-2.65Q181.29-3.75 181.71-5.18 182.14-6.6 182.44-7.65L182.44-7.65 187.79-24.55ZM168.04-24.55L174.49-24.55 179.94-7.65Q180.19-6.8 180.39-5.93 180.59-5.05 180.74-4.2L180.74-4.2 181.99-4.2 180.09 0 178.49 0Q177.79 0 177.24-0.4 176.69-0.8 176.49-1.5L176.49-1.5 168.04-24.55ZM213.58-25.15L213.58-25.15Q218.18-25.15 220.16-21.8 222.13-18.45 222.13-12.1L222.13-12.1Q222.13-7.25 221.11-4.48 220.08-1.7 218.03-0.53 215.98 0.65 212.83 0.65L212.83 0.65Q210.33 0.65 207.96-0.08 205.58-0.8 203.58-2.35L203.58-2.35 203.98-5.35Q205.93-4.8 207.48-4.4 209.03-4 210.88-4L210.88-4Q212.73-4 213.81-4.63 214.88-5.25 215.38-7 215.88-8.75 215.88-12.05L215.88-12.05Q215.88-15.3 215.43-17.1 214.98-18.9 213.96-19.63 212.93-20.35 211.28-20.35L211.28-20.35Q209.48-20.35 207.88-19.58 206.28-18.8 204.18-17.3L204.18-17.3 203.48-20.5Q204.63-21.85 206.26-22.9 207.88-23.95 209.78-24.55 211.68-25.15 213.58-25.15ZM198.33-24.55L203.23-24.55 203.83-19.8 204.38-19.1 204.38-3.25 204.13-2.65Q204.28-1.2 204.33 0.28 204.38 1.75 204.38 3.3L204.38 3.3 204.38 9.75 198.33 9.75 198.33-24.55ZM229.98-31.55L236.03-31.55 236.03-7.4Q236.03-5.9 236.71-5.23 237.38-4.55 239.03-4.55L239.03-4.55 242.43-4.55 243.08-0.3Q242.23-0.05 241.03 0.15 239.83 0.35 238.68 0.43 237.53 0.5 236.73 0.5L236.73 0.5Q233.53 0.5 231.76-1.23 229.98-2.95 229.98-6.2L229.98-6.2 229.98-31.55ZM230.43-24.55L243.33-24.55 243.33-20.35 225.63-20.35 225.63-24.3 230.43-24.55Z" fill="#000000" data-fill-palette-color="primary"></path></g></svg></g><g><svg xmlns="http://www.w3.org/2000/svg" xmlns:xlink="http://www.w3.org/1999/xlink" version="1.1" x="402.96458" y="0" viewBox="11.017823632605122 11.461749422187646 37.96369815853941 37.06825057781236" style="enable-background:new 0 0 60 60;" xml:space="preserve" height="72.30842" width="74.05515470546655" class="icon-dxe-0" data-fill-palette-color="accent" id="dxe-0"><path d="M48.85 34.1L35.82 11.92A0.945 0.945 0 0 0 34.2 11.92L30 19.08 25.79 11.93A0.945 0.945 0 0 0 24.17 11.93L11.15 34.1C10.93 34.47 10.99 34.93 11.29 35.23L24.32 48.26C24.5 48.44 24.74 48.53 24.98 48.53S25.46 48.44 25.64 48.26L30 43.91 34.35 48.26C34.53 48.44 34.77 48.53 35.01 48.53S35.49 48.44 35.67 48.26L48.7 35.23C49.01 34.93 49.07 34.46 48.85 34.1M24.99 46.28L13.13 34.42 24.99 14.24 28.92 20.92 21.17 34.1C20.95 34.47 21.01 34.93 21.31 35.23L28.67 42.59zM30 22.77L36.85 34.42 30 41.27 23.15 34.42zM35.01 46.28L31.32 42.59 38.68 35.23C38.98 34.93 39.04 34.46 38.82 34.1L31.08 20.93 35.01 14.25 46.87 34.43z" fill="#ff725e" data-fill-palette-color="accent"></path></svg></g></svg></g></svg></g></svg></g></svg></g></svg></g><defs></defs></svg><rect width="395.52" height="59.954388042370134" fill="none" stroke="none" visibility="hidden"></rect></g></svg></g></svg>