<svg xmlns="http://www.w3.org/2000/svg" version="1.1" xmlns:xlink="http://www.w3.org/1999/xlink" xmlns:svgjs="http://svgjs.dev/svgjs" width="2000" height="313" viewBox="0 0 2000 313"><g transform="matrix(1,0,0,1,-1.2121212121212466,1.2260597300862628)"><svg viewBox="0 0 396 62" data-background-color="#243837" preserveAspectRatio="xMidYMid meet" height="313" width="2000" xmlns="http://www.w3.org/2000/svg" xmlns:xlink="http://www.w3.org/1999/xlink"><g id="tight-bounds" transform="matrix(1,0,0,1,0.2400000000000091,-0.24286167177427842)"><svg viewBox="0 0 395.52 62.48572334354856" height="62.48572334354856" width="395.52"><g><svg viewBox="0 0 395.52 62.48572334354856" height="62.48572334354856" width="395.52"><g><svg viewBox="0 0 395.52 62.48572334354856" height="62.48572334354856" width="395.52"><g id="textblocktransform"><svg viewBox="0 0 395.52 62.48572334354856" height="62.48572334354856" width="395.52" id="textblock"><g><svg viewBox="0 0 395.52 62.48572334354856" height="62.48572334354856" width="395.52"><g transform="matrix(1,0,0,1,0,0)"><svg width="395.52" viewBox="3.65 -37 240.81 37.38" height="62.48572334354856" data-palette-color="#f8f8f8"><g class="wordmark-text-0" data-fill-palette-color="primary" id="text-0"><path d="M33.38 0L26.03 0 12.55-18.88 25.2-37 32.3-37 19.13-18.13 19.23-19.9 33.38 0ZM10.33 0L3.65 0 3.65-37 10.33-37 10.33 0ZM15.28-15.98L9.38-15.98 9.38-21.9 15.28-21.9 15.28-15.98ZM58.3 0L36.12 0 36.12-29.75 58.07-29.75 58.07-24.83 42.62-24.83 42.62-4.93 58.3-4.93 58.3 0ZM55.92-12.7L40.07-12.7 40.07-17.63 55.92-17.63 55.92-12.7ZM77.17 0L70.52 0 70.52-15.2 71.87-10.55 59.12-29.75 66.2-29.75 74.95-16.53 73.02-16.53 81.72-29.75 88.3-29.75 75.82-10.55 77.17-15.13 77.17 0ZM107.57 0.33L107.57 0.33Q101.57 0.33 97.57-1.31 93.57-2.95 91.57-6.31 89.57-9.68 89.57-14.8L89.57-14.8Q89.57-19.9 91.62-23.3 93.67-26.7 97.62-28.41 101.57-30.13 107.29-30.13L107.29-30.13Q109.19-30.13 111.02-29.94 112.84-29.75 114.42-29.38L114.42-29.38 114.42-24.1Q112.79-24.5 111.17-24.69 109.54-24.88 107.87-24.88L107.87-24.88Q104.02-24.88 101.51-23.86 98.99-22.85 97.74-20.61 96.49-18.38 96.49-14.75L96.49-14.75Q96.49-11.3 97.66-9.11 98.82-6.93 101.14-5.89 103.47-4.85 106.94-4.85L106.94-4.85Q108.19-4.85 109.52-4.95 110.84-5.05 111.92-5.23L111.92-5.23 109.12-2.88 109.12-14.45 115.29-14.45 115.29-0.33Q113.32 0 111.36 0.16 109.39 0.33 107.57 0.33ZM135.22 0.38L135.22 0.38Q130.67 0.38 127.74-1.03 124.82-2.43 123.42-5.24 122.02-8.05 122.02-12.28L122.02-12.28 122.02-29.75 128.67-29.75 128.67-11.7Q128.67-8.15 130.27-6.5 131.87-4.85 135.22-4.85L135.22-4.85Q138.56-4.85 140.17-6.5 141.77-8.15 141.77-11.7L141.77-11.7 141.77-29.75 148.27-29.75 148.27-12.28Q148.27-8.05 146.89-5.24 145.52-2.43 142.63-1.03 139.74 0.38 135.22 0.38ZM158.79 0L152.31 0 162.59-29.75 172.26-29.75 182.56 0 176.01 0 167.04-27.1 167.74-27.1 158.79 0ZM175.54-8.03L159.29-8.03 160.71-12.98 174.11-12.98 175.54-8.03ZM193.31 0L186.79 0 186.79-29.1Q188.89-29.53 191.39-29.83 193.89-30.13 196.51-30.13L196.51-30.13Q203.31-30.13 206.71-27.78 210.11-25.43 210.11-20.58L210.11-20.58Q210.11-17.43 208.5-15.3 206.89-13.18 203.89-12.1 200.89-11.03 196.76-11.03L196.76-11.03Q195.86-11.03 195.01-11.05 194.16-11.08 193.31-11.15L193.31-11.15 193.31 0ZM212.71 0L205.36 0 195.26-13.75 202.41-13.75 212.71 0ZM196.79-15.65L196.79-15.65Q200.49-15.65 202.17-16.85 203.86-18.05 203.86-20.58L203.86-20.58Q203.86-23.2 202.24-24.36 200.61-25.53 197.14-25.53L197.14-25.53Q196.06-25.53 195.14-25.44 194.21-25.35 193.31-25.2L193.31-25.2 193.31-15.8Q194.31-15.73 195.04-15.69 195.76-15.65 196.79-15.65ZM226.03 0.3L226.03 0.3Q223.98 0.3 221.72 0.19 219.46 0.08 217.36-0.18L217.36-0.18 217.36-29.1Q218.78-29.4 220.45-29.63 222.11-29.85 223.81-29.98 225.51-30.1 227.11-30.1L227.11-30.1Q235.73-30.1 240.1-26.39 244.46-22.68 244.46-14.85L244.46-14.85Q244.46-9.55 242.41-6.21 240.36-2.88 236.26-1.29 232.16 0.3 226.03 0.3ZM227.63-4.85L227.63-4.85Q231.01-4.85 233.23-5.85 235.46-6.85 236.57-9.06 237.68-11.28 237.68-14.9L237.68-14.9Q237.68-18.48 236.57-20.69 235.46-22.9 233.23-23.93 231.01-24.95 227.68-24.95L227.68-24.95Q226.78-24.95 225.78-24.86 224.78-24.78 224.01-24.63L224.01-24.63 224.01-5.03Q224.91-4.93 225.81-4.89 226.71-4.85 227.63-4.85Z" fill="#f8f8f8" data-fill-palette-color="primary"></path></g></svg></g></svg></g></svg></g></svg></g><g></g></svg></g><defs></defs></svg><rect width="395.52" height="62.48572334354856" fill="none" stroke="none" visibility="hidden"></rect></g></svg></g></svg>