<svg xmlns="http://www.w3.org/2000/svg" version="1.1" xmlns:xlink="http://www.w3.org/1999/xlink" xmlns:svgjs="http://svgjs.dev/svgjs" width="2000" height="661" viewBox="0 0 2000 661"><g transform="matrix(1,0,0,1,-1.2121212121212466,0.9348639142549473)"><svg viewBox="0 0 396 131" data-background-color="#001f3f" preserveAspectRatio="xMidYMid meet" height="661" width="2000" xmlns="http://www.w3.org/2000/svg" xmlns:xlink="http://www.w3.org/1999/xlink"><g id="tight-bounds" transform="matrix(1,0,0,1,0.2400000000000091,-0.1852756017661079)"><svg viewBox="0 0 395.52 131.37055120353224" height="131.37055120353224" width="395.52"><g><svg viewBox="0 0 395.52 131.37055120353224" height="131.37055120353224" width="395.52"><g><svg viewBox="0 0 395.52 131.37055120353224" height="131.37055120353224" width="395.52"><g id="textblocktransform"><svg viewBox="0 0 395.52 131.37055120353224" height="131.37055120353224" width="395.52" id="textblock"><g><svg viewBox="0 0 395.52 131.37055120353224" height="131.37055120353224" width="395.52"><g transform="matrix(1,0,0,1,0,0)"><svg width="395.52" viewBox="-2.98 -36.77 172.39999999999998 56.940000000000005" height="131.37055120353224" data-palette-color="#ff9e00"><g class="wordmark-text-0" data-fill-palette-color="primary" id="text-0"><path d="M5.66-11.82L5.66-11.82Q6.01-11.96 6.4-12.23 6.79-12.5 7.08-12.74L7.08-12.74Q7.74-13.23 8.15-13.62L8.15-13.62Q8.57-14.01 9.23-14.5L9.23-14.5Q9.4-14.62 9.56-14.75 9.72-14.87 9.84-14.97L9.84-14.97Q9.96-15.09 10.1-15.19 10.23-15.28 10.35-15.38L10.35-15.38Q10.52-15.48 10.82-15.67L10.82-15.67Q11.11-15.87 11.28-15.97L11.28-15.97Q11.62-16.11 11.91-16.24 12.21-16.36 12.45-16.46L12.45-16.46Q12.5-16.48 12.77-16.63L12.77-16.63Q12.96-16.75 13.13-16.75L13.13-16.75Q13.55-16.8 13.82-16.58L13.82-16.58Q14.09-16.38 14.36-16.26L14.36-16.26Q14.75-16.04 15.21-15.82L15.21-15.82Q15.63-15.65 15.97-15.28L15.97-15.28Q16.26-14.77 16.53-14.45L16.53-14.45Q16.87-14.04 17.04-13.48L17.04-13.48Q17.09-13.28 17.09-13.09L17.09-13.09 17.09-12.6Q17.21-11.79 17.47-11.16 17.72-10.52 17.24-9.81L17.24-9.81Q15.82-8.98 14.26-8.4L14.26-8.4Q13.87-8.11 13.45-7.89L13.45-7.89Q13.26-7.79 13.05-7.67 12.84-7.54 12.65-7.42L12.65-7.42Q12.26-6.88 11.69-6.54L11.69-6.54Q11.18-6.23 10.74-5.76L10.74-5.76Q10.94-5.13 11.23-4.69 11.52-4.25 11.91-3.86L11.91-3.86Q12.21-3.37 12.74-3.17L12.74-3.17Q12.99-3.08 13.53-3 14.06-2.93 14.31-2.98L14.31-2.98Q14.62-3.1 14.99-3.2L14.99-3.2Q15.33-3.3 15.72-3.47L15.72-3.47Q16.38-3.49 16.72-3.93L16.72-3.93Q17.11-4.42 17.43-4.64L17.43-4.64Q17.55-4.74 17.68-4.82 17.8-4.91 17.92-4.96L17.92-4.96Q18.12-5.05 18.41-5.37L18.41-5.37Q18.53-5.74 18.85-6.01L18.85-6.01Q19.48-6.64 20.02-6.88L20.02-6.88Q20.36-7.37 20.9-7.47L20.9-7.47Q21.44-7.57 21.83-7.86L21.83-7.86 22.51-8.35Q22.68-8.47 22.84-8.59 23-8.72 23.14-8.84L23.14-8.84Q23.29-8.96 23.45-9.08 23.61-9.2 23.78-9.33L23.78-9.33Q23.93-9.42 24.07-9.51 24.22-9.59 24.34-9.64L24.34-9.64Q24.61-9.77 24.76-10.01L24.76-10.01Q24.93-10.11 25.1-10.16L25.1-10.16Q25.17-10.18 25.24-10.21 25.32-10.23 25.39-10.25L25.39-10.25Q25.51-10.08 25.6-9.96 25.68-9.84 25.71-9.79L25.71-9.79Q25.78-9.69 25.78-9.52L25.78-9.52Q25.76-9.28 25.59-9.2L25.59-9.2Q25.42-9.13 25.39-8.89L25.39-8.89Q24.85-8.54 24.29-8.18 23.73-7.81 23.24-7.37L23.24-7.37Q23.22-7.13 23.12-7.01L23.12-7.01Q23.1-6.96 23.05-6.87 23-6.79 22.95-6.69L22.95-6.69Q22.34-6.27 21.68-5.62L21.68-5.62Q21.12-5.05 20.41-4.49L20.41-4.49Q20.24-4.39 19.95-4.15L19.95-4.15Q19.7-3.93 19.43-3.81L19.43-3.81Q18.7-3.13 17.97-2.47 17.24-1.81 16.41-1.27L16.41-1.27Q16.19-1.15 15.92-0.95L15.92-0.95Q15.72-0.81 15.33-0.68L15.33-0.68Q15.04-0.42 14.72-0.39L14.72-0.39Q14.43-0.37 14.11-0.2L14.11-0.2Q13.48 0.07 13.11 0.32L13.11 0.32Q12.72 0.56 12.11 0.68L12.11 0.68Q11.82 0.81 11.55 0.68L11.55 0.68Q11.33 0.59 10.89 0.63L10.89 0.63Q10.52 0.42 10.21 0.39L10.21 0.39Q10.16 0.24 9.84-0.22 9.52-0.68 9.42-0.78L9.42-0.78Q9.25-1.39 9.03-1.68L9.03-1.68Q8.94-1.81 8.84-1.95 8.74-2.1 8.64-2.25L8.64-2.25Q8.4-2.64 8.33-3.1L8.33-3.1Q8.25-3.56 8.01-3.96L8.01-3.96Q8.06-4.22 7.93-4.32L7.93-4.32Q7.81-4.44 7.86-4.64L7.86-4.64Q7.25-5.1 7.15-5.25L7.15-5.25 6.93-5.62 6.93-6.25Q6.93-6.35 7.03-6.45L7.03-6.45Q7.32-6.74 7.69-6.96L7.69-6.96Q8.03-7.15 8.3-7.47L8.3-7.47Q8.52-7.5 8.72-7.67L8.72-7.67 9.08-7.96Q9.38-8.15 9.66-8.35 9.94-8.54 10.21-8.72L10.21-8.72Q10.77-9.11 11.43-9.47L11.43-9.47Q11.91-9.72 12.04-10.3 12.16-10.89 12.26-11.43L12.26-11.43Q11.96-11.91 11.84-11.91L11.84-11.91Q11.72-11.91 11.62-12.01L11.62-12.01Q11.47-12.13 11.38-12.28L11.38-12.28Q11.28-12.45 11.08-12.45L11.08-12.45Q10.94-12.4 10.69-12.26 10.45-12.11 10.3-12.01L10.3-12.01Q9.89-11.77 9.47-11.56 9.06-11.35 8.64-11.16L8.64-11.16Q7.86-10.82 7.03-10.3L7.03-10.3 6.23-9.91Q6.03-9.81 5.86-9.73 5.69-9.64 5.57-9.57L5.57-9.57Q5.47-9.52 5.35-9.4 5.22-9.28 5.13-9.18L5.13-9.18Q4.71-8.3 4.52-7.98L4.52-7.98Q4.25-7.54 4.1-7.18L4.1-7.18Q3.98-6.86 3.81-6.69L3.81-6.69Q3.56-6.3 3.42-5.91L3.42-5.91Q3.27-5.52 2.98-5.18L2.98-5.18Q2.88-4.59 2.61-3.93L2.61-3.93Q2.49-3.61 2.37-3.28 2.25-2.95 2.15-2.64L2.15-2.64Q2-2.05 1.78-1.56 1.56-1.07 0.98-0.93L0.98-0.93Q0.76-0.59 0.71-0.34L0.71-0.34Q0.66-0.1 0.44 0.24L0.44 0.24Q0.32 0.32 0.07 0.37L0.07 0.37Q-0.1 0.39-0.34 0.54L-0.34 0.54Q-0.44 0.54-0.99 0.98-1.54 1.42-1.66 1.42L-1.66 1.42Q-2.05 1.51-2.17 1.39L-2.17 1.39Q-2.29 1.25-2.49 1.37L-2.49 1.37Q-2.78 0.81-2.98 0.63L-2.98 0.63Q-2.93 0.44-2.88 0.27-2.83 0.1-2.81-0.07L-2.81-0.07Q-2.76-0.34-2.54-0.63L-2.54-0.63Q-2.39-0.83-2.2-1.1-2-1.37-1.86-1.61L-1.86-1.61Q-1.73-1.81-1.78-1.98L-1.78-1.98Q-1.81-2.17-1.71-2.34L-1.71-2.34Q-1.56-2.69-1.44-2.86L-1.44-2.86Q-1.34-2.98-1.27-3.11-1.2-3.25-1.12-3.37L-1.12-3.37Q-0.95-3.78-0.71-4.3L-0.71-4.3Q-0.59-4.52-0.49-4.76-0.39-5-0.29-5.27L-0.29-5.27Q-0.22-5.54-0.16-5.81-0.1-6.08-0.05-6.32L-0.05-6.32Q0.07-6.91 0.29-7.37L0.29-7.37Q0.54-7.91 0.78-8.52 1.03-9.13 1.12-9.67L1.12-9.67Q1.15-9.91 1.27-10.06L1.27-10.06Q1.34-10.16 1.46-10.45L1.46-10.45Q1.51-10.57 1.57-10.71 1.64-10.84 1.68-11.01L1.68-11.01Q1.73-11.18 1.81-11.33 1.88-11.47 1.95-11.62L1.95-11.62Q2.17-11.87 2.22-12.06L2.22-12.06Q2.27-12.23 2.34-12.3L2.34-12.3Q2.39-12.38 2.47-12.57L2.47-12.57Q2.51-12.72 2.59-12.79L2.59-12.79Q2.69-13.04 2.83-13.28L2.83-13.28Q2.98-13.53 3.08-13.77L3.08-13.77Q3.2-13.92 3.32-14.4L3.32-14.4Q3.56-14.65 3.56-14.89L3.56-14.89Q3.71-15.45 3.78-15.92L3.78-15.92Q3.86-16.41 4.15-16.94L4.15-16.94Q4.25-17.29 4.32-17.53 4.39-17.77 4.42-17.94L4.42-17.94Q4.49-18.24 4.83-18.75L4.83-18.75Q4.91-18.95 4.99-19.15 5.08-19.36 5.18-19.56L5.18-19.56Q5.27-19.75 5.36-19.96 5.44-20.17 5.52-20.36L5.52-20.36 5.81-21.12Q5.93-21.41 6.05-21.92L6.05-21.92Q6.23-22.27 6.36-22.55 6.49-22.83 6.59-23.02L6.59-23.02Q6.81-23.49 7.03-23.88L7.03-23.88Q7.23-24.27 7.36-24.57 7.5-24.88 7.59-25.07L7.59-25.07Q7.69-25.27 7.79-25.46 7.89-25.66 8.01-25.83L8.01-25.83Q8.18-26.27 8.23-26.54L8.23-26.54Q8.3-26.86 8.45-27.15L8.45-27.15Q8.86-27.69 8.98-28.08L8.98-28.08Q9.03-28.25 9.09-28.41 9.16-28.56 9.23-28.71L9.23-28.71Q9.72-29.83 10.35-31.01 10.99-32.18 11.87-33.06L11.87-33.06 12.38-33.54Q12.7-33.86 12.84-34.13L12.84-34.13Q13.28-34.57 13.62-34.79L13.62-34.79Q13.96-35.01 14.36-35.4L14.36-35.4Q15.01-35.25 15.11-35.18L15.11-35.18Q15.23-35.11 15.33-35.11L15.33-35.11Q15.89-34.28 15.77-33.01L15.77-33.01Q15.77-32.67 15.63-32.32L15.63-32.32Q15.48-32.01 15.48-31.64L15.48-31.64Q15.43-31.4 15.45-31.3L15.45-31.3Q15.48-31.18 15.33-31.05L15.33-31.05Q15.23-30.52 15.04-30.05 14.84-29.59 14.65-29.15L14.65-29.15Q13.89-27.37 13.11-26.17L13.11-26.17Q12.35-25.02 11.57-23.44L11.57-23.44Q11.23-22.9 10.96-22.39 10.69-21.88 10.45-21.19L10.45-21.19Q10.16-20.61 9.81-20.02 9.47-19.43 8.98-18.95L8.98-18.95Q8.67-18.33 8.47-17.9L8.47-17.9Q8.23-17.33 7.86-16.89L7.86-16.89Q7.71-16.31 7.23-15.72L7.23-15.72Q7.06-15.36 6.86-15.04L6.86-15.04Q6.71-14.82 6.59-14.31L6.59-14.31 6.08-13.01Q5.96-12.7 5.85-12.39 5.74-12.08 5.66-11.82ZM22.46-10.79L22.46-10.79Q22.78-10.96 23.24-11.54 23.7-12.11 24.14-12.66 24.58-13.21 24.8-13.28L24.8-13.28Q24.95-13.53 25.07-13.7 25.19-13.87 25.44-14.01L25.44-14.01Q25.83-14.72 26.46-15.21L26.46-15.21Q27.12-15.72 27.68-16.31L27.68-16.31Q28.15-16.5 28.62-16.75 29.1-16.99 29.56-17.31L29.56-17.31Q30.52-17.94 31.69-17.97L31.69-17.97Q32.22-17.72 32.74-17.82L32.74-17.82Q33.23-17.92 33.69-17.58L33.69-17.58Q33.96-17.11 34.13-17.02L34.13-17.02Q34.3-16.92 34.42-16.75L34.42-16.75Q34.62-16.14 34.71-15.94L34.71-15.94Q34.84-15.75 34.86-15.53L34.86-15.53Q34.89-15.16 34.91-14.9 34.93-14.65 34.96-14.48L34.96-14.48Q34.98-14.16 34.96-13.87L34.96-13.87Q34.81-12.62 34.47-11.38L34.47-11.38Q34.42-11.23 34.37-11.08 34.32-10.94 34.27-10.77L34.27-10.77Q34.18-10.45 34.03-10.21L34.03-10.21Q33.66-9.74 33.52-9.45L33.52-9.45Q33.3-9.06 33.2-8.94L33.2-8.94Q32.91-8.64 32.65-8.4 32.39-8.15 32.18-7.96L32.18-7.96Q31.96-7.84 31.74-7.7 31.52-7.57 31.3-7.42L31.3-7.42Q30.88-7.15 30.32-7.03L30.32-7.03 29.88-6.76Q29.66-6.62 29.39-6.59L29.39-6.59Q28.95-6.27 28.42-6.08L28.42-6.08Q28.17-5.98 27.91-5.88 27.66-5.79 27.39-5.66L27.39-5.66Q27.02-5.52 26.76-5.32L26.76-5.32Q26.49-5.13 26.07-4.93L26.07-4.93Q25.85-4.86 25.36-4.76L25.36-4.76Q24.9-4.69 24.7-4.59L24.7-4.59Q24.95-4.1 24.9-3.37L24.9-3.37Q24.88-2.69 25.14-2.15L25.14-2.15Q25.78-2 26.54-1.93 27.29-1.86 27.98-1.95L27.98-1.95Q28.1-1.98 28.23-2.03 28.37-2.08 28.51-2.12L28.51-2.12Q28.66-2.17 28.81-2.22 28.95-2.27 29.1-2.29L29.1-2.29Q29.64-2.39 30.15-2.54 30.66-2.69 31.05-2.93L31.05-2.93Q32.47-3.42 33.79-4.25 35.1-5.08 36.08-6.05L36.08-6.05Q36.67-6.45 37.38-7.13 38.08-7.81 38.47-8.4L38.47-8.4Q39.21-9.18 39.77-9.62 40.33-10.06 40.82-10.01L40.82-10.01Q41.21-10.01 41.57-9.55 41.94-9.08 41.5-8.54L41.5-8.54Q41.04-8.25 40.48-7.67L40.48-7.67Q39.94-7.08 39.35-6.84L39.35-6.84Q38.94-6.57 38.25-5.76L38.25-5.76Q37.6-5 37.16-4.59L37.16-4.59Q37.06-4.49 36.94-4.37 36.81-4.25 36.64-4.13L36.64-4.13Q36.33-3.88 36.13-3.61L36.13-3.61Q35.37-2.98 34.67-2.54L34.67-2.54Q34.4-2.64 34.23-2.44L34.23-2.44Q34.01-2.17 33.84-2.05L33.84-2.05Q33.76-2 33.69-1.95 33.62-1.9 33.52-1.86L33.52-1.86Q33.42-1.81 33.35-1.76 33.27-1.71 33.2-1.66L33.2-1.66Q32.81-1.32 32.35-0.98 31.88-0.63 31.39-0.39L31.39-0.39Q30.91-0.1 30.42 0.16 29.93 0.42 29.44 0.61L29.44 0.61Q28.95 0.81 28.48 1.07 28 1.34 27.54 1.66L27.54 1.66 27 1.73Q26.88 1.76 26.76 1.77 26.63 1.78 26.51 1.81L26.51 1.81Q26.24 1.9 26 1.9L26 1.9Q25.75 1.9 25.39 1.81L25.39 1.81Q23.78 1.37 22.75 0.24L22.75 0.24Q22.6 0.1 22.45-0.04 22.29-0.17 22.12-0.29L22.12-0.29Q21.73-0.59 21.58-0.83L21.58-0.83Q21.36-1.2 21.13-1.98 20.9-2.76 20.73-3.58 20.55-4.39 20.55-4.83L20.55-4.83Q20.7-5.13 20.87-5.85 21.04-6.57 21.16-7.29 21.29-8.01 21.29-8.3L21.29-8.3Q21.38-8.4 21.66-8.95 21.95-9.5 22.2-10.07 22.46-10.64 22.46-10.79ZM30.32-13.92L30.32-13.92Q29.98-13.48 29.64-13.09 29.29-12.7 28.85-12.35L28.85-12.35Q28.56-11.82 28.17-11.38 27.78-10.94 27.39-10.55L27.39-10.55Q27.19-10.16 26.95-9.94 26.71-9.72 26.41-9.47L26.41-9.47Q26.1-8.94 25.63-8.45 25.17-7.96 25.44-7.32L25.44-7.32Q25.97-7.23 26.51-7.47 27.05-7.71 27.44-7.91L27.44-7.91Q27.63-8.03 27.84-8.13 28.05-8.23 28.24-8.33L28.24-8.33Q28.44-8.42 28.64-8.52 28.83-8.62 29-8.74L29-8.74 30.27-10.01Q30.56-10.28 30.86-10.64L30.86-10.64Q30.98-10.82 31.11-11 31.25-11.18 31.39-11.38L31.39-11.38Q31.52-11.91 31.78-12.38L31.78-12.38Q32.08-12.87 32.03-13.38L32.03-13.38Q32-13.6 31.86-13.89L31.86-13.89Q31.71-14.18 31.69-14.36L31.69-14.36Q31.17-14.36 30.93-14.18L30.93-14.18Q30.81-14.09 30.65-14.03 30.49-13.96 30.32-13.92ZM41.84-3.86L41.84-3.86Q42.3-3.76 42.72-4.1L42.72-4.1Q43.16-4.47 43.55-4.69L43.55-4.69Q43.75-4.93 44.01-5.2 44.28-5.47 44.58-5.66L44.58-5.66Q44.92-6.1 45.3-6.52 45.67-6.93 46.09-7.32L46.09-7.32Q46.28-7.57 46.48-7.8 46.67-8.03 46.87-8.25L46.87-8.25Q47.07-8.47 47.26-8.7 47.46-8.94 47.65-9.18L47.65-9.18Q47.85-9.45 48.04-9.81L48.04-9.81Q48.12-9.96 48.2-10.11 48.29-10.25 48.38-10.4L48.38-10.4Q48.65-10.84 48.95-11.18L48.95-11.18Q49.26-11.57 49.41-12.11L49.41-12.11Q49.6-12.43 49.92-12.6L49.92-12.6Q50.24-12.77 50.43-13.09L50.43-13.09Q50.56-13.23 50.68-13.53L50.68-13.53Q50.78-13.77 50.97-13.92L50.97-13.92Q51.17-14.06 51.19-14.16L51.19-14.16Q51.24-14.28 51.31-14.36L51.31-14.36Q51.46-14.62 51.68-14.79L51.68-14.79Q51.92-15.01 52.09-15.23L52.09-15.23Q52.7-15.72 52.97-15.99L52.97-15.99Q53.24-16.26 53.71-16.55L53.71-16.55Q54.58-16.85 55.49-16.75 56.39-16.65 56.78-16.11L56.78-16.11Q56.81-15.8 56.86-15.49 56.9-15.19 56.95-14.92L56.95-14.92Q57.08-14.33 56.78-13.48L56.78-13.48Q56.59-12.99 56.29-12.5L56.29-12.5Q56.03-12.06 55.85-11.52L55.85-11.52 55.66-11.23Q55.51-11.04 55.46-10.99L55.46-10.99Q55-9.67 54.44-8.42L54.44-8.42Q54.17-7.81 53.9-7.18 53.63-6.54 53.36-5.91L53.36-5.91Q54.66-6.54 55.22-6.93L55.22-6.93Q55.54-7.15 55.88-7.36 56.22-7.57 56.59-7.76L56.59-7.76 57.47-8.35Q57.69-8.5 57.92-8.64 58.15-8.79 58.39-8.94L58.39-8.94Q58.78-9.42 59.27-9.74 59.76-10.06 60.3-10.4L60.3-10.4Q60.64-10.74 60.98-10.96 61.32-11.18 61.71-11.43L61.71-11.43Q61.84-11.52 61.96-11.62 62.08-11.72 62.18-11.82L62.18-11.82Q62.47-12.06 62.64-12.16L62.64-12.16 63.01-12.55Q63.25-12.79 63.42-12.89L63.42-12.89Q63.86-13.06 64.3-13.33L64.3-13.33Q64.55-13.48 64.67-13.57L64.67-13.57Q64.84-13.72 65.08-13.82L65.08-13.82 65.42-14.28Q65.62-14.58 65.96-14.45L65.96-14.45Q66.08-14.6 66.33-14.6L66.33-14.6Q66.62-14.6 66.74-14.5L66.74-14.5Q66.74-14.33 66.82-14.21L66.82-14.21Q66.89-14.09 66.79-13.87L66.79-13.87Q66.55-13.7 66.35-13.5L66.35-13.5Q66.21-13.35 65.86-13.23L65.86-13.23Q65.25-12.57 64.77-12.26L64.77-12.26Q64.3-11.96 64.01-11.43L64.01-11.43Q63.18-10.6 62.3-9.77 61.42-8.94 60.54-8.15L60.54-8.15Q60.27-8.15 60-7.96L60-7.96Q59.74-7.76 59.52-7.86L59.52-7.86Q59.22-7.98 59.03-7.47L59.03-7.47Q57.76-6.13 56.2-5.08L56.2-5.08Q55.24-4.08 54-3.3L54-3.3Q52.73-2.49 51.8-1.56L51.8-1.56Q51.7-0.61 51.29 0.32L51.29 0.32Q50.87 1.25 50.63 2.1L50.63 2.1Q50.43 2.51 50.3 2.88 50.17 3.25 50.07 3.56L50.07 3.56Q49.87 4.22 49.56 4.79L49.56 4.79Q49.41 5.62 49.07 6.32 48.73 7.03 48.33 7.71L48.33 7.71Q48.21 8.3 47.85 8.74L47.85 8.74Q47.5 9.16 47.21 9.81L47.21 9.81Q47.09 10.08 46.97 10.28L46.97 10.28Q46.85 10.47 46.72 10.74L46.72 10.74Q46.58 10.99 46.48 11.23L46.48 11.23Q46.38 11.47 46.24 11.72L46.24 11.72 46.04 11.94Q45.99 11.99 45.94 12.05 45.89 12.11 45.84 12.16L45.84 12.16 45.26 13.18Q44.84 14.06 44.26 14.58L44.26 14.58Q43.94 14.84 43.62 15.16 43.31 15.48 42.96 15.82L42.96 15.82Q42.74 16.04 42.55 16.31L42.55 16.31Q42.38 16.55 42.13 16.8L42.13 16.8Q41.82 17.11 41.65 17.26L41.65 17.26Q41.52 17.36 41.4 17.49 41.28 17.63 41.16 17.77L41.16 17.77Q40.77 17.92 40.52 18.24 40.28 18.55 40.03 18.9L40.03 18.9Q39.79 19.04 39.72 19.12L39.72 19.12Q39.64 19.19 39.4 19.34L39.4 19.34Q39.06 19.46 38.91 19.56L38.91 19.56Q38.74 19.68 38.72 19.68L38.72 19.68Q38.4 19.85 37.98 19.9L37.98 19.9Q37.57 19.95 37.3 20.17L37.3 20.17Q36.81 20.17 36.59 19.97 36.37 19.78 36.18 19.53L36.18 19.53Q35.83 18.9 35.94 18.21 36.05 17.53 36.27 16.77 36.49 16.02 36.42 15.19L36.42 15.19Q36.69 14.4 36.71 13.87L36.71 13.87Q36.74 13.38 36.91 12.89L36.91 12.89Q37.28 12.28 37.3 12.11L37.3 12.11Q37.32 11.89 37.59 11.77L37.59 11.77Q37.64 11.45 37.74 11.28L37.74 11.28Q37.86 11.08 37.89 10.84L37.89 10.84Q38.03 10.74 38.13 10.6L38.13 10.6Q38.23 10.47 38.42 10.35L38.42 10.35Q38.67 9.86 38.86 9.45 39.06 9.03 39.18 8.69L39.18 8.69Q39.3 8.35 39.46 8.01 39.62 7.67 39.79 7.32L39.79 7.32Q39.86 7.13 39.92 6.95 39.99 6.76 40.03 6.59L40.03 6.59Q40.08 6.42 40.14 6.26 40.2 6.1 40.28 5.96L40.28 5.96Q40.5 5.47 40.94 4.88L40.94 4.88 41.74 3.81Q41.91 3.59 42.04 3.43 42.16 3.27 42.21 3.17L42.21 3.17Q42.35 2.93 42.43 2.83L42.43 2.83Q42.84 2.54 42.79 2.47L42.79 2.47Q42.77 2.39 42.82 2.39L42.82 2.39Q43.48 1.73 44.09 1.22L44.09 1.22Q44.38 0.88 44.67 0.59 44.97 0.29 45.36 0.05L45.36 0.05Q45.65-0.29 45.94-0.59 46.24-0.88 46.63-1.12L46.63-1.12Q47.02-1.39 47.37-1.7 47.72-2 48.04-2.32L48.04-2.32Q48.36-2.66 48.7-2.95 49.04-3.25 49.41-3.52L49.41-3.52Q49.53-4.25 49.75-4.74L49.75-4.74Q49.97-5.2 50.09-5.91L50.09-5.91Q50.29-6.25 50.43-6.69 50.58-7.13 50.68-7.52L50.68-7.52Q50.83-7.67 50.9-7.91L50.9-7.91Q51-8.25 51.07-8.45L51.07-8.45Q51.31-8.91 51.31-9.28L51.31-9.28Q51.36-9.67 51.36-9.79L51.36-9.79Q51.36-10.03 51.46-10.3L51.46-10.3Q51.51-10.64 51.51-10.99L51.51-10.99Q51.09-10.62 50.9-10.3L50.9-10.3Q50.65-9.91 50.39-9.57L50.39-9.57Q50.29-9.47 50.17-9.35 50.04-9.23 50-8.98L50-8.98Q49.7-8.67 49.65-8.64L49.65-8.64Q49.56-8.62 49.56-8.5L49.56-8.5Q48.99-7.86 48.44-7.21 47.9-6.57 47.33-5.88L47.33-5.88Q46.8-5.2 46.24-4.55 45.67-3.91 45.11-3.27L45.11-3.27Q44.67-2.88 44.18-2.51 43.7-2.15 43.16-1.76L43.16-1.76Q42.96-1.61 42.73-1.43 42.5-1.25 42.23-1.05L42.23-1.05Q41.67-0.63 40.91-0.88L40.91-0.88Q39.79-0.44 39.08-1.05 38.37-1.66 37.98-2.39L37.98-2.39Q37.79-2.69 37.67-2.91 37.54-3.13 37.59-3.66L37.59-3.66Q37.64-3.93 37.7-4.21 37.76-4.49 37.84-4.76L37.84-4.76Q37.91-5.03 37.97-5.35 38.03-5.66 38.08-6.01L38.08-6.01Q38.13-6.27 38.18-6.54 38.23-6.81 38.25-7.08L38.25-7.08Q38.33-7.59 38.47-8.2L38.47-8.2Q38.62-8.89 38.86-9.52 39.11-10.16 39.45-10.6L39.45-10.6Q39.57-10.96 39.69-11.32 39.81-11.67 39.91-11.99L39.91-11.99Q40.03-12.33 40.14-12.66 40.25-12.99 40.38-13.33L40.38-13.33Q40.62-14.11 40.96-14.84 41.3-15.58 41.69-16.26L41.69-16.26Q41.94-16.6 42.16-16.87 42.38-17.14 42.62-17.43L42.62-17.43Q43.11-17.48 43.4-17.6 43.7-17.72 43.99-17.87L43.99-17.87Q44.16-17.92 44.33-17.97 44.5-18.02 44.67-18.04L44.67-18.04Q44.84-18.09 45-18.13 45.16-18.16 45.31-18.21L45.31-18.21Q45.84-18.46 45.99-18.43L45.99-18.43Q46.11-18.41 46.24-18.55L46.24-18.55Q46.33-18.31 46.53-18.24L46.53-18.24Q46.75-18.16 46.77-17.92L46.77-17.92Q46.77-17.58 46.5-17.09L46.5-17.09Q46.26-16.63 46.14-16.36L46.14-16.36Q46.04-16.19 45.94-15.99 45.84-15.8 45.75-15.58L45.75-15.58Q45.55-15.11 45.31-14.79L45.31-14.79Q45.26-14.58 45.2-14.36 45.14-14.14 45.04-13.94L45.04-13.94Q44.94-13.75 44.87-13.53 44.79-13.31 44.72-13.09L44.72-13.09Q44.23-12.55 43.87-11.87 43.5-11.18 43.11-10.4L43.11-10.4Q43.01-10.16 42.89-9.96L42.89-9.96Q42.79-9.79 42.67-9.52L42.67-9.52Q42.62-9.3 42.59-9.08 42.55-8.86 42.5-8.64L42.5-8.64Q42.48-8.42 42.43-8.2 42.38-7.98 42.33-7.76L42.33-7.76Q42.13-7.25 42.04-6.64L42.04-6.64Q41.94-5.96 41.89-5.27 41.84-4.59 41.84-3.86ZM48.82 0.34L48.82 0.34 48.77 0.34Q47.82 0.95 47.07 1.73L47.07 1.73Q46.7 2.12 46.32 2.5 45.94 2.88 45.55 3.27L45.55 3.27Q45.38 3.47 45.21 3.65 45.04 3.83 44.87 4.03L44.87 4.03Q44.5 4.44 44.23 4.83L44.23 4.83Q43.99 5.27 43.72 5.74 43.45 6.2 43.06 6.59L43.06 6.59Q42.45 7.15 42.33 7.45L42.33 7.45Q42.26 7.62 42.18 7.75 42.11 7.89 42.04 8.01L42.04 8.01 41.67 8.76Q41.57 8.94 41.47 9.12 41.38 9.3 41.25 9.47L41.25 9.47Q41.04 9.89 40.82 10.45L40.82 10.45Q40.6 11.01 40.38 11.43L40.38 11.43Q40.03 12.3 39.84 13.11 39.64 13.92 39.69 14.75L39.69 14.75 39.69 15.11Q39.69 15.26 39.84 15.38L39.84 15.38Q40.06 15.38 40.57 15.19L40.57 15.19Q40.96 14.84 41.33 14.5 41.69 14.16 42.04 13.77L42.04 13.77Q42.72 12.99 43.5 12.21L43.5 12.21Q44.18 11.43 44.72 10.52 45.26 9.62 45.65 8.5L45.65 8.5Q45.8 8.23 45.92 7.95 46.04 7.67 46.14 7.35L46.14 7.35Q46.31 6.76 46.63 6.25L46.63 6.25Q46.89 5.47 47.18 4.71 47.46 3.96 47.75 3.25L47.75 3.25Q48.38 1.73 48.82 0.34ZM74.8-12.21L74.8-12.21Q74.89-12.13 75.07-12.38L75.07-12.38Q75.16-12.5 75.22-12.61 75.29-12.72 75.33-12.79L75.33-12.79Q75.43-13.01 75.51-13.28L75.51-13.28Q75.58-13.55 75.68-13.77L75.68-13.77Q75.97-14.33 76.43-14.89L76.43-14.89Q76.87-15.43 77.14-16.02L77.14-16.02Q77.21-16.09 77.36-16.19L77.36-16.19Q77.48-16.26 77.58-16.41L77.58-16.41Q77.97-16.46 78.12-16.5 78.26-16.55 78.41-16.65L78.41-16.65Q78.95-16.5 79.09-15.82L79.09-15.82Q79.07-15.45 78.78-15.21L78.78-15.21Q78.53-14.99 78.41-14.65L78.41-14.65Q78.29-14.45 78.34-14.26L78.34-14.26Q78.39-14.06 78.26-13.87L78.26-13.87Q78.02-13.06 77.6-12.3L77.6-12.3Q77.17-11.5 76.9-10.74L76.9-10.74Q76.65-10.25 76.43-9.77 76.21-9.28 76.07-8.74L76.07-8.74Q75.53-7.76 75.04-6.69L75.04-6.69Q74.58-5.64 74.02-4.49L74.02-4.49Q74.48-4.61 74.8-4.86L74.8-4.86Q75.14-5.13 75.53-5.37L75.53-5.37 75.97-5.54Q76.07-5.59 76.18-5.63 76.29-5.66 76.41-5.71L76.41-5.71 77.02-6.1Q77.12-6.15 77.2-6.2 77.29-6.25 77.39-6.3L77.39-6.3 77.68-6.52Q77.78-6.59 78.02-6.74L78.02-6.74Q78.14-6.86 78.29-6.88L78.29-6.88Q78.43-6.91 78.56-7.03L78.56-7.03Q78.85-7.15 79-7.28L79-7.28Q79.19-7.42 79.44-7.57L79.44-7.57Q79.73-7.71 79.95-7.86L79.95-7.86Q80.12-7.98 80.51-8.11L80.51-8.11Q80.8-8.23 81.1-8.4L81.1-8.4Q81.24-8.45 81.39-8.54L81.39-8.54Q81.54-8.67 81.63-8.69L81.63-8.69Q81.95-8.81 81.97-8.84L81.97-8.84Q82.05-8.91 82.12-8.94L82.12-8.94Q82.56-9.08 82.68-9.13L82.68-9.13Q82.73-9.16 82.85-9.28L82.85-9.28Q83.42-9.67 83.73-9.74L83.73-9.74Q84.07-9.84 84.66-10.21L84.66-10.21Q85.03-10.16 85.2-10.18L85.2-10.18Q85.44-10.21 85.64-10.01L85.64-10.01Q85.44-9.08 84.93-8.76 84.42-8.45 83.83-8.2L83.83-8.2Q83-7.47 82.41-7.06 81.83-6.64 80.9-6.05L80.9-6.05Q80.27-5.79 79.88-5.52L79.88-5.52Q79.44-5.52 79.22-5.37L79.22-5.37Q78.92-5.18 78.75-5.08L78.75-5.08Q78.58-4.98 78.34-4.93L78.34-4.93Q78.09-4.88 77.92-4.79L77.92-4.79Q77.43-4.49 77.31-4.44L77.31-4.44Q77.21-4.42 77.09-4.3L77.09-4.3Q76.6-3.64 76.16-3.47L76.16-3.47Q75.7-3.27 75.38-2.88L75.38-2.88Q74.55-2.64 74.02-2.1L74.02-2.1Q73.45-1.54 72.75-1.22L72.75-1.22Q72.33-0.05 72.09 1.03L72.09 1.03Q71.84 2.15 71.43 3.22L71.43 3.22 70.62 5.47Q70.43 6.03 70.24 6.6 70.06 7.18 69.91 7.76L69.91 7.76Q69.38 8.64 69.04 9.77L69.04 9.77Q68.86 10.3 68.66 10.84 68.45 11.38 68.21 11.91L68.21 11.91Q67.84 12.18 67.64 12.74L67.64 12.74Q67.45 13.31 67.03 13.62L67.03 13.62Q66.79 14.16 66.35 14.53L66.35 14.53Q65.91 14.89 65.52 15.28L65.52 15.28Q65.3 15.5 65.13 15.77L65.13 15.77Q64.57 16.33 63.86 16.97L63.86 16.97Q63.18 17.58 62.64 18.26L62.64 18.26Q62.1 18.6 61.66 18.99 61.22 19.38 60.78 19.82L60.78 19.82 60.37 20Q60.2 20.07 60 19.92L60 19.92Q59.51 20.07 58.98 19.97 58.44 19.87 58.54 19.34L58.54 19.34Q58.22 19.07 58.2 18.92L58.2 18.92Q58.17 18.73 58.05 18.55L58.05 18.55Q58.22 18.16 58.05 17.85L58.05 17.85Q57.85 17.5 57.85 17.29L57.85 17.29Q57.85 16.65 58 16.06L58 16.06Q58.12 15.41 58.32 14.97L58.32 14.97 58.78 13.96Q59.07 13.28 59.29 12.67 59.51 12.06 59.76 11.38L59.76 11.38Q60.12 10.77 60.22 10.23L60.22 10.23Q60.32 9.62 60.59 9.03L60.59 9.03Q60.69 8.84 60.8 8.64 60.91 8.45 61 8.28L61 8.28Q61.25 7.89 61.27 7.52L61.27 7.52Q61.47 7.15 61.67 6.82 61.88 6.49 62.13 6.2L62.13 6.2Q62.61 5.62 62.93 4.88L62.93 4.88Q64.2 3.08 65.86 1.73 67.52 0.39 69.23-0.88L69.23-0.88Q69.55-1.27 69.6-1.29 69.65-1.32 69.71-1.34 69.77-1.37 70.11-1.71L70.11-1.71Q70.18-1.73 70.23-1.9L70.23-1.9Q70.28-2.08 70.4-2.2L70.4-2.2Q70.6-2.73 70.83-3.33 71.06-3.93 71.33-4.61L71.33-4.61Q71.6-5.3 71.79-5.85 71.99-6.4 72.11-6.84L72.11-6.84Q71.84-6.71 71.75-6.49L71.75-6.49Q71.65-6.27 71.48-6.1L71.48-6.1Q71.38-5.96 71.23-5.86L71.23-5.86Q71.04-5.71 70.99-5.66L70.99-5.66Q70.84-5.52 70.74-5.44L70.74-5.44Q70.65-5.37 70.5-5.18L70.5-5.18Q70.04-4.79 69.56-4.26 69.08-3.74 68.6-3.32L68.6-3.32Q68.21-2.78 67.79-2.32 67.38-1.86 66.84-1.56L66.84-1.56Q66.11-1.03 65.32-0.68 64.54-0.34 63.86-0.1L63.86-0.1 63.2 0.12Q62.83 0.24 62.64 0.24L62.64 0.24Q62.49 0.29 62.39 0.27L62.39 0.27Q62.3 0.24 62.1 0.24L62.1 0.24Q61.37 0.24 60.78 0.05L60.78 0.05Q60.64-0.05 60.54-0.12 60.44-0.2 60.34-0.39L60.34-0.39Q60.25-0.49 60.1-0.66 59.95-0.83 59.86-0.98L59.86-0.98Q59.76-1.2 59.76-1.49L59.76-1.49Q59.76-1.78 59.66-2L59.66-2Q59.61-2.25 59.55-2.48 59.49-2.71 59.42-2.91L59.42-2.91Q59.27-3.34 59.37-3.76L59.37-3.76Q59.39-3.83 59.42-3.91 59.44-3.98 59.47-4.03L59.47-4.03Q59.51-4.15 59.47-4.3L59.47-4.3Q59.44-4.39 59.34-4.59L59.34-4.59Q59.25-4.79 59.22-4.88L59.22-4.88Q58.98-5.27 58.98-5.52L58.98-5.52Q58.95-5.79 59.05-6.03L59.05-6.03Q59.17-6.32 59.07-6.49L59.07-6.49Q59.25-6.86 59.34-7.18L59.34-7.18Q59.47-7.52 59.71-7.81L59.71-7.81Q60.08-8.35 60.17-8.62L60.17-8.62Q60.22-8.79 60.31-8.92 60.39-9.06 60.49-9.18L60.49-9.18Q60.78-9.67 61-9.96L61-9.96Q61.27-10.3 61.52-10.69L61.52-10.69Q62.44-12.3 63.57-13.62L63.57-13.62Q63.74-13.72 63.91-13.77L63.91-13.77Q64.06-13.82 64.1-14.01L64.1-14.01Q65.23-14.55 66.25-15.19L66.25-15.19Q66.81-15.33 67.2-15.7L67.2-15.7Q67.62-16.09 68.16-16.26L68.16-16.26Q68.57-16.43 69.08-16.75L69.08-16.75Q69.57-17.07 70.11-17.09L70.11-17.09Q70.6-17.09 70.84-17.24 71.09-17.38 71.33-17.53L71.33-17.53Q72.01-17.92 72.89-17.87L72.89-17.87Q73.31-17.48 73.7-17.29L73.7-17.29Q74.09-17.11 74.36-16.65L74.36-16.65Q74.43-16.53 74.48-16.16L74.48-16.16 74.55-15.53Q74.65-15.28 74.72-15.01 74.8-14.75 74.85-14.5L74.85-14.5Q74.89-13.84 74.82-13.33L74.82-13.33Q74.75-12.82 74.8-12.21ZM72.26-14.26L72.26-14.26 72.21-14.26Q72.04-14.11 71.79-14.11L71.79-14.11Q71.55-14.11 71.38-14.01L71.38-14.01Q71.31-13.94 71.16-13.84L71.16-13.84Q71.01-13.75 70.94-13.67L70.94-13.67Q70.72-13.55 70.49-13.45 70.26-13.35 69.99-13.26L69.99-13.26Q69.43-13.06 69.08-12.84L69.08-12.84Q68.86-12.7 68.69-12.43L68.69-12.43Q68.55-12.21 68.3-12.06L68.3-12.06Q68.16-11.96 68.01-11.88 67.86-11.79 67.69-11.72L67.69-11.72Q67.38-11.57 67.13-11.33L67.13-11.33Q66.98-11.18 66.91-11.04L66.91-11.04Q66.84-10.89 66.59-10.89L66.59-10.89Q66.06-9.89 65.28-9.03L65.28-9.03Q64.47-8.13 64.01-7.13L64.01-7.13Q63.76-7.03 63.69-6.79L63.69-6.79Q63.64-6.59 63.47-6.3L63.47-6.3Q62.93-5.35 63.05-4.81L63.05-4.81Q63.1-4.57 63.15-4.31 63.2-4.05 63.22-3.81L63.22-3.81Q63.52-3.42 64.03-3.59 64.54-3.76 64.93-4L64.93-4Q65.42-4.35 65.89-4.76 66.35-5.18 66.84-5.62L66.84-5.62Q67.33-6.01 67.74-6.47 68.16-6.93 68.55-7.37L68.55-7.37Q68.67-7.54 68.94-7.76L68.94-7.76Q69.21-7.98 69.33-8.15L69.33-8.15Q69.65-8.47 69.77-8.62L69.77-8.62Q69.96-8.84 70.21-8.98L70.21-8.98Q70.4-9.25 70.57-9.51 70.74-9.77 70.92-10.01L70.92-10.01Q71.09-10.25 71.26-10.49 71.43-10.72 71.62-10.94L71.62-10.94Q71.89-11.57 72.14-12.11L72.14-12.11Q72.26-12.38 72.38-12.66 72.5-12.94 72.6-13.23L72.6-13.23Q72.5-13.45 72.5-13.79L72.5-13.79Q72.5-14.11 72.26-14.26ZM68.25 3.42L68.25 3.42Q68.13 3.44 67.99 3.59L67.99 3.59Q67.91 3.66 67.67 3.86L67.67 3.86Q67.18 4.35 66.72 4.86 66.25 5.37 65.86 6.01L65.86 6.01Q65.42 6.62 64.86 7.23L64.86 7.23Q64.27 7.84 64.1 8.54L64.1 8.54Q63.57 9.38 63.15 10.25 62.74 11.13 62.49 12.21L62.49 12.21Q62.44 12.5 62.39 12.73 62.35 12.96 62.3 13.13L62.3 13.13Q62.2 13.45 62.15 13.82L62.15 13.82Q62.44 13.53 62.76 13.21 63.08 12.89 63.32 12.6L63.32 12.6Q63.42 12.5 63.49 12.35L63.49 12.35Q63.57 12.21 63.66 12.11L63.66 12.11Q63.96 11.69 64.26 11.29 64.57 10.89 64.89 10.5L64.89 10.5Q65.52 9.72 66.06 8.89L66.06 8.89Q66.3 8.59 66.5 8.33 66.69 8.06 66.89 7.76L66.89 7.76Q67.79 6.54 68.25 5.15L68.25 5.15Q68.74 3.76 69.28 2.29L69.28 2.29Q69.13 2.44 68.99 2.56 68.84 2.69 68.72 2.81L68.72 2.81Q68.4 3.08 68.25 3.42ZM93.69-0.34L93.69-0.34 93.4-1.42Q93.11-2.03 93.3-3.32L93.3-3.32 93.47-4.17Q93.52-4.35 93.56-4.61 93.59-4.88 93.64-5.27L93.64-5.27Q93.69-5.64 93.75-6.02 93.81-6.4 93.91-6.79L93.91-6.79Q94.01-7.18 94.07-7.57 94.13-7.96 94.18-8.35L94.18-8.35Q93.81-7.79 93.47-7.2 93.13-6.62 92.81-5.98L92.81-5.98Q92.2-4.79 91.3-3.91L91.3-3.91Q91.1-3.32 90.81-3.16 90.52-3 90.22-2.86 89.93-2.71 89.74-2.15L89.74-2.15Q89.49-1.9 89.27-1.64 89.05-1.37 88.95-0.98L88.95-0.98Q88.71-0.88 88.47-0.59L88.47-0.59Q88-0.12 87.88-0.1L87.88-0.1Q87.76-0.07 87.64 0.05L87.64 0.05Q87.15 0.44 86.78 0.63 86.42 0.83 85.93 0.88L85.93 0.88Q85.39 0.98 84.54 1.03L84.54 1.03Q84.12 1.05 83.78 1.07 83.44 1.1 83.19 1.12L83.19 1.12Q82.88 0.88 82.7 0.83L82.7 0.83Q82.63 0.81 82.5 0.76 82.36 0.71 82.17 0.63L82.17 0.63Q81.46 0.34 81.48 0.37L81.48 0.37Q81.46 0.34 81.4 0.32 81.34 0.29 81.24 0.24L81.24 0.24Q80.85-0.05 80.7-0.22L80.7-0.22Q80.61-0.34 80.36-0.59L80.36-0.59Q79.56-1.83 79.43-3.81L79.43-3.81Q79.38-4.49 79.68-5.18 79.97-5.86 80.21-6.4L80.21-6.4Q80.51-7.01 80.85-7.52L80.85-7.52Q81.04-7.81 81.2-8.08 81.36-8.35 81.48-8.59L81.48-8.59Q81.78-9.18 81.59-9.36 81.41-9.55 81.68-10.11L81.68-10.11Q81.8-10.5 81.97-10.79L81.97-10.79 82.41-11.57Q82.85-12.35 83.34-12.96L83.34-12.96Q83.78-13.5 84.07-14.4L84.07-14.4Q84.32-15.09 84.73-15.45 85.15-15.82 85.73-16.11L85.73-16.11Q85.98-16.02 86.44-16.19 86.9-16.36 87.15-16.55L87.15-16.55Q87.49-16.55 87.69-16.75L87.69-16.75Q88.22-16.85 88.25-16.75L88.25-16.75Q88.27-16.65 88.37-16.65L88.37-16.65Q88.47-16.63 88.64-16.65L88.64-16.65Q88.81-16.67 88.91-16.65L88.91-16.65Q89.08-16.14 89.15-16.02L89.15-16.02Q89.25-15.89 89.25-15.77L89.25-15.77Q89.25-15.63 89.22-15.38 89.2-15.14 89.15-15.04L89.15-15.04Q88.88-14.67 88.83-14.58L88.83-14.58 88.76-14.4Q88.61-14.21 88.43-13.95 88.25-13.7 88.03-13.35L88.03-13.35 87.25-12.21Q86.98-11.79 86.76-11.67L86.76-11.67Q86.49-11.52 86.32-11.13L86.32-11.13Q86.22-10.96 86.17-10.77L86.17-10.77Q86.15-10.6 86.03-10.4L86.03-10.4Q85.46-9.23 84.76-8.03L84.76-8.03Q84.39-7.42 84.06-6.82 83.73-6.23 83.44-5.66L83.44-5.66Q83.41-5.47 83.36-5.29 83.32-5.1 83.27-4.91L83.27-4.91Q83.14-4.49 83.14-4.2L83.14-4.2Q83.14-4.13 83.1-3.44 83.05-2.76 83.14-2.64L83.14-2.64Q83.44-2.22 83.49-2.27L83.49-2.27Q83.53-2.32 83.58-2.25L83.58-2.25Q83.78-1.76 83.85-1.68 83.93-1.61 84.17-1.51L84.17-1.51Q84.37-1.46 84.73-1.59 85.1-1.71 85.29-1.81L85.29-1.81Q85.88-2.1 86.17-2.42 86.46-2.73 86.76-3.08L86.76-3.08Q87.49-3.96 88.32-5.13 89.15-6.3 89.88-7.18L89.88-7.18Q90.15-7.76 90.59-8.35L90.59-8.35Q91.05-8.98 91.3-9.47L91.3-9.47 91.98-10.79Q92.13-11.06 92.3-11.38 92.47-11.69 92.67-12.06L92.67-12.06Q92.96-12.48 93.28-12.82L93.28-12.82Q93.59-13.16 93.74-13.82L93.74-13.82Q93.86-14.16 94.11-14.48L94.11-14.48Q94.23-14.65 94.34-14.78 94.45-14.92 94.52-15.04L94.52-15.04Q94.89-15.38 94.99-15.58L94.99-15.58Q95.08-15.77 95.3-15.92L95.3-15.92Q95.84-16.06 96.13-16.14 96.43-16.21 96.87-16.11L96.87-16.11Q97.26-16.36 97.7-16.36L97.7-16.36Q97.91-16.36 98.12-16.35 98.33-16.33 98.53-16.31L98.53-16.31Q98.53-16.06 98.65-15.99L98.65-15.99Q98.77-15.92 98.77-15.72L98.77-15.72Q98.96-15.28 98.77-14.65L98.77-14.65Q98.55-13.94 98.53-13.38L98.53-13.38Q98.4-12.87 98.16-12.48L98.16-12.48Q97.89-12.04 97.74-11.52L97.74-11.52Q97.65-11.16 97.59-10.94 97.52-10.72 97.5-10.64L97.5-10.64 97.35-10.11Q97.26-9.67 97.16-9.27 97.06-8.86 96.96-8.47L96.96-8.47Q96.77-7.69 96.67-6.74L96.67-6.74Q96.67-6.49 96.6-6.23L96.6-6.23Q96.52-5.98 96.52-5.76L96.52-5.76Q96.52-5.52 96.55-5.18 96.57-4.83 96.82-4.74L96.82-4.74Q97.08-4.64 97.28-4.79L97.28-4.79Q97.52-4.98 97.79-5.13L97.79-5.13Q97.96-5.25 98.28-5.57L98.28-5.57Q98.6-5.88 98.77-6.01L98.77-6.01Q99.01-6.25 99.31-6.4L99.31-6.4Q99.6-6.54 99.84-6.79L99.84-6.79Q100.23-7.13 100.61-7.48 100.99-7.84 101.33-8.2L101.33-8.2Q102.07-8.96 102.87-9.42L102.87-9.42Q103.65-10.25 104.46-10.96 105.26-11.67 106.29-12.16L106.29-12.16Q106.68-11.52 106.48-11.11 106.29-10.69 106-10.3L106-10.3Q105.87-10.18 105.65-10.06L105.65-10.06Q105.39-9.91 105.26-9.81L105.26-9.81 105.02-9.57Q104.87-9.42 104.78-9.42L104.78-9.42Q104.78-9.23 104.65-9.11L104.65-9.11 104.43-8.89Q104.12-8.4 103.76-7.97 103.41-7.54 103.02-7.15L103.02-7.15Q102.63-6.76 102.25-6.38 101.87-6.01 101.5-5.62L101.5-5.62Q101.16-5.49 101.09-5.3L101.09-5.3Q101.02-5.05 100.77-4.88L100.77-4.88Q100.67-4.76 100.58-4.66 100.48-4.57 100.38-4.47L100.38-4.47Q100.28-4.37 100.19-4.27 100.09-4.17 99.99-4.05L99.99-4.05Q99.7-3.74 99.48-3.39L99.48-3.39Q99.26-3.08 98.87-2.78L98.87-2.78Q98.62-2.54 98.5-2.27L98.5-2.27Q98.4-2.03 98.13-1.76L98.13-1.76Q97.74-1.37 97.57-1.39L97.57-1.39Q97.43-1.42 97.3-0.93L97.3-0.93Q96.91-0.63 96.87-0.51L96.87-0.51Q96.84-0.42 96.72-0.44L96.72-0.44Q96.6-0.39 96.38-0.37L96.38-0.37Q96.13-0.34 96.13-0.24L96.13-0.24Q95.82-0.1 95.62 0.05L95.62 0.05Q95.42 0.22 95.16 0.24L95.16 0.24Q94.52 0.34 94.25 0.17 93.98 0 93.69-0.34ZM118.44-13.57L118.44-13.57 118.4-13.18Q118.44-13.01 118.3-12.6L118.3-12.6Q118.05-12.3 118.01-11.96L118.01-11.96Q117.91-11.77 117.83-11.62 117.76-11.47 117.71-11.23L117.71-11.23Q117.61-10.94 117.64-10.55L117.64-10.55Q117.66-10.35 117.65-10.17 117.64-9.99 117.61-9.81L117.61-9.81Q117.52-9.28 117.47-8.76 117.42-8.25 117.37-7.71L117.37-7.71Q117.37-7.18 117.27-6.49 117.18-5.81 117.08-5.27L117.08-5.27Q117.3-4.88 117.32-4.54L117.32-4.54Q117.35-4.17 117.66-3.91L117.66-3.91Q118.64-4.05 119.23-4.37 119.81-4.69 120.35-5.27L120.35-5.27Q120.74-5.44 120.96-5.62L120.96-5.62Q121.15-5.79 121.52-6.01L121.52-6.01 121.91-6.4Q122.5-6.71 122.57-6.79L122.57-6.79Q122.62-6.84 122.7-6.88 122.79-6.93 122.89-6.98L122.89-6.98Q123.72-7.52 124.16-8.11L124.16-8.11Q124.52-8.4 124.77-8.72L124.77-8.72Q124.96-8.98 125.52-9.23L125.52-9.23Q125.84-9.62 126.23-9.89L126.23-9.89Q126.62-10.16 126.94-10.55L126.94-10.55Q127.21-10.55 127.33-10.45L127.33-10.45Q127.4-10.4 127.49-10.35 127.58-10.3 127.67-10.25L127.67-10.25Q127.82-9.86 127.72-9.45 127.62-9.03 127.38-8.69L127.38-8.69Q127.14-8.37 127.14-8.3L127.14-8.3Q127.14-8.25 127.09-8.2L127.09-8.2Q126.94-8.03 126.72-7.84L126.72-7.84Q126.5-7.67 126.35-7.47L126.35-7.47Q126.11-7.03 125.96-7.03L125.96-7.03Q125.82-7.03 125.72-6.93L125.72-6.93Q125.28-6.67 125.11-6.54L125.11-6.54Q124.91-6.37 124.55-6.15L124.55-6.15Q124.04-5.88 123.91-5.76L123.91-5.76Q123.79-5.64 123.72-5.62L123.72-5.62Q123.13-4.96 122.57-4.52L122.57-4.52Q122.06-4.13 121.47-3.42L121.47-3.42Q121.28-3.27 121.08-3.13 120.89-2.98 120.74-2.73L120.74-2.73Q120.3-2.44 120.03-2.15 119.76-1.86 119.42-1.46L119.42-1.46Q119.13-1.32 118.79-1.05L118.79-1.05Q118.37-0.73 118.05-0.59L118.05-0.59Q117.93-0.51 117.64-0.37L117.64-0.37Q117.39-0.24 117.18-0.24L117.18-0.24Q116.61-0.15 116.1-0.34L116.1-0.34Q115.64-0.51 115.17-0.63L115.17-0.63Q114.98-0.93 114.68-1.12L114.68-1.12Q114.25-1.66 114.05-2.39 113.85-3.13 113.66-3.96L113.66-3.96Q113.22-3.66 112.93-3.32L112.93-3.32Q112.63-2.95 112.05-2.69L112.05-2.69Q111.56-2.22 111.05-1.77 110.53-1.32 109.97-0.9L109.97-0.9Q109.44-0.49 108.87-0.04 108.31 0.42 107.75 0.88L107.75 0.88Q107.36 1.27 107.21 1.17L107.21 1.17Q106.77 1.71 105.65 1.51L105.65 1.51Q105.26 1.32 104.77 1.17L104.77 1.17Q104.43 1.07 103.99 0.88L103.99 0.88Q103.16 0.73 102.6 0.15 102.04-0.44 101.65-1.22L101.65-1.22Q101.5-1.64 101.43-1.95L101.43-1.95Q101.4-2.12 101.35-2.32 101.31-2.51 101.26-2.73L101.26-2.73Q101.23-3.15 101.11-3.39L101.11-3.39Q101.01-3.66 101.11-3.91L101.11-3.91Q101.01-4.03 101.06-4.22L101.06-4.22Q101.11-4.47 101.11-4.59L101.11-4.59Q101.06-5.27 101.23-6.05 101.4-6.84 101.7-7.47L101.7-7.47Q101.84-7.71 102.09-7.96L102.09-7.96Q102.21-8.11 102.23-8.25L102.23-8.25Q102.26-8.37 102.38-8.5L102.38-8.5Q102.5-8.64 102.67-8.79L102.67-8.79Q102.92-8.98 103.01-9.08L103.01-9.08Q103.14-9.25 103.27-9.41 103.41-9.57 103.58-9.69L103.58-9.69Q103.75-9.81 103.89-9.96 104.04-10.11 104.19-10.25L104.19-10.25Q104.36-10.42 104.46-10.6L104.46-10.6Q104.58-10.79 104.82-10.89L104.82-10.89Q105.02-11.23 105.26-11.45 105.51-11.67 105.8-11.91L105.8-11.91Q106.63-12.92 107.85-13.62L107.85-13.62Q109.09-14.33 110.05-15.19L110.05-15.19Q110.39-15.33 110.63-15.53 110.88-15.72 111.12-15.92L111.12-15.92Q111.73-16.46 112.44-16.26L112.44-16.26 113.71-15.92Q114.2-15.48 114.66-15.04 115.12-14.6 115.47-14.06L115.47-14.06Q115.64-14.09 115.83-14.1 116.03-14.11 116.25-14.09L116.25-14.09Q116.69-14.04 117.18-14.16L117.18-14.16Q117.32-14.16 117.47-14.23L117.47-14.23Q117.61-14.31 117.71-14.31L117.71-14.31Q118.44-14.06 118.44-13.57ZM112-12.84L112-12.84Q110.68-12.21 109.61-11.35 108.53-10.5 107.56-9.52L107.56-9.52Q107.43-9.4 107.3-9.29 107.17-9.18 107.04-9.06L107.04-9.06Q106.92-8.96 106.8-8.84 106.68-8.72 106.58-8.59L106.58-8.59Q106.38-8.35 106.21-8.01 106.04-7.67 105.9-7.37L105.9-7.37Q105.85-7.28 105.8-7.19 105.75-7.1 105.7-7.06L105.7-7.06Q105.65-7.01 105.6-6.93 105.55-6.86 105.51-6.79L105.51-6.79Q105.41-6.54 105.43-6.3L105.43-6.3Q105.46-6.13 105.46-5.76L105.46-5.76 105.46-5.27Q105.46-5.13 105.51-4.79L105.51-4.79Q105.65-4.25 105.65-3.71L105.65-3.71Q105.65-3.32 105.72-2.76 105.8-2.2 106.09-2L106.09-2Q106.41-1.81 106.7-1.9L106.7-1.9Q107.04-2.03 107.26-2.05L107.26-2.05Q108.97-3.37 110.49-4.81 112-6.25 113.17-8.06L113.17-8.06Q113.07-9.25 113.15-10.52L113.15-10.52Q113.22-11.72 112.93-12.74L112.93-12.74Q112.73-12.87 112.46-12.82L112.46-12.82Q112.27-12.79 112-12.84ZM137.97-3.86L137.97-3.86Q138.17-4.13 138.27-4.22L138.27-4.22Q138.39-4.35 138.56-4.44L138.56-4.44Q139.17-5.74 140.16-6.49 141.15-7.25 142.27-8.2L142.27-8.2Q142.51-8.2 142.69-8.37L142.69-8.37Q142.86-8.54 143.1-8.64L143.1-8.64Q143.39-8.91 143.66-9.08L143.66-9.08Q143.88-9.23 144.03-9.47L144.03-9.47Q144.59-9.74 145.08-10.21L145.08-10.21Q145.59-10.67 146.08-11.04L146.08-11.04Q146.47-11.13 146.91-10.94L146.91-10.94Q147.1-10.55 147.06-10.11 147.01-9.67 146.57-9.62L146.57-9.62Q146.42-9.47 146.25-9.33 146.08-9.18 145.83-9.13L145.83-9.13Q145.35-9.03 145.2-8.74L145.2-8.74Q145.18-8.28 145.08-8.18L145.08-8.18Q144.98-8.08 144.96-8.01L144.96-8.01Q144.42-7.1 143.76-6.46 143.1-5.81 142.51-4.88L142.51-4.88Q142.25-4.71 142.07-4.35L142.07-4.35Q141.2-3.86 140.78-3.59 140.37-3.32 140.02-2.93L140.02-2.93Q139.73-2.76 139.73-2.64L139.73-2.64Q139.73-2.54 139.63-2.44L139.63-2.44Q139.15-2.03 139.07-1.83L139.07-1.83Q139-1.64 138.85-1.51L138.85-1.51Q138.61-1.34 138.42-1.18 138.24-1.03 138.12-0.9L138.12-0.9Q137.83-0.61 137.49-0.49L137.49-0.49Q137.07-0.15 136.26 0.33 135.46 0.81 134.6 1.06 133.75 1.32 133.19 1.07L133.19 1.07 132.85 0.81Q132.75 0.73 132.5 0.59L132.5 0.59Q132.19 0.2 131.8-0.07L131.8-0.07Q131.45-0.32 131.14-0.78L131.14-0.78Q130.77-1.29 130.67-1.83L130.67-1.83Q130.58-2.39 130.31-2.93L130.31-2.93Q130.19-4.2 130.5-5.03L130.5-5.03Q130.77-5.86 131.09-6.58 131.41-7.3 131.8-7.91L131.8-7.91Q132.55-9.08 132.85-10.69L132.85-10.69Q132.31-11.23 132.24-11.69L132.24-11.69Q132.21-11.94 132.14-12.26 132.07-12.57 131.97-12.99L131.97-12.99Q130.7-12.16 129.62-10.89 128.55-9.62 127.72-8.3L127.72-8.3 127.13-7.23Q126.89-6.76 126.55-6.35L126.55-6.35Q126.3-6.1 126.3-6.03L126.3-6.03Q126.3-5.96 126.21-5.86L126.21-5.86Q126.01-5.62 125.89-5.44 125.77-5.27 125.72-5.18L125.72-5.18Q125.67-5.08 125.62-4.99 125.57-4.91 125.52-4.83L125.52-4.83Q125.38-4.64 125.28-4.54L125.28-4.54Q125.18-4.44 125.03-4.25L125.03-4.25Q124.35-3.27 123.79-2.42L123.79-2.42 122.64-0.68Q122.37-0.27 122.2 0.15L122.2 0.15Q122.03 0.59 121.71 0.93L121.71 0.93Q121.23 0.98 121.15 0.78 121.08 0.59 121.18 0.44L121.18 0.44Q120.59 0.05 120.52-1.07 120.44-2.2 120.74-2.88L120.74-2.88Q120.59-3.32 120.64-3.37L120.64-3.37Q120.69-3.42 120.69-3.52L120.69-3.52Q121.32-4.39 121.98-5.27 122.64-6.15 123.37-6.93L123.37-6.93Q123.5-7.1 123.62-7.28 123.74-7.45 123.84-7.62L123.84-7.62Q124.08-7.98 124.35-8.25L124.35-8.25Q124.77-8.96 125.35-9.72L125.35-9.72Q125.94-10.45 126.3-11.23L126.3-11.23Q126.57-11.5 126.67-11.77L126.67-11.77Q126.79-12.06 127.08-12.26L127.08-12.26Q127.26-12.55 127.39-12.83 127.52-13.11 127.62-13.38L127.62-13.38Q127.77-13.84 128.16-14.31L128.16-14.31Q128.26-14.65 128.4-14.84 128.55-15.04 128.79-15.28L128.79-15.28Q128.82-15.5 129.06-15.7L129.06-15.7Q129.31-15.89 129.43-16.11L129.43-16.11Q129.55-16.46 129.67-16.55L129.67-16.55Q129.82-16.67 129.82-16.89L129.82-16.89Q130.06-17.14 130.31-17.41 130.55-17.68 130.75-18.07L130.75-18.07Q131.43-18.46 131.7-18.46L131.7-18.46Q131.97-18.46 132.11-18.7L132.11-18.7Q132.31-18.7 132.54-18.7 132.77-18.7 133.04-18.73L133.04-18.73Q133.6-18.77 133.63-18.36L133.63-18.36Q133.65-18.26 133.63-18.12L133.63-18.12Q133.6-18.04 133.58-17.97 133.55-17.9 133.53-17.82L133.53-17.82Q133.55-17.38 133.53-17.36L133.53-17.36Q133.48-17.31 133.48-17.29L133.48-17.29Q133.43-17.09 133.46-16.94L133.46-16.94Q133.48-16.82 133.48-16.5L133.48-16.5Q133.46-16.31 133.43-16.16 133.41-16.02 133.38-15.89L133.38-15.89Q133.33-15.65 133.58-15.33L133.58-15.33Q133.7-15.16 133.87-15.06L133.87-15.06Q134.04-14.97 134.21-14.75L134.21-14.75Q134.34-14.62 134.38-14.45L134.38-14.45Q134.43-14.28 134.56-14.16L134.56-14.16Q134.65-14.04 134.85-13.92L134.85-13.92Q135.04-13.79 135.14-13.57L135.14-13.57Q135.41-13.38 135.31-13.33L135.31-13.33Q135.24-13.28 135.53-13.13L135.53-13.13Q136.09-12.43 136.36-11.62L136.36-11.62Q136.68-11.01 136.9-10.64L136.9-10.64Q137.14-10.25 136.9-9.86L136.9-9.86Q136.75-9.72 136.56-9.28L136.56-9.28Q136.34-9.06 136.17-8.79L136.17-8.79Q136.07-8.62 136.02-8.42L136.02-8.42Q136-8.25 135.87-8.11L135.87-8.11Q135.43-7.4 134.97-6.84L134.97-6.84Q134.51-6.27 134.16-5.62L134.16-5.62Q134.19-4.22 134.7-3.56L134.7-3.56Q135.29-2.88 135.43-2.88L135.43-2.88Q135.75-2.83 136.12-3.08L136.12-3.08 136.75-3.47Q136.85-3.52 136.94-3.56 137.02-3.61 137.09-3.66L137.09-3.66Q137.24-3.76 137.44-3.81L137.44-3.81Q137.95-3.98 137.92-3.93L137.92-3.93Q137.9-3.86 137.97-3.86ZM159.6-4.2L159.6-4.2Q159.94-4.2 160.09-4.15L160.09-4.15Q160.24-4.1 160.33-4.1L160.33-4.1Q160.82-4.1 161.59-4.8 162.36-5.49 162.82-5.86L162.82-5.86Q163.83-6.08 164.45-7.14 165.07-8.2 165.85-8.98L165.85-8.98Q166.85-9.99 167.48-10.78 168.1-11.57 168.54-11.57L168.54-11.57Q168.93-11.57 169.1-11.21L169.1-11.21Q169.32-10.77 169.42-10.6L169.42-10.6Q169.32-10.5 169.32-10.3L169.32-10.3Q169.32-10.08 169.22-9.96L169.22-9.96Q169.12-9.81 168.93-9.67L168.93-9.67Q168.73-9.52 168.59-9.33L168.59-9.33 168.1-8.74Q167.46-8.11 166.9-7.13 166.34-6.15 165.79-5.29 165.24-4.42 164.63-4.05L164.63-4.05Q163.34-3.22 162.56-2.29L162.56-2.29Q161.8-1.39 160.87-0.83L160.87-0.83Q160.77-0.83 160.75-0.85L160.75-0.85Q160.72-0.88 160.68-0.88L160.68-0.88Q160.46-0.88 160.36-0.78L160.36-0.78Q160.26-0.68 160.09-0.68L160.09-0.68Q159.19-1.03 158.65-1.45 158.11-1.88 157.26-3.32L157.26-3.32Q157.04-3.69 156.87-4.13L156.87-4.13Q156.7-4.61 156.48-4.98L156.48-4.98 155.82-6.18Q155.55-6.67 155.55-7.81L155.55-7.81Q155.55-8.3 155.65-9.28 155.74-10.25 155.84-10.84L155.84-10.84Q155.09-10.08 154.45-8.96L154.45-8.96Q154.13-8.42 153.84-7.91 153.55-7.4 153.25-6.93L153.25-6.93Q152.47-5.74 151.57-4.57L151.57-4.57Q150.69-3.44 150.67-2.83L150.67-2.83Q150.37-2.54 150.03-1.98 149.69-1.42 149.51-1.01 149.32-0.61 149.49-0.78L149.49-0.78Q148.81 0.34 147.52 0.81 146.22 1.27 145.1 1.27L145.1 1.27Q144.88 1.25 144.66 1.22 144.44 1.2 144.22 1.17L144.22 1.17Q143.81 1.15 143.39 0.83L143.39 0.83 142.66 0.29Q141.88-0.1 141.58-0.93 141.29-1.76 141.29-2.73L141.29-2.73Q141.9-4.27 142-5.49L142-5.49Q142.1-6.69 142.56-7.86L142.56-7.86Q143.24-9.67 144.49-11.08 145.73-12.5 147.1-13.67L147.1-13.67Q148.2-14.6 149.63-15.71 151.06-16.82 151.69-17.58L151.69-17.58Q152.47-17.7 153.02-18.05 153.57-18.41 154.13-18.73 154.69-19.04 155.45-19.04L155.45-19.04Q156.57-19.04 156.77-18.65 156.96-18.26 157.36-17.58L157.36-17.58Q157.67-18.38 157.84-19.21L157.84-19.21Q157.94-19.63 158.08-20.02 158.21-20.41 158.38-20.75L158.38-20.75Q158.67-22.27 159.38-23.97 160.09-25.68 160.8-27.12L160.8-27.12Q161.38-28.3 161.96-29.36 162.53-30.42 162.73-30.71L162.73-30.71Q163.48-31.88 164.36-32.69L164.36-32.69Q165.22-33.5 165.85-34.42L165.85-34.42Q166.34-35.01 166.8-35.77L166.8-35.77Q167.29-36.6 167.56-36.77L167.56-36.77Q168.93-36.4 169-35.69 169.07-34.99 169.07-34.08L169.07-34.08Q169.07-33.3 168.93-32.52L168.93-32.52 167.27-29.05Q166.58-27.78 165.97-26.46 165.36-25.15 164.83-23.78L164.83-23.78Q163.92-22.02 162.85-20.7L162.85-20.7Q162.31-20.04 161.84-19.34 161.36-18.63 160.92-17.87L160.92-17.87Q160.75-17.36 160.41-16.87L160.41-16.87Q160.24-16.63 160.09-16.39 159.94-16.16 159.8-15.92L159.8-15.92 158.92-13.82Q158.63-13.43 158.63-13.09L158.63-13.09Q158.72-12.87 158.72-12.7L158.72-12.7 158.72-12.45Q158.72-12.23 158.72-12.01 158.72-11.79 158.7-11.57L158.7-11.57Q158.67-11.35 158.67-11.12 158.67-10.89 158.67-10.64L158.67-10.64Q158.67-8.15 158.87-5.76L158.87-5.76Q158.77-5.59 158.77-5.52L158.77-5.52Q158.77-5.18 159.14-4.81L159.14-4.81Q159.5-4.47 159.6-4.2ZM154.91-16.06L154.91-16.06 153.69-15.28Q153.33-15.16 152.72-14.58L152.72-14.58 151.69-13.62 150.67-12.7Q150.32-12.06 149.74-11.62L149.74-11.62Q149.15-11.18 148.76-10.64L148.76-10.64Q148.22-9.96 147.71-9.03 147.2-8.11 147.25-7.47L147.25-7.47Q147.13-7.03 146.99-6.65 146.86-6.27 146.71-5.96L146.71-5.96Q146.42-5.35 146.42-4.54L146.42-4.54Q146.42-3.91 146.83-3.88 147.25-3.86 147.44-3.86L147.44-3.86Q148.18-4.35 148.99-5.29 149.81-6.23 150.48-7.23 151.15-8.23 151.4-8.89L151.4-8.89Q151.94-9.81 152.62-10.86 153.3-11.91 154.13-12.74L154.13-12.74 155.4-14.79Q155.45-14.92 155.5-15.03 155.55-15.14 155.6-15.23L155.6-15.23Q155.7-15.41 155.7-15.67L155.7-15.67Q155.7-15.99 155.5-16.26L155.5-16.26Q155.3-16.26 155.16-16.19 155.01-16.11 154.91-16.06Z" fill="#ff9e00" data-fill-palette-color="primary"></path></g></svg></g></svg></g></svg></g></svg></g></svg></g><defs></defs></svg><rect width="395.52" height="131.37055120353224" fill="none" stroke="none" visibility="hidden"></rect></g></svg></g></svg>