<svg xmlns="http://www.w3.org/2000/svg" viewBox="0 0 500 500"><g id="freepik--envelope-1--inject-5"><g id="freepik--message--inject-5"><path d="M457.57,130.63a3.85,3.85,0,0,0-1.73-3L367.35,76.54a3.83,3.83,0,0,0-3.46,0l-1.95,1.13a3.8,3.8,0,0,0-1.73,3v67.83a3.85,3.85,0,0,0,1.73,3l88.49,51.09a3.83,3.83,0,0,0,3.46,0l1.95-1.13a3.83,3.83,0,0,0,1.73-3Z" style="fill:#FF9E00"></path><path d="M457.57,130.63a3.85,3.85,0,0,0-1.73-3L367.35,76.54a3.83,3.83,0,0,0-3.46,0l-1.95,1.13a3.8,3.8,0,0,0-1.73,3v67.83a3.85,3.85,0,0,0,1.73,3l88.49,51.09a3.83,3.83,0,0,0,3.46,0l1.95-1.13a3.83,3.83,0,0,0,1.73-3Z" style="fill:#fff;opacity:0.5"></path><path d="M449.45,133.32l7.61-4.39a3.55,3.55,0,0,1,.51,1.7v67.83a3.83,3.83,0,0,1-1.73,3l-1.95,1.13a3.83,3.83,0,0,1-3.46,0l-1-.56Z" style="fill:#FF9E00"></path><path d="M360.21,80.67V148.5a3.5,3.5,0,0,0,.54,1.75,3.57,3.57,0,0,0,1,1.13l.06,0,.12.07,88.49,51.09h0a1.24,1.24,0,0,0,1.18.14,1.21,1.21,0,0,0,.54-1.14V133.75a1.5,1.5,0,0,0-2-1.53L413,141.07l-4.87,1.15a3.19,3.19,0,0,1-3.11-1.16l-5.65-7.86-38-52.91C360.73,79.4,360.21,79.56,360.21,80.67Z" style="fill:#FF9E00"></path><path d="M360.21,80.67V148.5a3.5,3.5,0,0,0,.54,1.75,3.57,3.57,0,0,0,1,1.13l.06,0,.12.07,88.49,51.09h0a1.24,1.24,0,0,0,1.18.14,1.21,1.21,0,0,0,.54-1.14V133.75a1.5,1.5,0,0,0-2-1.53L413,141.07l-4.87,1.15a3.19,3.19,0,0,1-3.11-1.16l-5.65-7.86-38-52.91C360.73,79.4,360.21,79.56,360.21,80.67Z" style="fill:#fff;opacity:0.2"></path><path d="M361.94,151.49l-.12-.07-.06,0a3.93,3.93,0,0,1-1.55-2.86l39.16-15.32L373.15,158Z" style="fill:#FF9E00"></path><path d="M361.94,151.49l-.12-.07-.06,0a3.93,3.93,0,0,1-1.55-2.86l39.16-15.32L373.15,158Z" style="fill:#FF9E00"></path><path d="M361.94,151.49l-.12-.07-.06,0a3.93,3.93,0,0,1-1.55-2.86l39.16-15.32L373.15,158Z" style="opacity:0.2"></path><path d="M452.16,201.58a1.21,1.21,0,0,1-.54,1.14,1.24,1.24,0,0,1-1.18-.14h0L420,185l-7-43.92,39.16,59.38Z" style="fill:#FF9E00"></path><path d="M452.16,201.58a1.21,1.21,0,0,1-.54,1.14,1.24,1.24,0,0,1-1.18-.14h0L420,185l-7-43.92,39.16,59.38Z" style="fill:#FF9E00"></path><path d="M452.16,201.58a1.21,1.21,0,0,1-.54,1.14,1.24,1.24,0,0,1-1.18-.14h0L420,185l-7-43.92,39.16,59.38Z" style="opacity:0.2"></path><path d="M360.75,150.25a3.57,3.57,0,0,0,1,1.13l.06,0,88.61,51.16h0a1.24,1.24,0,0,0,1.18.14l-42.38-67.65a6.67,6.67,0,0,0-8.33-2.56Z" style="fill:#FF9E00"></path><path d="M360.75,150.25a3.57,3.57,0,0,0,1,1.13l.06,0,88.61,51.16h0a1.24,1.24,0,0,0,1.18.14l-42.38-67.65a6.67,6.67,0,0,0-8.33-2.56Z" style="fill:#fff;opacity:0.2"></path><path d="M451.44,132.13,411.18,149.9a6.58,6.58,0,0,1-8.25-2.53L360.65,79.71Z" style="fill:#FF9E00"></path><path d="M451.44,132.13,411.18,149.9a6.58,6.58,0,0,1-8.25-2.53L360.65,79.71Z" style="opacity:0.2"></path><path d="M451.44,132.13l-40.55,15.15a6.6,6.6,0,0,1-7.82-2.57l-42.42-65Z" style="fill:#FF9E00"></path><path d="M451.44,132.13l-40.55,15.15a6.6,6.6,0,0,1-7.82-2.57l-42.42-65Z" style="fill:#fff;opacity:0.2"></path></g></g><g id="freepik--Key--inject-5"><g id="freepik--key--inject-5"><path d="M108.72,407.65v3.51c0,4.12,2.67,8.26,8.11,11.43,8.2,4.77,20.26,6,30.37,3.59l9.36,5.45,7.22-1.6,4.91,2.86.24,5.94,2.65,1.54,6.65.61,4.78,2.69,0,3.35,6,3.49,15.26.05,5.49-3.13v-3.55L161,419.06a11.21,11.21,0,0,0,3.41-7.66v-3.55c-.72-3.43-3.57-5.21-8.12-7.86-10.85-6.32-28.49-6.38-39.39-.14C112,402.65,109.23,404,108.72,407.65Zm15-4a12.33,12.33,0,0,1,11.16,0c3.07,1.79,3.06,4.67,0,6.44a12.35,12.35,0,0,1-11.17,0C120.59,408.25,120.6,405.36,123.69,403.6Z" style="fill:#FF9E00"></path><path d="M108.72,407.65v3.51c0,4.12,2.67,8.26,8.11,11.43,8.2,4.77,20.26,6,30.37,3.59l9.36,5.45,7.22-1.6,4.91,2.86.24,5.94,2.65,1.54,6.65.61,4.78,2.69,0,3.35,6,3.49,15.26.05,5.49-3.13v-3.55L161,419.06a11.21,11.21,0,0,0,3.41-7.66v-3.55c-.72-3.43-3.57-5.21-8.12-7.86-10.85-6.32-28.49-6.38-39.39-.14C112,402.65,109.23,404,108.72,407.65Zm15-4a12.33,12.33,0,0,1,11.16,0c3.07,1.79,3.06,4.67,0,6.44a12.35,12.35,0,0,1-11.17,0C120.59,408.25,120.6,405.36,123.69,403.6Z" style="opacity:0.2"></path><path d="M116.84,419.05c8.19,4.77,20.25,6,30.36,3.59l9.37,5.45,7.21-1.61,4.91,2.86.25,6,2.64,1.54,6.66.61,5.17,2.91-.41,3.13,6,3.48,15.26.06,5.49-3.14L161,415.51c5.78-6.08,4.23-13.87-4.69-19.07-10.86-6.32-28.5-6.38-39.4-.14S106,412.73,116.84,419.05Zm6.86-19a12.33,12.33,0,0,1,11.16,0c3.08,1.79,3.07,4.68,0,6.44a12.33,12.33,0,0,1-11.16,0C120.6,404.7,120.61,401.82,123.7,400.05Z" style="fill:#FF9E00"></path><path d="M116.84,419.05c8.19,4.77,20.25,6,30.36,3.59l9.37,5.45,7.21-1.61,4.91,2.86.25,6,2.64,1.54,6.66.61,5.17,2.91-.41,3.13,6,3.48,15.26.06,5.49-3.14L161,415.51c5.78-6.08,4.23-13.87-4.69-19.07-10.86-6.32-28.5-6.38-39.4-.14S106,412.73,116.84,419.05Zm6.86-19a12.33,12.33,0,0,1,11.16,0c3.08,1.79,3.07,4.68,0,6.44a12.33,12.33,0,0,1-11.16,0C120.6,404.7,120.61,401.82,123.7,400.05Z" style="fill:#fff;opacity:0.30000000000000004"></path><g style="opacity:0.2"><path d="M164.34,408.88l-27.48-4.34c.74-1.53.08-3.24-2-4.45a12.33,12.33,0,0,0-11.16,0,4.72,4.72,0,0,0-2.06,2.09l-10-1.58a20.08,20.08,0,0,1,5.31-4.26c.32-.18.66-.34,1-.51l45.2,7.13A9.89,9.89,0,0,1,164.34,408.88Z" style="fill:#fff"></path><path d="M110.27,413a9.83,9.83,0,0,1-.08-10.46l11.41,1.8a4.63,4.63,0,0,0,2.08,2.16,12.33,12.33,0,0,0,11.16,0l.15-.09L163.86,411a12.64,12.64,0,0,1-2.85,4.52L173.92,423Z" style="fill:#fff"></path></g><path d="M118.45,416.28c-4.16-2.42-6.54-5.57-6.53-8.62s2.41-6.19,6.59-8.58c4.79-2.74,11.23-4.24,18.11-4.21s13.31,1.56,18.08,4.34c4.16,2.42,6.54,5.57,6.53,8.62s-2.41,6.19-6.59,8.58c-4.79,2.74-11.22,4.24-18.11,4.22S123.22,419.06,118.45,416.28ZM119,400c-3.86,2.21-6.08,5-6.09,7.71s2.19,5.52,6,7.76c4.63,2.69,10.87,4.18,17.58,4.2s13-1.42,17.61-4.08c3.86-2.21,6.08-5,6.09-7.71s-2.19-5.52-6-7.75c-4.62-2.69-10.87-4.19-17.58-4.21S123.65,397.29,119,400Z" style="fill:#FF9E00"></path><path d="M126.5,422.71l0,3.54a47.14,47.14,0,0,0,20.71-.07v-3.54A47.25,47.25,0,0,1,126.5,422.71Z" style="opacity:0.1"></path><polygon points="156.56 428.09 156.55 431.63 163.77 430.03 163.78 426.48 156.56 428.09" style="opacity:0.1"></polygon><polygon points="168.69 429.34 168.68 432.89 168.92 438.83 168.94 435.29 168.69 429.34" style="opacity:0.1"></polygon><polygon points="171.58 436.83 171.57 440.38 178.22 440.98 178.24 437.44 171.58 436.83" style="opacity:0.1"></polygon><rect x="194.84" y="441.13" width="3.55" height="15.27" transform="translate(-252.86 643.76) rotate(-89.79)" style="opacity:0.1"></rect><polygon points="209.74 443.88 209.73 447.43 204.24 450.56 204.25 447.02 206.66 445.64 206.65 447.17 207.98 446.41 207.98 444.87 209.74 443.88" style="opacity:0.15"></polygon><polygon points="207.98 444.87 206.66 445.64 206.65 447.17 207.98 446.41 207.98 444.87" style="fill:#FF9E00"></polygon><polygon points="207.98 444.87 206.66 445.64 206.65 447.17 207.98 446.41 207.98 444.87" style="fill:#fff;opacity:0.30000000000000004"></polygon><polygon points="207.98 444.87 207.98 446.41 158.01 417.32 159.34 416.55 207.98 444.87" style="fill:#FF9E00"></polygon><polygon points="159.34 416.55 159.33 418.09 158.01 417.32 159.34 416.55" style="opacity:0.15"></polygon></g></g><g id="freepik--Screen--inject-5"><g id="freepik--Window--inject-5"><g id="freepik--window--inject-5"><path d="M49.78,408.54a5.16,5.16,0,0,1-2.34.7,5.77,5.77,0,0,1-3.42-.6,6.34,6.34,0,0,1-2.79-5V221.75L46.81,225V406.82c0,1.34.68,2.12,1.65,2.12A2.94,2.94,0,0,0,49.78,408.54Z" style="fill:#e6e6e6"></path><path d="M48.46,408.24c-.86,0-1-1-1-1.42V206L320.41,48.49v200A5.88,5.88,0,0,1,317.8,253L49.43,407.93A2.06,2.06,0,0,1,48.46,408.24Z" style="fill:#fafafa"></path><path d="M319.71,49.7V248.45a5.18,5.18,0,0,1-2.26,3.94L49.08,407.32a1.3,1.3,0,0,1-.62.22c-.25,0-.25-.72-.25-.72V206.45L319.71,49.7m1.4-2.43L46.81,205.64V406.82c0,1.34.67,2.12,1.65,2.12a2.72,2.72,0,0,0,1.32-.4L318.15,253.6a6.55,6.55,0,0,0,3-5.15V47.27Z" style="fill:#ebebeb"></path><path d="M44,214.79a6.38,6.38,0,0,1-2.79-5V186.53a6.58,6.58,0,0,1,3-5.15L312.56,26.45a6.38,6.38,0,0,1,5.77-.11,6.34,6.34,0,0,1,2.78,5V54.6a6.53,6.53,0,0,1-3,5.15L49.78,214.68A6.36,6.36,0,0,1,44,214.79Z" style="fill:#FF9E00"></path><path d="M321.09,30.9c-.21-1.54-1.46-2.1-2.94-1.24L49.78,184.6a6.33,6.33,0,0,0-2.1,2.22l-5.58-3.23a6.21,6.21,0,0,1,2.1-2.21L312.57,26.45a6.34,6.34,0,0,1,5.75-.11A6.36,6.36,0,0,1,321.09,30.9Z" style="fill:#fff;opacity:0.30000000000000004"></path><path d="M47.68,186.82a6,6,0,0,0-.87,2.93V225l-5.59-3.23V186.53c0-.12,0-.23,0-.36a5.48,5.48,0,0,1,.11-.74,6.92,6.92,0,0,1,.75-1.84Z" style="opacity:0.2"></path><path d="M321.11,31.38V47.27L137.19,153.56c-1.64.95-3,.18-3-1.71v-6c0-1.9-1.33-2.67-3-1.72L61,184.6a6.54,6.54,0,0,0-3,5.15v6a6.62,6.62,0,0,1-3,5.16l-8.19,4.72V189.75a6.56,6.56,0,0,1,3-5.15L318.15,29.66C319.78,28.72,321.11,29.49,321.11,31.38Z" style="fill:#FF9E00"></path><path d="M312.59,39.9c1.26-.72,2.28-.13,2.28,1.32a5,5,0,0,1-2.28,4c-1.26.73-2.28.14-2.28-1.31A5.05,5.05,0,0,1,312.59,39.9Z" style="fill:#fff"></path><path d="M304.38,44.64c1.26-.73,2.28-.14,2.28,1.32a5,5,0,0,1-2.28,3.95c-1.26.73-2.28.14-2.28-1.32A5,5,0,0,1,304.38,44.64Z" style="fill:#fff"></path><path d="M296.17,49.38c1.26-.73,2.28-.14,2.28,1.31a5,5,0,0,1-2.28,4c-1.26.73-2.29.14-2.29-1.31A5,5,0,0,1,296.17,49.38Z" style="fill:#fff"></path><path d="M321.11,47.27V66.61L46.81,225V205.64l6.12-3.54c1.63-.95,2.18-2.39,3-5.15l2.08-7.2c.65-2.5,1.33-4.21,3-5.15L130,144.81c1.65-.95,2.93-1.05,4.19,1l2.54,4.62c.94,1.61,1.4,2.56,3,1.61Z" style="fill:#e0e0e0"></path><polygon points="46.81 205.64 46.81 224.98 41.22 221.75 41.22 202.43 46.81 205.64" style="fill:#e0e0e0"></polygon><polygon points="46.81 205.64 46.81 224.98 41.22 221.75 41.22 202.43 46.81 205.64" style="opacity:0.15"></polygon><path d="M60.45,207l-4.67,2.7,1.78-3.42a.85.85,0,0,0,0-.84c-.14-.16-.37-.05-.53.25l-2.53,4.87v0a1.34,1.34,0,0,0-.07.18.14.14,0,0,1,0,.06,1.07,1.07,0,0,0,0,.25.69.69,0,0,0,0,.22l0,0a.26.26,0,0,0,.07.1h0l2.53,1.95a.21.21,0,0,0,.25,0,.77.77,0,0,0,.28-.36c.14-.32.12-.68,0-.79l-1.78-1.37,4.67-2.7a1,1,0,0,0,.38-.79C60.83,207.08,60.66,206.91,60.45,207Z" style="fill:#455a64;opacity:0.5"></path><path d="M64.35,204.78,69,202.09l-1.78-1.37a.76.76,0,0,1,0-.8c.13-.32.37-.48.53-.36l2.53,1.95h0a.44.44,0,0,1,.06.1s0,0,0,0a.46.46,0,0,1,0,.21.73.73,0,0,1,0,.25.14.14,0,0,1,0,.06l-.06.18v0l-2.53,4.87a.74.74,0,0,1-.25.29.2.2,0,0,1-.28,0,.85.85,0,0,1,0-.83L69,203.24l-4.67,2.7c-.2.12-.37,0-.37-.36A1,1,0,0,1,64.35,204.78Z" style="fill:#455a64;opacity:0.5"></path><path d="M79.67,191.34c0-.28-.28-.25-.4.06L78.63,193c-1.09-.12-2.41.95-3.3,2.84-1.16,2.45-1.16,5.34,0,6.45a1.63,1.63,0,0,0,2.09.13,5.72,5.72,0,0,0,2.1-2.55.77.77,0,0,0,0-.81c-.15-.15-.38,0-.53.3-.86,1.83-2.27,2.64-3.13,1.81s-.87-3,0-4.82c.61-1.3,1.5-2.07,2.27-2.12l-.48,1.18c-.13.31,0,.59.18.46l1.9-1.24a.6.6,0,0,0,.22-.52Z" style="fill:#455a64;opacity:0.5"></path><path d="M128,153.64l1.7-3.61a1.06,1.06,0,0,0,0-1.12c-.2-.19-.52,0-.72.42l-1.71,3.61-1.7-1.64c-.2-.19-.52,0-.73.42a1.1,1.1,0,0,0,0,1.12l1.71,1.64-1.71,3.6a1.1,1.1,0,0,0,0,1.12.3.3,0,0,0,.37,0,1,1,0,0,0,.36-.45l1.7-3.6,1.71,1.64a.28.28,0,0,0,.36,0,1,1,0,0,0,.36-.44,1.05,1.05,0,0,0,0-1.12Z" style="fill:#455a64;opacity:0.5"></path><path d="M85.86,195.77v-6a6.58,6.58,0,0,1,3-5.15L301.41,62c1.64-1,3-.18,3,1.72v6a6.57,6.57,0,0,1-3,5.15L88.84,197.48C87.2,198.43,85.86,197.66,85.86,195.77Z" style="fill:#fafafa"></path><path d="M297.36,75.3a.76.76,0,0,1-.27,0,.81.81,0,0,1-.44-.9l.29-2.45-1.15-.82a.79.79,0,0,1-.31-.66,1.35,1.35,0,0,1,.49-1L297.71,68a.28.28,0,0,0,.08-.14l.78-2.56a1.09,1.09,0,0,1,.88-.83.73.73,0,0,1,.69.41l.65,1.39,1.48-.56a.7.7,0,0,1,.79.18,1.06,1.06,0,0,1,0,1.2l-1.26,2.37a.47.47,0,0,0,0,.15l.3,2.14a1.4,1.4,0,0,1-.37,1.08.8.8,0,0,1-.7.26L299.6,73l-1.55,2A.86.86,0,0,1,297.36,75.3Zm-.84-5,1.14.83A.85.85,0,0,1,298,72l-.2,1.62,1-1.31a.83.83,0,0,1,.78-.38l1.43.18a.47.47,0,0,0,.05-.16l-.3-2.15a1.32,1.32,0,0,1,.15-.77L302,66.93l-1.14.44A.69.69,0,0,1,300,67l-.52-1.1-.69,2.28a1.32,1.32,0,0,1-.44.65l-1.74,1.35A.27.27,0,0,0,296.52,70.33Zm4-3.92Z" style="fill:#e0e0e0"></path><g style="opacity:0.5"><path d="M307.89,61.22a1,1,0,0,1-.52-1.93l8.37-4.83a1,1,0,1,1,1,1.79l-8.37,4.83A1.06,1.06,0,0,1,307.89,61.22Z" style="fill:#455a64"></path><path d="M307.89,66.05a1,1,0,0,1-.52-1.92l8.37-4.83a1,1,0,1,1,1,1.78l-8.37,4.83A1,1,0,0,1,307.89,66.05Z" style="fill:#455a64"></path><path d="M307.89,70.88a1,1,0,0,1-.9-.51,1,1,0,0,1,.38-1.41l8.37-4.83a1,1,0,1,1,1,1.78l-8.37,4.84A1,1,0,0,1,307.89,70.88Z" style="fill:#455a64"></path></g></g><polygon points="57.16 230.96 310.77 84.54 310.77 245.9 57.16 392.32 57.16 230.96" style="fill:#FF9E00"></polygon><g id="freepik--Shield--inject-5"><path d="M128.49,273.73a23.14,23.14,0,0,1-1.28-8A39.45,39.45,0,0,1,130,251.62l-5.19-8a34.39,34.39,0,0,1-3.62,2.84v-14c0-5.55-2.1-9.95-5.75-12.06s-7.82-1.75-12.17.76C95.27,225.73,89,237,89,246.75v18h0s0,.06,0,.1a23,23,0,0,1-7.92,3.93l-5.19,14s2.79,3.2,2.79,10.87a38.32,38.32,0,0,1-1.29,9.51,50.45,50.45,0,0,0-2.17,14.24c0,4.43.59,8.74,2.83,12.66,3.52,6.18,11.3,9.76,24.88,9.61,13.58-15.53,21.36-28.09,24.88-38.34a47.08,47.08,0,0,0,2.83-15.92A27.92,27.92,0,0,0,128.49,273.73ZM103,247.54a60.84,60.84,0,0,1-6.6,10.18v-11c0-7.14,4.84-16,10.58-19.28,2-1.13,3.72-1.41,4.83-.77,1.3.76,2.09,2.89,2.09,5.71v17.36A12.78,12.78,0,0,1,103,247.54Z" style="opacity:0.2"></path><g id="freepik--shield--inject-5"><path d="M138.14,251.28c-9.09,8.17-16.94,7.74-21.85,4-4.9,9.45-12.75,18.94-21.84,21.27l-5.19,14S92,293.74,92,301.41a38,38,0,0,1-1.29,9.51,50.87,50.87,0,0,0-2.16,14.24c0,4.43.58,8.74,2.82,12.66a15.69,15.69,0,0,0,5.69,5.7L89.21,339a15.78,15.78,0,0,1-6-5.86c-2.24-3.93-2.82-8.23-2.82-12.67a50.93,50.93,0,0,1,2.16-14.24,37.86,37.86,0,0,0,1.29-9.51c0-7.67-2.78-10.87-2.78-10.87l5.19-14c9.09-2.34,16.94-11.83,21.84-21.28,4.91,3.78,12.76,4.21,21.86-3.95Z" style="fill:#FF9E00"></path><path d="M111,252.17l-2.88-1.66A12.63,12.63,0,0,0,111,252.17Z" style="fill:#fff;opacity:0.8"></path><path d="M130,246.56c-7.48,6.71-14.12,7.61-19,5.61l5.31,3.07c4.91,3.78,12.76,4.21,21.85-4Z" style="fill:#fff;opacity:0.85"></path><path d="M108.1,250.51c-4.9,9.45-12.75,18.94-21.84,21.28l8.19,4.72c9.09-2.33,16.94-11.82,21.84-21.27Z" style="fill:#fff;opacity:0.65"></path><polygon points="86.26 271.79 81.07 285.81 89.26 290.53 94.45 276.51 86.26 271.79" style="fill:#fff;opacity:0.55"></polygon><path d="M91.41,337.82c-2.24-3.92-2.82-8.23-2.82-12.66a50.87,50.87,0,0,1,2.16-14.24A38,38,0,0,0,92,301.41c0-7.67-2.78-10.88-2.78-10.88l-8.19-4.72s2.78,3.2,2.78,10.87a37.86,37.86,0,0,1-1.29,9.51,50.93,50.93,0,0,0-2.16,14.24c0,4.44.58,8.74,2.82,12.67a15.78,15.78,0,0,0,6,5.86l7.89,4.56A15.69,15.69,0,0,1,91.41,337.82Z" style="fill:#fff;opacity:0.4"></path><path d="M116.3,347.43c-13.58.15-21.36-3.43-24.89-9.61-2.24-3.92-2.82-8.23-2.82-12.66a50.5,50.5,0,0,1,2.16-14.24A37.92,37.92,0,0,0,92,301.41c0-7.67-2.78-10.88-2.78-10.88l5.19-14c9.09-2.33,16.94-11.82,21.85-21.27,4.9,3.78,12.75,4.21,21.84-4l5.19,8a39.45,39.45,0,0,0-2.78,14.08,22.93,22.93,0,0,0,1.29,8A27.94,27.94,0,0,1,144,293.16a47,47,0,0,1-2.82,15.93C137.65,319.33,129.87,331.9,116.3,347.43Z" style="fill:#FF9E00"></path><path d="M116.3,347.43c-13.58.15-21.36-3.43-24.89-9.61-2.24-3.92-2.82-8.23-2.82-12.66a50.5,50.5,0,0,1,2.16-14.24A37.92,37.92,0,0,0,92,301.41c0-7.67-2.78-10.88-2.78-10.88l5.19-14c9.09-2.33,16.94-11.82,21.85-21.27,4.9,3.78,12.75,4.21,21.84-4l5.19,8a39.45,39.45,0,0,0-2.78,14.08,22.93,22.93,0,0,0,1.29,8A27.94,27.94,0,0,1,144,293.16a47,47,0,0,1-2.82,15.93C137.65,319.33,129.87,331.9,116.3,347.43Z" style="fill:#fff;opacity:0.75"></path><path d="M114.69,343.9c-10.52-.13-17.32-2.76-20.22-7.83-1.63-2.85-2.36-6.22-2.36-10.91a43.52,43.52,0,0,1,1.74-12.1c.11-.43.22-.86.32-1.28a41.07,41.07,0,0,0,1.4-10.37,24.1,24.1,0,0,0-2.4-11.27l4-10.76c9.73-3.38,16.76-13,20.49-19.29a16.19,16.19,0,0,0,6.35,1.28c4.39,0,8.86-1.64,13.32-4.87l2.09,3.24A43.45,43.45,0,0,0,137,273.4a26.51,26.51,0,0,0,1.49,9.2c.11.31.22.62.34.93a23.62,23.62,0,0,1,1.62,9.63,43.73,43.73,0,0,1-2.63,14.78C134.37,318,126.58,330.12,114.69,343.9Z" style="fill:#FF9E00;opacity:0.75"></path><path d="M114.69,343.9c-10.52-.13-17.32-2.76-20.22-7.83-1.63-2.85-2.36-6.22-2.36-10.91a43.52,43.52,0,0,1,1.74-12.1c.11-.43.22-.86.32-1.28a41.07,41.07,0,0,0,1.4-10.37,24.1,24.1,0,0,0-2.4-11.27l4-10.76c9.73-3.38,16.76-13,20.49-19.29a16.19,16.19,0,0,0,6.35,1.28c4.39,0,8.86-1.64,13.32-4.87l2.09,3.24A43.45,43.45,0,0,0,137,273.4a26.51,26.51,0,0,0,1.49,9.2c.11.31.22.62.34.93a23.62,23.62,0,0,1,1.62,9.63,43.73,43.73,0,0,1-2.63,14.78C134.37,318,126.58,330.12,114.69,343.9Z" style="fill:#fff;opacity:0.4"></path><path d="M114.69,343.9c-10.52-.13-17.32-2.76-20.22-7.83-1.63-2.85-2.36-6.22-2.36-10.91a43.52,43.52,0,0,1,1.74-12.1c.11-.43.22-.86.32-1.28a41.07,41.07,0,0,0,1.4-10.37,24.1,24.1,0,0,0-2.4-11.27l4-10.76c9.73-3.38,16.76-13,20.49-19.29a16.19,16.19,0,0,0,6.35,1.28c4.39,0,8.86-1.64,13.32-4.87l2.09,3.24A43.45,43.45,0,0,0,137,273.4a26.51,26.51,0,0,0,1.49,9.2c.11.31.22.62.34.93a23.62,23.62,0,0,1,1.62,9.63,43.73,43.73,0,0,1-2.63,14.78C134.37,318,126.58,330.12,114.69,343.9Z" style="fill:#FF9E00;opacity:0.15"></path><path d="M96.88,339c3.59,3.16,9.54,4.81,17.81,4.91l-5.28-3A38.42,38.42,0,0,1,96.88,339Z" style="fill:#fff;opacity:0.8"></path><polygon points="136.66 258.15 139.4 259.74 137.31 256.5 136.12 257.32 136.66 258.15" style="fill:#FF9E00;opacity:0.25"></polygon><path d="M135.76,281a26.45,26.45,0,0,1-1.48-9.19,43.23,43.23,0,0,1,2.38-13.67l-.54-.83A21.94,21.94,0,0,1,124,261.37a16.19,16.19,0,0,1-6.35-1.28c-3.73,6.3-10.76,15.91-20.49,19.29l-4,10.76a24.1,24.1,0,0,1,2.4,11.27,41.07,41.07,0,0,1-1.4,10.37c-.1.42-.21.85-.32,1.28a43.52,43.52,0,0,0-1.74,12.1c0,4.69.73,8.06,2.36,10.91a12,12,0,0,0,3.43,3.73c3.51,1.6,8.2,2.44,14,2.51,11.9-13.78,19.69-25.87,23.16-35.95a43.73,43.73,0,0,0,2.63-14.78,23.5,23.5,0,0,0-1.63-9.64Z" style="fill:#FF9E00"></path></g><path d="M128.91,253.68h0V235.75c0-5.56-2.1-9.95-5.76-12.07-3.49-2-7.81-1.74-12.16.77-8,4.62-14.26,15.88-14.26,25.64v18h0a1.81,1.81,0,0,0,1.08,1.5,5.7,5.7,0,0,0,5.18,0,1.81,1.81,0,0,0,1.08-1.5h0v-18c0-7.14,4.85-16,10.59-19.28,2-1.13,3.71-1.41,4.82-.77,1.31.75,2.09,2.89,2.09,5.71v17.93h0a1.84,1.84,0,0,0,1.08,1.48,5.7,5.7,0,0,0,5.18,0,1.84,1.84,0,0,0,1.08-1.48h0Z" style="fill:#455a64"></path><path d="M121.18,315.25l-12.74,7.35,2-23c-1.53-.81-2.5-2.79-2.5-5.64,0-5.07,3.09-11,6.89-13.17s6.9.14,6.9,5.21a17.35,17.35,0,0,1-2.5,8.52Z" style="fill:#FF9E00"></path><path d="M121.18,315.25l-12.74,7.35,2-23c-1.53-.81-2.5-2.79-2.5-5.64,0-5.07,3.09-11,6.89-13.17s6.9.14,6.9,5.21a17.35,17.35,0,0,1-2.5,8.52Z" style="opacity:0.25"></path><polygon points="121.18 315.25 109.64 308.59 108.44 322.6 121.18 315.25" style="opacity:0.15"></polygon><path d="M114.81,280.75c-2.49,1.44-4.66,4.46-5.87,7.8l10.27,5.93h0a17.35,17.35,0,0,0,2.5-8.52C121.71,280.89,118.62,278.56,114.81,280.75Z" style="opacity:0.15"></path></g><path d="M193.52,187.55a.28.28,0,0,1,.33,0,.43.43,0,0,1,.14.36v2.42a1.16,1.16,0,0,1-.14.52.86.86,0,0,1-.33.37l-8.14,4.7a.28.28,0,0,1-.33,0,.41.41,0,0,1-.13-.35v-14.8a1.1,1.1,0,0,1,.13-.51.93.93,0,0,1,.33-.37l8-4.62a.27.27,0,0,1,.33,0,.43.43,0,0,1,.14.36V178a1.16,1.16,0,0,1-.14.52.86.86,0,0,1-.33.37L188.09,182v2.47l4.92-2.84a.27.27,0,0,1,.32,0,.41.41,0,0,1,.14.35v2.43a1.16,1.16,0,0,1-.14.52,1,1,0,0,1-.32.37l-4.92,2.83v2.57Z" style="fill:#fafafa"></path><path d="M204.91,184a1.16,1.16,0,0,1-.14.51.85.85,0,0,1-.32.37l-2.17,1.25a.27.27,0,0,1-.32,0,.4.4,0,0,1-.14-.36V180a2,2,0,0,0-.36-1.38q-.36-.37-1.14.06A2.66,2.66,0,0,0,199.2,180a4.29,4.29,0,0,0-.35,1.78v5.8a1.12,1.12,0,0,1-.14.51.81.81,0,0,1-.33.37l-2.16,1.25a.29.29,0,0,1-.33,0,.43.43,0,0,1-.14-.36V178.64a1.16,1.16,0,0,1,.14-.52.93.93,0,0,1,.33-.37l2.08-1.2a.27.27,0,0,1,.32,0,.42.42,0,0,1,.14.35v.53c.09-.2.21-.43.34-.68a5.57,5.57,0,0,1,.5-.73,6.48,6.48,0,0,1,.68-.72,5.75,5.75,0,0,1,.9-.64,4.18,4.18,0,0,1,1.51-.57,1.67,1.67,0,0,1,1.18.27,2.3,2.3,0,0,1,.76,1.19,6.87,6.87,0,0,1,.28,2.18Z" style="fill:#fafafa"></path><path d="M210.85,176.56a1.13,1.13,0,0,0,.17.72c.12.12.31.11.57,0l1.37-.8a.28.28,0,0,1,.33,0,.42.42,0,0,1,.14.35v2.32a1.12,1.12,0,0,1-.14.51.81.81,0,0,1-.33.37l-1.63.94a3.54,3.54,0,0,1-1.47.54,1.6,1.6,0,0,1-1.12-.24,2,2,0,0,1-.72-1,5.06,5.06,0,0,1-.26-1.74v-3.85l-1.27.73a.29.29,0,0,1-.33,0A.43.43,0,0,1,206,175v-2.31a1.14,1.14,0,0,1,.13-.52.93.93,0,0,1,.33-.37l1.27-.73v-3.73a1.16,1.16,0,0,1,.14-.52.92.92,0,0,1,.32-.37l2.17-1.25a.27.27,0,0,1,.32,0,.37.37,0,0,1,.14.35v3.73l1.94-1.12a.28.28,0,0,1,.33,0,.42.42,0,0,1,.14.35v2.32a1.12,1.12,0,0,1-.14.51.81.81,0,0,1-.33.37l-1.94,1.12Z" style="fill:#fafafa"></path><path d="M217.57,172.69a1.72,1.72,0,0,0,.14.78.71.71,0,0,0,.37.34.85.85,0,0,0,.5,0,2.08,2.08,0,0,0,.53-.23,3.56,3.56,0,0,0,.82-.61,3.36,3.36,0,0,0,.51-.68,3.13,3.13,0,0,1,.27-.42,1.27,1.27,0,0,1,.29-.23l2.24-1.29c.25-.14.37,0,.37.29a3.47,3.47,0,0,1-.25,1,9.19,9.19,0,0,1-.8,1.61,11.45,11.45,0,0,1-1.4,1.83,8.45,8.45,0,0,1-2,1.61,4.9,4.9,0,0,1-2,.72,2,2,0,0,1-1.46-.38,2.82,2.82,0,0,1-.89-1.43,8.29,8.29,0,0,1-.3-2.41,11.75,11.75,0,0,1,.3-2.64,10.84,10.84,0,0,1,.89-2.47,10.12,10.12,0,0,1,1.46-2.14,8.08,8.08,0,0,1,2-1.62,4.08,4.08,0,0,1,2.14-.67,2.17,2.17,0,0,1,1.45.62,3.33,3.33,0,0,1,.8,1.54,8,8,0,0,1,.25,2.07v.64a1,1,0,0,1-.14.51.85.85,0,0,1-.32.37Zm1.54-5.29a2.78,2.78,0,0,0-1.1,1.2,4.44,4.44,0,0,0-.44,1.54l3.09-1.78a1.57,1.57,0,0,0-.45-1C220,167.1,219.6,167.12,219.11,167.4Z" style="fill:#fafafa"></path><path d="M231.55,157.35a.28.28,0,0,1,.33,0,.42.42,0,0,1,.13.35V160a1.1,1.1,0,0,1-.13.51.87.87,0,0,1-.33.37l-1.56.91a3.19,3.19,0,0,0-1.58,3v5.63a1.09,1.09,0,0,1-.14.51.81.81,0,0,1-.33.37l-2.16,1.25a.27.27,0,0,1-.33,0,.43.43,0,0,1-.13-.36V161.57a1.07,1.07,0,0,1,.13-.51.81.81,0,0,1,.33-.37l2-1.15a.27.27,0,0,1,.33,0,.43.43,0,0,1,.14.36v.52a7.81,7.81,0,0,1,.95-1.37,5.07,5.07,0,0,1,1.33-1.09Z" style="fill:#fafafa"></path><path d="M236.31,156.46a11.41,11.41,0,0,1,.42-2.66,11.21,11.21,0,0,1,1.05-2.57,11.41,11.41,0,0,1,1.65-2.28,9.34,9.34,0,0,1,2.24-1.79,5.28,5.28,0,0,1,2.23-.79,2.58,2.58,0,0,1,1.66.37,2.76,2.76,0,0,1,1,1.36,6.64,6.64,0,0,1,.43,2.17c0,.65,0,1.33,0,2s0,1.39,0,2a11.69,11.69,0,0,1-3.13,7.53,9.56,9.56,0,0,1-2.23,1.77,5.52,5.52,0,0,1-2.24.81,2.48,2.48,0,0,1-1.65-.37,2.82,2.82,0,0,1-1.05-1.38,6.34,6.34,0,0,1-.42-2.17c0-.61,0-1.28,0-2S236.28,157.13,236.31,156.46Zm7.54-.39c0-.28,0-.59,0-.94s0-.68,0-1,0-.68,0-1,0-.61,0-.87a4,4,0,0,0-.18-.95,1.33,1.33,0,0,0-.41-.59.93.93,0,0,0-.67-.18,2,2,0,0,0-.92.33,3.57,3.57,0,0,0-.93.74,4.31,4.31,0,0,0-.66.94,4.64,4.64,0,0,0-.41,1.07,5.71,5.71,0,0,0-.18,1.16c0,.27,0,.58-.05.91s0,.67,0,1,0,.7,0,1,0,.63.05.89a2.13,2.13,0,0,0,.59,1.56c.35.3.88.25,1.59-.16a3.91,3.91,0,0,0,1.58-1.67A6.16,6.16,0,0,0,243.85,156.07Z" style="fill:#fafafa"></path><path d="M257.66,138.16a.29.29,0,0,1,.33,0,.43.43,0,0,1,.13.36v2.43a1.1,1.1,0,0,1-.13.51.94.94,0,0,1-.33.37l-3,1.75v11.75a1.1,1.1,0,0,1-.13.51.81.81,0,0,1-.33.37l-2.25,1.3a.27.27,0,0,1-.32,0,.4.4,0,0,1-.14-.36V145.4l-3,1.75a.28.28,0,0,1-.33,0,.41.41,0,0,1-.14-.35v-2.43a1.16,1.16,0,0,1,.14-.52.93.93,0,0,1,.33-.37Z" style="fill:#fafafa"></path><path d="M265,133.89a6.67,6.67,0,0,1,2-.8,2.22,2.22,0,0,1,1.49.14,2.1,2.1,0,0,1,1,1.13,5.85,5.85,0,0,1,.33,2.15,9.58,9.58,0,0,1-.33,2.55,8.82,8.82,0,0,1-1,2.22,9.52,9.52,0,0,1-3.47,3.35l-2.19,1.27v4.68a1.12,1.12,0,0,1-.14.51.81.81,0,0,1-.33.37l-2.25,1.3a.29.29,0,0,1-.33,0,.43.43,0,0,1-.13-.36V137.62a1.14,1.14,0,0,1,.13-.52,1,1,0,0,1,.33-.37Zm-2.19,8.44,2.11-1.22a3.61,3.61,0,0,0,1.19-1.11,2.86,2.86,0,0,0,.47-1.66c0-.64-.15-1-.47-1.11a1.55,1.55,0,0,0-1.19.26l-2.11,1.22Z" style="fill:#fafafa"></path><path d="M168.29,217.32l-.49,2.57a1.25,1.25,0,0,1-.07.23.29.29,0,0,1-.13.14l-.46.27c-.06,0-.11,0-.14,0a.35.35,0,0,1-.07-.15l-.73-4.4v-.06a.38.38,0,0,1,0-.17.26.26,0,0,1,.11-.12l.43-.25a.12.12,0,0,1,.1,0s.06.06.07.13l.48,3,.43-2.29a1.28,1.28,0,0,1,0-.17.29.29,0,0,1,.15-.16l.47-.28c.07,0,.12,0,.14,0a.41.41,0,0,1,.06.11l.42,1.79.48-3.51a.66.66,0,0,1,.07-.2.38.38,0,0,1,.11-.11l.43-.25a.11.11,0,0,1,.11,0,.15.15,0,0,1,0,.12v.06l-.74,5.25a.86.86,0,0,1-.06.23.5.5,0,0,1-.14.15l-.46.26c-.06,0-.1,0-.13,0a.52.52,0,0,1-.07-.15Z" style="fill:#fafafa"></path><path d="M170.7,216.49a4.26,4.26,0,0,1,.09-.86,4.4,4.4,0,0,1,.28-.82,3.35,3.35,0,0,1,.45-.7,2.23,2.23,0,0,1,.58-.49,1,1,0,0,1,.58-.18.73.73,0,0,1,.45.16,1.09,1.09,0,0,1,.28.46,2,2,0,0,1,.1.68v.35a.41.41,0,0,1,0,.17.22.22,0,0,1-.11.12l-1.91,1.11a.7.7,0,0,0,.05.28.33.33,0,0,0,.15.14.37.37,0,0,0,.21,0,.84.84,0,0,0,.25-.09,1.48,1.48,0,0,0,.3-.23,1.37,1.37,0,0,0,.19-.23.64.64,0,0,1,.1-.14.33.33,0,0,1,.11-.09l.46-.26a.09.09,0,0,1,.11,0,.11.11,0,0,1,0,.12.91.91,0,0,1-.09.33,2.42,2.42,0,0,1-.25.47,3.06,3.06,0,0,1-.41.51,2.42,2.42,0,0,1-.56.44,1.13,1.13,0,0,1-.58.19.62.62,0,0,1-.45-.17,1.09,1.09,0,0,1-.28-.49A2.88,2.88,0,0,1,170.7,216.49Zm1.4-2a1.08,1.08,0,0,0-.28.23,1.59,1.59,0,0,0-.33.58c0,.11,0,.2-.05.28l1.3-.75a2.25,2.25,0,0,0-.05-.22.32.32,0,0,0-.1-.17.24.24,0,0,0-.19,0A.62.62,0,0,0,172.1,214.53Z" style="fill:#fafafa"></path><path d="M177.06,213.66a.12.12,0,0,0,0-.11.18.18,0,0,0-.14,0l-.26.06-.43.12a1,1,0,0,1-.42,0,.42.42,0,0,1-.26-.11.44.44,0,0,1-.14-.27,1.54,1.54,0,0,1,0-.4,1.52,1.52,0,0,1,.08-.49,2.24,2.24,0,0,1,.23-.53,2.43,2.43,0,0,1,.37-.49,2,2,0,0,1,.5-.4,1.53,1.53,0,0,1,.5-.2.76.76,0,0,1,.37,0,.37.37,0,0,1,.24.18.63.63,0,0,1,.1.31.28.28,0,0,1,0,.17.26.26,0,0,1-.11.12l-.44.26a.18.18,0,0,1-.13,0l-.1,0a.28.28,0,0,0-.14,0,.78.78,0,0,0-.25.11,1.5,1.5,0,0,0-.31.24.47.47,0,0,0-.13.32.23.23,0,0,0,0,.13.17.17,0,0,0,.12,0,1.08,1.08,0,0,0,.25-.05l.41-.11c.34-.1.58-.09.72,0a.82.82,0,0,1,.21.64,1.56,1.56,0,0,1-.09.5,2.32,2.32,0,0,1-.25.53,2.72,2.72,0,0,1-.4.51,2.41,2.41,0,0,1-.54.41,1.71,1.71,0,0,1-.53.22.69.69,0,0,1-.39,0,.45.45,0,0,1-.25-.2.57.57,0,0,1-.09-.32.38.38,0,0,1,0-.17.26.26,0,0,1,.11-.12l.44-.26c.06,0,.11,0,.13,0l.1.06a.24.24,0,0,0,.15,0,.59.59,0,0,0,.29-.12l.18-.11.17-.15a.7.7,0,0,0,.13-.17A.26.26,0,0,0,177.06,213.66Z" style="fill:#fafafa"></path><path d="M178.27,212.12a3.69,3.69,0,0,1,.1-.87,3.78,3.78,0,0,1,.28-.82,3.52,3.52,0,0,1,.44-.69,2.13,2.13,0,0,1,.59-.5,1.18,1.18,0,0,1,.58-.18.69.69,0,0,1,.44.17,1,1,0,0,1,.29.45,2.39,2.39,0,0,1,.1.69v.34a.34.34,0,0,1-.05.17.36.36,0,0,1-.11.13l-1.91,1.1a.56.56,0,0,0,0,.28.29.29,0,0,0,.15.14.36.36,0,0,0,.21,0,1,1,0,0,0,.25-.1,1.16,1.16,0,0,0,.29-.22,1.33,1.33,0,0,0,.19-.24l.11-.14a.35.35,0,0,1,.11-.09l.45-.26a.13.13,0,0,1,.12,0s0,.06,0,.12a1.23,1.23,0,0,1-.09.32,2.78,2.78,0,0,1-.25.48,3.67,3.67,0,0,1-.41.51,2.42,2.42,0,0,1-.56.44,1.39,1.39,0,0,1-.59.19.64.64,0,0,1-.44-.17,1.06,1.06,0,0,1-.28-.49A2.59,2.59,0,0,1,178.27,212.12Zm1.41-2a1.09,1.09,0,0,0-.29.23,1.26,1.26,0,0,0-.19.28,1.3,1.3,0,0,0-.13.3,1,1,0,0,0,0,.27l1.29-.75a1.55,1.55,0,0,0,0-.21.4.4,0,0,0-.1-.17.29.29,0,0,0-.19-.06A.65.65,0,0,0,179.68,210.16Z" style="fill:#fafafa"></path><path d="M184.51,210.3a.41.41,0,0,1,0,.17.22.22,0,0,1-.11.12l-.43.25a.08.08,0,0,1-.11,0,.13.13,0,0,1-.05-.11v-1.94a1,1,0,0,0-.16-.65c-.1-.12-.27-.11-.49,0a1.22,1.22,0,0,0-.48.56,1.87,1.87,0,0,0-.17.83v1.94a.37.37,0,0,1-.05.17.36.36,0,0,1-.11.13l-.43.25a.11.11,0,0,1-.11,0,.14.14,0,0,1,0-.12v-3.56a.37.37,0,0,1,0-.17.28.28,0,0,1,.11-.13l.43-.25a.11.11,0,0,1,.11,0,.14.14,0,0,1,.05.12v.17a3.46,3.46,0,0,1,.35-.53,1.81,1.81,0,0,1,.47-.4,1.15,1.15,0,0,1,.59-.19.47.47,0,0,1,.37.17.94.94,0,0,1,.21.45,3.2,3.2,0,0,1,.06.65Z" style="fill:#fafafa"></path><path d="M186.24,208.06a.46.46,0,0,0,.1.33c.06.05.18,0,.35-.06l.35-.21a.11.11,0,0,1,.11,0,.14.14,0,0,1,0,.12v.5a.41.41,0,0,1,0,.18.32.32,0,0,1-.11.12l-.42.24c-.36.21-.64.26-.83.14s-.29-.42-.29-.9v-1.65l-.38.22a.08.08,0,0,1-.11,0s0-.06,0-.12v-.5a.38.38,0,0,1,0-.17.26.26,0,0,1,.11-.12l.38-.22v-1.25a.37.37,0,0,1,.05-.17.22.22,0,0,1,.11-.12l.43-.26a.11.11,0,0,1,.11,0s0,.06,0,.12v1.25l.74-.43a.11.11,0,0,1,.11,0,.14.14,0,0,1,0,.12v.5a.37.37,0,0,1,0,.17.28.28,0,0,1-.11.13l-.74.42Z" style="fill:#fafafa"></path><path d="M189.07,204.88a1.51,1.51,0,0,1,.1-.41,2.68,2.68,0,0,1,.24-.48,3.09,3.09,0,0,1,.37-.48,2.58,2.58,0,0,1,.51-.4,1.53,1.53,0,0,1,.53-.2.58.58,0,0,1,.4.07.69.69,0,0,1,.26.35,1.93,1.93,0,0,1,.09.64v2.25a.38.38,0,0,1,0,.17.26.26,0,0,1-.11.12l-.44.25s-.07,0-.1,0a.13.13,0,0,1,0-.11v-.26a2.36,2.36,0,0,1-.35.58,1.81,1.81,0,0,1-.57.49,1.23,1.23,0,0,1-.44.17.51.51,0,0,1-.33-.06.48.48,0,0,1-.2-.26,1.12,1.12,0,0,1-.08-.44,1.87,1.87,0,0,1,.29-1,3.06,3.06,0,0,1,.75-.83l.93-.76c0-.21-.05-.32-.16-.35a.49.49,0,0,0-.38.09,1.06,1.06,0,0,0-.22.18,1.43,1.43,0,0,0-.16.24.85.85,0,0,1-.09.14l-.1.07-.53.31s-.07,0-.1,0S189.06,204.93,189.07,204.88Zm1,1.6a1.91,1.91,0,0,0,.35-.27,1.4,1.4,0,0,0,.25-.35,1.89,1.89,0,0,0,.16-.36,1.47,1.47,0,0,0,.05-.34v-.08l-.78.63a1.57,1.57,0,0,0-.34.36.58.58,0,0,0-.1.33c0,.11,0,.17.12.17A.64.64,0,0,0,190,206.48Z" style="fill:#fafafa"></path><path d="M193.5,203.5a2.66,2.66,0,0,1,.12-.82c.08-.25.17-.49.26-.74l1.09-2.68.06-.13a.34.34,0,0,1,.12-.12l.52-.3s.08,0,.11,0,0,.06,0,.12a.13.13,0,0,1,0,.06.08.08,0,0,1,0,.05l-.71,1.77a1.82,1.82,0,0,1,.62-.21.78.78,0,0,1,.49.1.85.85,0,0,1,.32.41,2,2,0,0,1,.11.69,2.92,2.92,0,0,1-.12.83,3,3,0,0,1-.32.78,3.26,3.26,0,0,1-.49.68,3,3,0,0,1-.63.5,1.64,1.64,0,0,1-.63.22.72.72,0,0,1-.49-.1.75.75,0,0,1-.32-.41A1.79,1.79,0,0,1,193.5,203.5Zm2.34-1.35a.65.65,0,0,0-.2-.54c-.14-.09-.33-.07-.58.07a1.52,1.52,0,0,0-.58.6,1.67,1.67,0,0,0-.2.77.65.65,0,0,0,.2.54c.14.1.33.09.58-.06a1.46,1.46,0,0,0,.58-.6A1.74,1.74,0,0,0,195.84,202.15Z" style="fill:#fafafa"></path><path d="M199.65,197.71a1.08,1.08,0,0,1,.32-.14l.25,0a.48.48,0,0,1,.18.05.36.36,0,0,1,.12.08V196a.38.38,0,0,1,0-.17.26.26,0,0,1,.11-.12l.44-.26a.11.11,0,0,1,.11,0s0,.06,0,.12v5a.39.39,0,0,1,0,.18.32.32,0,0,1-.11.12l-.44.25s-.08,0-.11,0,0-.06,0-.12v-.17l-.12.22a3,3,0,0,1-.18.25l-.25.26a2.62,2.62,0,0,1-.32.23.93.93,0,0,1-.52.15.63.63,0,0,1-.39-.17,1,1,0,0,1-.26-.43,2.21,2.21,0,0,1-.11-.61v-.54a3.92,3.92,0,0,1,.11-.73,3.51,3.51,0,0,1,.26-.73,3.6,3.6,0,0,1,.39-.62A2,2,0,0,1,199.65,197.71Zm-.53,2.16a2.94,2.94,0,0,0,0,.42c0,.32.1.52.23.59a.46.46,0,0,0,.47-.06,1.33,1.33,0,0,0,.48-.49,1.92,1.92,0,0,0,.22-.77c0-.08,0-.18,0-.29s0-.22,0-.29a.64.64,0,0,0-.22-.5.48.48,0,0,0-.48.05,1.39,1.39,0,0,0-.47.49A1.86,1.86,0,0,0,199.12,199.87Z" style="fill:#fafafa"></path><path d="M202.67,194.59a.11.11,0,0,1,.11,0,.14.14,0,0,1,.05.12v.59a.34.34,0,0,1-.05.17.29.29,0,0,1-.11.13l-.49.28a.08.08,0,0,1-.11,0,.13.13,0,0,1,0-.11v-.6a.37.37,0,0,1,0-.17.36.36,0,0,1,.11-.13Zm.13,5.15a.41.41,0,0,1-.05.17.26.26,0,0,1-.11.12l-.43.25c-.05,0-.08,0-.11,0a.17.17,0,0,1,0-.12v-3.56a.41.41,0,0,1,0-.18.32.32,0,0,1,.11-.12l.43-.25a.08.08,0,0,1,.11,0,.14.14,0,0,1,.05.12Z" style="fill:#fafafa"></path><path d="M204.89,199.5a1.84,1.84,0,0,0,.25-.19,1.3,1.3,0,0,0,.22-.29,1.4,1.4,0,0,0,.17-.37,1.23,1.23,0,0,0,.07-.42v-.29a1.64,1.64,0,0,1-.12.22,3.1,3.1,0,0,1-.18.26,2,2,0,0,1-.25.25,1.54,1.54,0,0,1-.32.23.92.92,0,0,1-.51.15.59.59,0,0,1-.4-.17,1.08,1.08,0,0,1-.26-.42,2,2,0,0,1-.1-.62,2,2,0,0,1,0-.26,2.26,2.26,0,0,1,0-.27,3.21,3.21,0,0,1,.1-.74,4.41,4.41,0,0,1,.26-.72,2.93,2.93,0,0,1,.4-.63,1.8,1.8,0,0,1,.51-.45,1.53,1.53,0,0,1,.32-.13.59.59,0,0,1,.25,0,.48.48,0,0,1,.18,0l.12.08v-.17a.26.26,0,0,1,.05-.17.34.34,0,0,1,.1-.13l.44-.25a.11.11,0,0,1,.11,0s0,.06,0,.12v3.58a3.23,3.23,0,0,1-.38,1.62,2.94,2.94,0,0,1-1.07,1.09,1.76,1.76,0,0,1-.54.21.9.9,0,0,1-.44,0,.63.63,0,0,1-.29-.22.74.74,0,0,1-.12-.38.3.3,0,0,1,.05-.17.22.22,0,0,1,.11-.12l.39-.23a.12.12,0,0,1,.13,0l.1.08a.3.3,0,0,0,.21.1A.76.76,0,0,0,204.89,199.5Zm-.69-2.57a3.08,3.08,0,0,0,0,.43c0,.32.1.51.23.58a.48.48,0,0,0,.48-.06,1.31,1.31,0,0,0,.47-.49,1.73,1.73,0,0,0,.22-.76,2.63,2.63,0,0,0,0-.3,2.18,2.18,0,0,0,0-.28.59.59,0,0,0-.22-.5.43.43,0,0,0-.47,0,1.29,1.29,0,0,0-.48.5A1.81,1.81,0,0,0,204.2,196.93Z" style="fill:#fafafa"></path><path d="M207.76,191.66a.08.08,0,0,1,.1,0,.17.17,0,0,1,0,.12v.6a.41.41,0,0,1,0,.17.25.25,0,0,1-.1.12l-.5.29a.11.11,0,0,1-.11,0s0-.06,0-.12v-.59a.39.39,0,0,1,0-.18.32.32,0,0,1,.11-.12Zm.12,5.14a.26.26,0,0,1,0,.17.34.34,0,0,1-.1.13l-.44.25a.11.11,0,0,1-.11,0s0-.06,0-.12v-3.56a.35.35,0,0,1,0-.17.26.26,0,0,1,.11-.12l.44-.26a.09.09,0,0,1,.1,0s0,.06,0,.12Z" style="fill:#fafafa"></path><path d="M209.68,194.54a.45.45,0,0,0,.09.32c.06.06.18,0,.35-.06l.35-.21a.11.11,0,0,1,.11,0,.17.17,0,0,1,0,.12v.51a.41.41,0,0,1,0,.17.26.26,0,0,1-.11.12l-.42.25c-.36.21-.64.25-.83.13s-.29-.42-.29-.9v-1.64l-.38.21a.09.09,0,0,1-.11,0,.16.16,0,0,1,0-.12v-.51a.38.38,0,0,1,0-.17.26.26,0,0,1,.11-.12l.38-.22v-1.25a.41.41,0,0,1,0-.17.25.25,0,0,1,.1-.12l.44-.25a.09.09,0,0,1,.11,0,.17.17,0,0,1,.05.12V192l.73-.43a.11.11,0,0,1,.11,0,.14.14,0,0,1,0,.12v.5a.34.34,0,0,1,0,.17.28.28,0,0,1-.11.13l-.73.43Z" style="fill:#fafafa"></path><path d="M212.41,191a4.43,4.43,0,0,1,.12-.88,4.24,4.24,0,0,1,.31-.84,3.67,3.67,0,0,1,.52-.74,3,3,0,0,1,.73-.58,1.7,1.7,0,0,1,.73-.26.7.7,0,0,1,.52.14,1,1,0,0,1,.31.48,2.22,2.22,0,0,1,.13.73c0,.1,0,.2,0,.32v.73c0,.11,0,.22,0,.32a4.43,4.43,0,0,1-.12.88,4.27,4.27,0,0,1-.32.84,3.31,3.31,0,0,1-.52.74,3,3,0,0,1-.73.58,1.7,1.7,0,0,1-.73.26.74.74,0,0,1-.52-.14,1.05,1.05,0,0,1-.31-.48,2.59,2.59,0,0,1-.12-.73c0-.1,0-.2,0-.32v-.73C212.4,191.25,212.4,191.14,212.41,191Zm2.59-1.46a.83.83,0,0,0-.26-.7c-.16-.11-.38-.08-.65.07a1.72,1.72,0,0,0-.64.67,2.4,2.4,0,0,0-.27,1c0,.2,0,.42,0,.65s0,.45,0,.64a.87.87,0,0,0,.27.7.6.6,0,0,0,.64-.08,1.68,1.68,0,0,0,.65-.67,2.15,2.15,0,0,0,.26-1c0-.2,0-.42,0-.65S215,189.77,215,189.58Z" style="fill:#fafafa"></path><path d="M219.13,185.17a.08.08,0,0,1,.11,0,.12.12,0,0,1,0,.11v.55a.38.38,0,0,1,0,.17.33.33,0,0,1-.11.12l-1,.6v4.19a.38.38,0,0,1,0,.17.26.26,0,0,1-.11.12l-.46.27a.11.11,0,0,1-.11,0,.14.14,0,0,1-.05-.12v-4.19l-1,.6s-.08,0-.11,0a.14.14,0,0,1-.05-.12v-.54a.37.37,0,0,1,.05-.17.36.36,0,0,1,.11-.13Z" style="fill:#fafafa"></path><path d="M221.54,183.77c.47-.27.83-.33,1.08-.19s.39.5.39,1.06a2.89,2.89,0,0,1-.39,1.5,2.78,2.78,0,0,1-1.08,1.07l-.91.53v1.7a.34.34,0,0,1,0,.17.36.36,0,0,1-.11.13L220,190a.11.11,0,0,1-.11,0,.15.15,0,0,1-.05-.12V185a.41.41,0,0,1,.05-.17.26.26,0,0,1,.11-.12Zm-.91,3,.89-.51a1.69,1.69,0,0,0,.52-.47,1.23,1.23,0,0,0,.19-.71c0-.29-.06-.45-.19-.49a.78.78,0,0,0-.52.14l-.89.51Z" style="fill:#fafafa"></path><path d="M225.66,185.31a.42.42,0,0,0,.09.32c.06.06.18,0,.35-.06l.35-.2a.08.08,0,0,1,.11,0,.14.14,0,0,1,.05.12v.5a.37.37,0,0,1-.05.17.36.36,0,0,1-.11.13l-.42.24c-.36.21-.64.25-.83.13s-.29-.42-.29-.9v-1.64l-.38.22a.11.11,0,0,1-.11,0s0-.06,0-.12v-.5a.39.39,0,0,1,0-.18.43.43,0,0,1,.11-.12l.38-.22V182a.41.41,0,0,1,.05-.18.32.32,0,0,1,.11-.12l.43-.25a.11.11,0,0,1,.11,0,.14.14,0,0,1,0,.12v1.24l.73-.42c.05,0,.08,0,.11,0a.17.17,0,0,1,.05.12V183a.41.41,0,0,1-.05.17.22.22,0,0,1-.11.12l-.73.43Z" style="fill:#fafafa"></path><path d="M228.48,181.06a1.5,1.5,0,0,1,.57-.2.71.71,0,0,1,.44.11.77.77,0,0,1,.3.36,1.66,1.66,0,0,1,.13.59v.77a3.73,3.73,0,0,1-.13.73,3.36,3.36,0,0,1-.3.7,3,3,0,0,1-.44.61,2.26,2.26,0,0,1-.57.46,1.35,1.35,0,0,1-.57.2.7.7,0,0,1-.44-.1.83.83,0,0,1-.3-.36,1.91,1.91,0,0,1-.13-.58,1.16,1.16,0,0,0,0-.17v-.42a1.36,1.36,0,0,0,0-.18,3.29,3.29,0,0,1,.13-.74,3.08,3.08,0,0,1,.3-.7,3,3,0,0,1,.44-.62A2.8,2.8,0,0,1,228.48,181.06Zm.69,1.32a.89.89,0,0,0-.08-.34.35.35,0,0,0-.16-.16.41.41,0,0,0-.22,0,1.46,1.46,0,0,0-.23.1l-.23.17a1.36,1.36,0,0,0-.22.25,1.53,1.53,0,0,0-.16.34,1.91,1.91,0,0,0-.08.44.81.81,0,0,0,0,.16v.39a.53.53,0,0,0,0,.14,1,1,0,0,0,.08.35.29.29,0,0,0,.16.15.33.33,0,0,0,.22,0,1.58,1.58,0,0,0,.23-.11.91.91,0,0,0,.23-.17,1.28,1.28,0,0,0,.22-.24,1.61,1.61,0,0,0,.16-.35,1.82,1.82,0,0,0,.08-.44.66.66,0,0,0,0-.15v-.39A.66.66,0,0,0,229.17,182.38Z" style="fill:#fafafa"></path><path d="M232.64,182.5l-1.13-2.85a.07.07,0,0,1,0-.05.41.41,0,0,1,.05-.17.22.22,0,0,1,.11-.12l.43-.25a.11.11,0,0,1,.12,0,.27.27,0,0,1,.07.08l.76,1.93.76-2.8a.47.47,0,0,1,.07-.17A.3.3,0,0,1,234,178l.43-.25a.11.11,0,0,1,.11,0s0,.06,0,.12v.06L233,183.8a.71.71,0,0,1-.07.16.38.38,0,0,1-.12.13l-.43.25a.11.11,0,0,1-.11,0,.14.14,0,0,1,0-.12.07.07,0,0,1,0-.05Z" style="fill:#fafafa"></path><path d="M236.3,176.55a1.35,1.35,0,0,1,.57-.2.71.71,0,0,1,.44.11.91.91,0,0,1,.3.36,1.6,1.6,0,0,1,.13.58v.77a3.83,3.83,0,0,1-.13.74,4.34,4.34,0,0,1-.3.7,3.26,3.26,0,0,1-.44.61,2.5,2.5,0,0,1-.57.46,1.35,1.35,0,0,1-.57.2.72.72,0,0,1-.74-.46,2,2,0,0,1-.13-.59s0-.09,0-.16v-.43c0-.07,0-.13,0-.18a2.74,2.74,0,0,1,.13-.73,3.15,3.15,0,0,1,.3-.71,3,3,0,0,1,.44-.61A2.5,2.5,0,0,1,236.3,176.55Zm.69,1.32a1,1,0,0,0-.08-.35.35.35,0,0,0-.17-.15.3.3,0,0,0-.21,0,.89.89,0,0,0-.23.1,1.18,1.18,0,0,0-.24.17,1.84,1.84,0,0,0-.21.25,1.53,1.53,0,0,0-.16.34,1.5,1.5,0,0,0-.08.44.76.76,0,0,0,0,.16,1.21,1.21,0,0,0,0,.19,1.34,1.34,0,0,0,0,.2.53.53,0,0,0,0,.14.71.71,0,0,0,.08.34.31.31,0,0,0,.16.16.38.38,0,0,0,.21,0,.82.82,0,0,0,.24-.1,1.24,1.24,0,0,0,.23-.17,1,1,0,0,0,.21-.25,1.54,1.54,0,0,0,.17-.34,1.91,1.91,0,0,0,.08-.44.66.66,0,0,0,0-.15V178A.66.66,0,0,0,237,177.87Z" style="fill:#fafafa"></path><path d="M238.37,175.64a.35.35,0,0,1,0-.17.36.36,0,0,1,.11-.13l.44-.25a.11.11,0,0,1,.11,0s0,.06,0,.12v1.94a1.07,1.07,0,0,0,.15.65q.15.19.48,0a1.17,1.17,0,0,0,.46-.54,2,2,0,0,0,.16-.83v-1.94a.34.34,0,0,1,0-.17.28.28,0,0,1,.11-.13l.43-.25a.11.11,0,0,1,.11,0,.14.14,0,0,1,.05.12v3.56a.37.37,0,0,1-.05.17.36.36,0,0,1-.11.13l-.43.25a.11.11,0,0,1-.11,0,.15.15,0,0,1,0-.12v-.18a3.67,3.67,0,0,1-.33.51,1.39,1.39,0,0,1-.46.41,1.08,1.08,0,0,1-.58.19.49.49,0,0,1-.37-.18,1,1,0,0,1-.2-.46,4.19,4.19,0,0,1,0-.65Z" style="fill:#fafafa"></path><path d="M243.29,173.51a1.24,1.24,0,0,0-.5.49,1.61,1.61,0,0,0-.15.75v2a.35.35,0,0,1,0,.17.36.36,0,0,1-.11.13l-.44.25a.11.11,0,0,1-.11,0s0-.06,0-.12V173.6a.38.38,0,0,1,0-.17.26.26,0,0,1,.11-.12l.44-.26a.11.11,0,0,1,.11,0,.15.15,0,0,1,0,.12v.18a3,3,0,0,1,.32-.47,1.69,1.69,0,0,1,.45-.36l.25-.14c.05,0,.08,0,.11,0a.17.17,0,0,1,0,.12V173a.41.41,0,0,1,0,.17.22.22,0,0,1-.11.12Z" style="fill:#fafafa"></path><path d="M247.08,174.45a1.36,1.36,0,0,1-.31.14l-.25,0-.18-.05a.36.36,0,0,1-.12-.08v1.63a.37.37,0,0,1-.05.17.34.34,0,0,1-.1.13l-.44.25a.11.11,0,0,1-.11,0,.17.17,0,0,1-.05-.12v-5a.41.41,0,0,1,.05-.18.32.32,0,0,1,.11-.12l.44-.25s.07,0,.1,0a.14.14,0,0,1,.05.12v.17l.12-.22a3,3,0,0,1,.18-.25,2,2,0,0,1,.25-.26,2.49,2.49,0,0,1,.31-.23,1,1,0,0,1,.52-.15.63.63,0,0,1,.4.17,1.12,1.12,0,0,1,.26.43,1.9,1.9,0,0,1,.1.61,2.18,2.18,0,0,1,0,.27,2.26,2.26,0,0,1,0,.27,3.13,3.13,0,0,1-.1.73,4.2,4.2,0,0,1-.26.73,3.12,3.12,0,0,1-.4.62A1.71,1.71,0,0,1,247.08,174.45Zm.54-2.16a3.08,3.08,0,0,0,0-.43c0-.31-.1-.51-.23-.58a.48.48,0,0,0-.48.06,1.39,1.39,0,0,0-.47.49,1.77,1.77,0,0,0-.22.77,2.53,2.53,0,0,0,0,.29,2.44,2.44,0,0,0,0,.29.61.61,0,0,0,.22.5.44.44,0,0,0,.47-.05,1.33,1.33,0,0,0,.48-.49A1.86,1.86,0,0,0,247.62,172.29Z" style="fill:#fafafa"></path><path d="M251.82,171.43a.34.34,0,0,1,0,.17.24.24,0,0,1-.11.13l-.43.25a.08.08,0,0,1-.11,0,.14.14,0,0,1-.05-.12v-1.94a1,1,0,0,0-.16-.64c-.1-.12-.27-.12-.49,0a1.24,1.24,0,0,0-.48.55,1.91,1.91,0,0,0-.17.84v1.94a.37.37,0,0,1-.05.17.26.26,0,0,1-.11.12l-.43.26a.11.11,0,0,1-.11,0,.17.17,0,0,1,0-.12v-5a.41.41,0,0,1,0-.18.32.32,0,0,1,.11-.12l.43-.25a.08.08,0,0,1,.11,0,.13.13,0,0,1,.05.11v1.63a3,3,0,0,1,.35-.53,1.64,1.64,0,0,1,.47-.4,1.08,1.08,0,0,1,.59-.19.5.5,0,0,1,.38.17,1,1,0,0,1,.2.45,3.2,3.2,0,0,1,.06.65Z" style="fill:#fafafa"></path><path d="M253.89,166.39a1.35,1.35,0,0,1,.57-.2.76.76,0,0,1,.45.11.81.81,0,0,1,.29.36,1.42,1.42,0,0,1,.13.58.92.92,0,0,1,0,.18v.42a.81.81,0,0,1,0,.17,3.19,3.19,0,0,1-.13.74,3.56,3.56,0,0,1-.29.7,3.43,3.43,0,0,1-.45.61,2.26,2.26,0,0,1-.57.46,1.35,1.35,0,0,1-.57.2.72.72,0,0,1-.44-.1.81.81,0,0,1-.29-.36,1.5,1.5,0,0,1-.13-.58.86.86,0,0,1,0-.17,2.21,2.21,0,0,1,0-.42,1,1,0,0,1,0-.19,3.18,3.18,0,0,1,.12-.73,4.34,4.34,0,0,1,.3-.7,3.46,3.46,0,0,1,.44-.62A2.5,2.5,0,0,1,253.89,166.39Zm.7,1.32a.69.69,0,0,0-.09-.34.31.31,0,0,0-.16-.16.37.37,0,0,0-.21,0,.82.82,0,0,0-.24.1,1.7,1.7,0,0,0-.23.17,1,1,0,0,0-.21.25,1.54,1.54,0,0,0-.17.34,1.91,1.91,0,0,0-.08.44c0,.05,0,.1,0,.16v.39c0,.06,0,.11,0,.14a1,1,0,0,0,.08.35.3.3,0,0,0,.17.15.37.37,0,0,0,.21,0,.77.77,0,0,0,.23-.1,1.18,1.18,0,0,0,.24-.17,1.32,1.32,0,0,0,.21-.25,1.07,1.07,0,0,0,.16-.34,1.49,1.49,0,0,0,.09-.44v-.69Z" style="fill:#fafafa"></path><path d="M258.79,167.41a.37.37,0,0,1-.05.17.28.28,0,0,1-.11.13l-.43.25a.11.11,0,0,1-.11,0,.14.14,0,0,1,0-.12V165.9a1,1,0,0,0-.16-.64c-.1-.12-.27-.12-.49,0a1.19,1.19,0,0,0-.48.55,1.9,1.9,0,0,0-.17.83v1.94a.41.41,0,0,1-.05.18.26.26,0,0,1-.11.12l-.43.25a.08.08,0,0,1-.11,0A.14.14,0,0,1,256,169v-3.56a.41.41,0,0,1,.05-.17.26.26,0,0,1,.11-.12l.43-.25a.08.08,0,0,1,.11,0,.13.13,0,0,1,.05.11v.18a2.7,2.7,0,0,1,.35-.53,1.68,1.68,0,0,1,.47-.41,1.28,1.28,0,0,1,.59-.19.58.58,0,0,1,.38.17,1,1,0,0,1,.2.45,3.27,3.27,0,0,1,.06.65Z" style="fill:#fafafa"></path><path d="M259.4,165.28a3.69,3.69,0,0,1,.1-.87,3.78,3.78,0,0,1,.28-.82,3.25,3.25,0,0,1,.44-.69,2.13,2.13,0,0,1,.59-.5,1.18,1.18,0,0,1,.58-.18.69.69,0,0,1,.44.17.92.92,0,0,1,.28.45,2.08,2.08,0,0,1,.11.69v.34a.34.34,0,0,1-.05.17.36.36,0,0,1-.11.13l-1.91,1.1a.56.56,0,0,0,.05.28.29.29,0,0,0,.15.14.36.36,0,0,0,.21,0,1,1,0,0,0,.25-.1,1.16,1.16,0,0,0,.29-.22,1.33,1.33,0,0,0,.19-.24l.11-.14a.24.24,0,0,1,.11-.08l.45-.27c.05,0,.08,0,.12,0s0,.06,0,.12a1.83,1.83,0,0,1-.09.32,2.78,2.78,0,0,1-.25.48,3.67,3.67,0,0,1-.41.51,2.72,2.72,0,0,1-.56.44,1.39,1.39,0,0,1-.59.19.64.64,0,0,1-.44-.17,1.11,1.11,0,0,1-.28-.49A2.59,2.59,0,0,1,259.4,165.28Zm1.41-2a1.09,1.09,0,0,0-.29.23,1.26,1.26,0,0,0-.19.28,1.3,1.3,0,0,0-.13.3,1,1,0,0,0-.05.27l1.29-.75a1.55,1.55,0,0,0,0-.21.4.4,0,0,0-.1-.17.29.29,0,0,0-.19-.06A.65.65,0,0,0,260.81,163.32Z" style="fill:#fafafa"></path><path d="M266.94,162.7a.33.33,0,0,1,0,.17.36.36,0,0,1-.11.13l-.44.25a.11.11,0,0,1-.11,0s0-.06,0-.12v-1.94a1,1,0,0,0-.16-.64c-.11-.12-.27-.12-.49,0a1.13,1.13,0,0,0-.48.55,1.9,1.9,0,0,0-.18.83v1.95a.38.38,0,0,1,0,.17.26.26,0,0,1-.11.12l-.44.25a.08.08,0,0,1-.11,0,.12.12,0,0,1,0-.11v-3.56a.39.39,0,0,1,0-.18.32.32,0,0,1,.11-.12l.44-.25a.08.08,0,0,1,.11,0s0,.06,0,.12v.17a3.24,3.24,0,0,1,.35-.53,1.68,1.68,0,0,1,.48-.4,1.18,1.18,0,0,1,.58-.2.56.56,0,0,1,.38.17.93.93,0,0,1,.2.46,3.2,3.2,0,0,1,.06.65Z" style="fill:#fafafa"></path><path d="M267.68,158.72a.39.39,0,0,1,0-.18.43.43,0,0,1,.11-.12l.44-.25a.11.11,0,0,1,.11,0s0,.06,0,.12v1.94a1.09,1.09,0,0,0,.15.65q.15.18.48,0a1.1,1.1,0,0,0,.46-.55,2,2,0,0,0,.16-.82v-1.94a.41.41,0,0,1,.05-.18.26.26,0,0,1,.11-.12l.43-.25c.05,0,.08,0,.11,0a.13.13,0,0,1,.05.11v3.57a.41.41,0,0,1-.05.17.22.22,0,0,1-.11.12l-.43.25c-.05,0-.08,0-.11,0a.17.17,0,0,1-.05-.12V161a3.57,3.57,0,0,1-.32.51,1.68,1.68,0,0,1-.47.41,1.17,1.17,0,0,1-.58.19.49.49,0,0,1-.37-.18.93.93,0,0,1-.19-.46,3.2,3.2,0,0,1-.06-.65Z" style="fill:#fafafa"></path><path d="M272,156.42a2.83,2.83,0,0,1,.34-.53,1.6,1.6,0,0,1,.4-.35.89.89,0,0,1,.59-.16.55.55,0,0,1,.37.26,2.64,2.64,0,0,1,.18-.38,2.24,2.24,0,0,1,.23-.34,1.76,1.76,0,0,1,.26-.28,2.07,2.07,0,0,1,.25-.19,1.07,1.07,0,0,1,.55-.17.53.53,0,0,1,.35.19,1.08,1.08,0,0,1,.19.46,3.3,3.3,0,0,1,0,.65v2.06a.38.38,0,0,1,0,.17.26.26,0,0,1-.11.12l-.44.26a.09.09,0,0,1-.1,0,.12.12,0,0,1,0-.12v-2c0-.35-.05-.56-.15-.64s-.24-.07-.42,0a1.07,1.07,0,0,0-.39.42,1.75,1.75,0,0,0-.18.8v2.05a.39.39,0,0,1,0,.18.32.32,0,0,1-.11.12l-.44.25s-.07,0-.1,0a.14.14,0,0,1-.05-.12v-2c0-.35,0-.56-.15-.64s-.24-.07-.42,0a1.08,1.08,0,0,0-.4.44,1.75,1.75,0,0,0-.17.82v2a.38.38,0,0,1,0,.17.26.26,0,0,1-.11.12l-.44.26a.09.09,0,0,1-.1,0s-.05-.06-.05-.12v-3.56a.26.26,0,0,1,.05-.17.34.34,0,0,1,.1-.13l.44-.25a.11.11,0,0,1,.11,0s0,.06,0,.12Z" style="fill:#fafafa"></path><path d="M278.09,152.42a.93.93,0,0,1,.52-.15.63.63,0,0,1,.39.17,1.08,1.08,0,0,1,.26.43,1.9,1.9,0,0,1,.1.61,2.18,2.18,0,0,1,0,.27,2.26,2.26,0,0,1,0,.27,3.28,3.28,0,0,1-.1.74,3.64,3.64,0,0,1-.26.72,3.25,3.25,0,0,1-.39.62,2,2,0,0,1-.52.45,1.2,1.2,0,0,1-.32.14l-.25,0a.48.48,0,0,1-.18-.05.36.36,0,0,1-.12-.08v.18a.38.38,0,0,1,0,.17.26.26,0,0,1-.11.12l-.44.26a.11.11,0,0,1-.11,0,.16.16,0,0,1,0-.12v-5a.38.38,0,0,1,0-.17.32.32,0,0,1,.11-.12l.44-.25a.08.08,0,0,1,.11,0s0,.06,0,.12v1.62l.12-.22a3,3,0,0,1,.18-.25,3,3,0,0,1,.25-.26A2,2,0,0,1,278.09,152.42Zm.53,1.55c0-.32-.1-.52-.23-.59a.48.48,0,0,0-.48.06,1.42,1.42,0,0,0-.47.5,1.77,1.77,0,0,0-.22.76,2.53,2.53,0,0,0,0,.29,2.36,2.36,0,0,0,0,.29c0,.26.09.43.22.5a.44.44,0,0,0,.47-.05,1.26,1.26,0,0,0,.48-.49,1.86,1.86,0,0,0,.23-.85A2.94,2.94,0,0,0,278.62,154Z" style="fill:#fafafa"></path><path d="M281.42,151.5a1.22,1.22,0,0,0-.5.48,1.67,1.67,0,0,0-.15.75v2a.37.37,0,0,1,0,.17.22.22,0,0,1-.11.12l-.43.26a.11.11,0,0,1-.11,0,.14.14,0,0,1-.05-.12v-3.56a.37.37,0,0,1,.05-.17.36.36,0,0,1,.11-.13l.43-.25a.11.11,0,0,1,.11,0,.14.14,0,0,1,0,.12v.17a2.67,2.67,0,0,1,.32-.46,1.81,1.81,0,0,1,.44-.36l.26-.15a.11.11,0,0,1,.11,0,.15.15,0,0,1,0,.12v.5a.39.39,0,0,1,0,.18.32.32,0,0,1-.11.12Z" style="fill:#fafafa"></path><path d="M282.22,152.1a4.07,4.07,0,0,1,.38-1.68,3.35,3.35,0,0,1,.45-.7,2.11,2.11,0,0,1,.58-.5,1.09,1.09,0,0,1,.58-.17.67.67,0,0,1,.45.16,1,1,0,0,1,.28.46,2.27,2.27,0,0,1,.1.68v.35a.41.41,0,0,1-.05.17.22.22,0,0,1-.11.12L283,152.1a.74.74,0,0,0,0,.28.31.31,0,0,0,.15.13.3.3,0,0,0,.21,0,.73.73,0,0,0,.25-.1,1.46,1.46,0,0,0,.3-.22,1.92,1.92,0,0,0,.19-.23.76.76,0,0,1,.1-.15.31.31,0,0,1,.11-.08l.46-.27a.11.11,0,0,1,.11,0,.11.11,0,0,1,0,.12,1,1,0,0,1-.09.33,2.42,2.42,0,0,1-.25.47,3.06,3.06,0,0,1-.41.51,2.42,2.42,0,0,1-.56.44,1.27,1.27,0,0,1-.58.19.66.66,0,0,1-.45-.17,1.15,1.15,0,0,1-.28-.49A2.9,2.9,0,0,1,282.22,152.1Zm1.41-2a1.34,1.34,0,0,0-.29.23,1.73,1.73,0,0,0-.19.28,1.3,1.3,0,0,0-.13.3c0,.1,0,.19,0,.28l1.3-.75a1.74,1.74,0,0,0,0-.22.32.32,0,0,0-.1-.17.29.29,0,0,0-.19-.06A.79.79,0,0,0,283.63,150.14Z" style="fill:#fafafa"></path><path d="M287.06,148.24a1.18,1.18,0,0,0-.5.49,1.61,1.61,0,0,0-.15.75v2a.41.41,0,0,1-.05.18.26.26,0,0,1-.11.12l-.43.25a.08.08,0,0,1-.11,0,.14.14,0,0,1,0-.12v-3.56a.41.41,0,0,1,0-.17.26.26,0,0,1,.11-.12l.43-.25c.05,0,.08,0,.11,0a.17.17,0,0,1,.05.12v.18a2.42,2.42,0,0,1,.32-.47,1.58,1.58,0,0,1,.44-.35l.26-.15a.09.09,0,0,1,.11,0,.16.16,0,0,1,0,.12v.51a.38.38,0,0,1,0,.17.26.26,0,0,1-.11.12Z" style="fill:#fafafa"></path><path d="M182.26,265.89l-12.67,7.32c-.73.42-1.32,0-1.32-1v-28.5a3.16,3.16,0,0,1,1.32-2.52l12.67-7.32c.73-.42,1.32,0,1.32,1v28.5A3.16,3.16,0,0,1,182.26,265.89Z" style="fill:#fafafa"></path><path d="M202.85,254l-12.68,7.31c-.72.42-1.31,0-1.31-1V231.82a3.16,3.16,0,0,1,1.31-2.51L202.85,222c.72-.42,1.31,0,1.31,1v28.5A3.18,3.18,0,0,1,202.85,254Z" style="fill:#fafafa"></path><path d="M223.43,242.12l-12.67,7.32c-.73.42-1.32,0-1.32-1v-28.5a3.16,3.16,0,0,1,1.32-2.52l12.67-7.31c.73-.42,1.32,0,1.32,1v28.5A3.16,3.16,0,0,1,223.43,242.12Z" style="fill:#fafafa"></path><path d="M244,230.24l-12.67,7.32c-.73.42-1.32,0-1.32-1v-28.5a3.16,3.16,0,0,1,1.32-2.52L244,198.22c.73-.42,1.32,0,1.32,1v28.5A3.16,3.16,0,0,1,244,230.24Z" style="fill:#fafafa"></path><path d="M264.59,218.36l-12.67,7.31c-.73.42-1.32,0-1.32-1V196.17a3.14,3.14,0,0,1,1.32-2.51l12.67-7.32c.73-.42,1.32,0,1.32,1v28.5A3.16,3.16,0,0,1,264.59,218.36Z" style="fill:#fafafa"></path><path d="M285.18,206.47l-12.68,7.32c-.72.42-1.31,0-1.31-1v-28.5a3.18,3.18,0,0,1,1.31-2.52l12.68-7.31c.72-.42,1.31,0,1.31,1V204A3.18,3.18,0,0,1,285.18,206.47Z" style="fill:#fafafa"></path><g id="freepik--Button--inject-5"><g style="opacity:0.2"><path d="M175.25,285.51l107.14-61.84c.44-.26.8,0,.8.46v13.72a1.79,1.79,0,0,1-.8,1.39L175.25,301.07c-.44.26-.8.05-.8-.46V286.89A1.76,1.76,0,0,1,175.25,285.51Z"></path></g><g id="freepik--speech-bubble--inject-5"><path d="M281.26,227.18,177.44,287.09a2,2,0,0,0-.88,1.53v12.17a1.94,1.94,0,0,0,.89,1.52l1.68.95a2,2,0,0,0,1.77,0l103.81-59.91a1.93,1.93,0,0,0,.88-1.52V229.65a1.91,1.91,0,0,0-.88-1.52l-1.69-.95A2,2,0,0,0,281.26,227.18Z" style="fill:#FF9E00"></path><path d="M180.9,303.25a2,2,0,0,1-1.77,0l-1.68-1a1.91,1.91,0,0,1-.89-1.51V288.62a1.82,1.82,0,0,1,.28-.9l3.43,2a1.75,1.75,0,0,0-.26.86v12.17C180,303.26,180.38,303.55,180.9,303.25Z" style="opacity:0.2"></path><g style="opacity:0.2"><path d="M285.58,229.49c-.07-.45-.43-.61-.87-.35L180.9,289.05a1.74,1.74,0,0,0-.63.66l-3.43-2a1.66,1.66,0,0,1,.6-.63l103.82-59.91a2,2,0,0,1,1.77,0l1.67,1A1.91,1.91,0,0,1,285.58,229.49Z" style="fill:#fff"></path></g><path d="M284.71,229.14,180.9,289.05a1.94,1.94,0,0,0-.89,1.52v12.17c0,.56.4.79.89.51l103.81-59.91a1.93,1.93,0,0,0,.88-1.52V229.65C285.59,229.09,285.2,228.86,284.71,229.14Z" style="fill:#fff;opacity:0.5"></path></g></g><path d="M222.62,274l1.23-5.35a1.45,1.45,0,0,1,.08-.21.37.37,0,0,1,.16-.17l.56-.33a.12.12,0,0,1,.14,0,.18.18,0,0,1,.06.15v0l0,.07-1.64,7.07a1.41,1.41,0,0,1-.1.31.42.42,0,0,1-.17.18l-.59.34c-.08.05-.13.05-.17,0a.41.41,0,0,1-.11-.19l-1.63-5.18,0-.06v0a.46.46,0,0,1,.06-.22.38.38,0,0,1,.14-.16l.56-.32c.07,0,.12-.05.16,0a.28.28,0,0,1,.08.11Z" style="fill:#fff"></path><path d="M229,271a.12.12,0,0,1,.14,0,.18.18,0,0,1,.06.15v.69a.49.49,0,0,1-.06.22.37.37,0,0,1-.14.16l-3.2,1.85a.12.12,0,0,1-.14,0,.18.18,0,0,1-.06-.15v-6.29a.46.46,0,0,1,.06-.22.32.32,0,0,1,.14-.16l3.15-1.82a.1.1,0,0,1,.13,0,.18.18,0,0,1,.06.15v.69a.46.46,0,0,1-.06.22.31.31,0,0,1-.13.16L226.61,268v1.55l2.19-1.27a.12.12,0,0,1,.14,0,.18.18,0,0,1,.06.15v.69a.46.46,0,0,1-.06.22.37.37,0,0,1-.14.16l-2.19,1.27v1.62Z" style="fill:#fff"></path><path d="M232.21,263.57c.61-.35,1.07-.43,1.39-.24s.47.63.47,1.3a3.84,3.84,0,0,1-.24,1.35,3.76,3.76,0,0,1-.72,1.16l1,1.83a.29.29,0,0,1,0,.09.41.41,0,0,1,0,.18.36.36,0,0,1-.11.13l-.62.36c-.1,0-.17.06-.22,0a.35.35,0,0,1-.1-.12l-.95-1.71-1,.56v2.27a.63.63,0,0,1-.05.22.41.41,0,0,1-.14.15l-.6.35a.1.1,0,0,1-.13,0,.18.18,0,0,1-.06-.15V265a.49.49,0,0,1,.06-.22.32.32,0,0,1,.13-.15Zm-1.1,3.7,1.06-.61a2.25,2.25,0,0,0,.67-.58,1.5,1.5,0,0,0,.25-.88c0-.37-.09-.56-.25-.59a1.08,1.08,0,0,0-.67.2l-1.06.61Z" style="fill:#fff"></path><path d="M235.22,268.65a.12.12,0,0,1-.14,0,.18.18,0,0,1-.06-.15v-6.29a.46.46,0,0,1,.06-.22.38.38,0,0,1,.14-.16l.59-.34a.12.12,0,0,1,.14,0,.18.18,0,0,1,.06.15v6.29a.46.46,0,0,1-.06.22.45.45,0,0,1-.14.16Z" style="fill:#fff"></path><path d="M240.47,258.8a.1.1,0,0,1,.13,0,.18.18,0,0,1,.06.15v.69a.46.46,0,0,1-.06.22.31.31,0,0,1-.13.16l-2.34,1.34v1.9l2.19-1.27a.12.12,0,0,1,.14,0,.18.18,0,0,1,.06.15v.7a.42.42,0,0,1-.06.21.38.38,0,0,1-.14.16l-2.19,1.26v2.23a.59.59,0,0,1,0,.22.38.38,0,0,1-.14.16l-.59.34a.12.12,0,0,1-.14,0,.18.18,0,0,1-.06-.15V261a.49.49,0,0,1,.06-.22.37.37,0,0,1,.14-.16Z" style="fill:#fff"></path><path d="M245.4,256a.12.12,0,0,1,.14,0,.21.21,0,0,1,.05.15.31.31,0,0,1,0,.1l-1.73,5.06v2.15a.42.42,0,0,1-.06.21.38.38,0,0,1-.14.16l-.58.34a.12.12,0,0,1-.14,0,.18.18,0,0,1-.06-.15v-2.14l-1.73-3.07a.14.14,0,0,1,0-.07.43.43,0,0,1,.06-.22.38.38,0,0,1,.14-.16l.55-.32a.23.23,0,0,1,.22,0,.22.22,0,0,1,.08.1l1.19,2.07,1.18-3.44a1,1,0,0,1,.09-.19.54.54,0,0,1,.22-.23Z" style="fill:#fff"></path></g></g><g id="freepik--Plant--inject-5"><g id="freepik--Plants--inject-5"><path d="M72.75,436.86l8.31-4.8S86,411.5,84,393c-2.77-26-19.88-35.79-26.39-33.54s-8.4,9.8,2.37,25.29C66.37,393.9,74.17,412.93,72.75,436.86Z" style="fill:#FF9E00"></path><g style="opacity:0.65"><path d="M72.75,436.86l8.31-4.8S86,411.5,84,393c-2.77-26-19.88-35.79-26.39-33.54s-8.4,9.8,2.37,25.29C66.37,393.9,74.17,412.93,72.75,436.86Z" style="fill:#fff"></path></g><path d="M76.19,426.76h-.08a.58.58,0,0,1-.46-.67c4.56-24-3.82-50.93-14.19-62.15a.57.57,0,0,1,.84-.78C72.87,374.57,81.41,402,76.78,426.29A.56.56,0,0,1,76.19,426.76Z" style="fill:#fff"></path><path d="M51.83,448.94c-1.24.63-4.54-2.2-5.46-2.89a11.44,11.44,0,0,1-3.61-4.59,10.71,10.71,0,0,1-.63-6.52,25.11,25.11,0,0,1,1-3.41l1.13-3.3a8.45,8.45,0,0,0,.66-3.35c-.18-2.3-2.13-4-3.9-5.48-2-1.63-4-3.76-3.84-6.51a9.62,9.62,0,0,1,2.72-5.64c1.4-1.61,3-3,4.31-4.7a6.81,6.81,0,0,0,1.61-4.21,7.12,7.12,0,0,0-.8-2.72,38.77,38.77,0,0,1-2.66-5.51c-.57-2-.36-4.35,1.22-5.66,1.29-1.07,3.13-1.13,4.8-.94a10.94,10.94,0,0,1,4.33,1.78c4.25,2.65,6.48,7.95,11,10.06A45.3,45.3,0,0,0,69.27,397c1.84.59,3.7,1.64,4.48,3.41,1.53,3.49-1.85,7.52-.83,11.19.9,3.25,3.94,4.63,5.54,7.6a6.87,6.87,0,0,1,.61,4.22,20,20,0,0,1-2.13,7,62.93,62.93,0,0,1-4.19,6.46Z" style="fill:#FF9E00"></path><g style="opacity:0.30000000000000004"><path d="M51.83,448.94c-1.24.63-4.54-2.2-5.46-2.89a11.44,11.44,0,0,1-3.61-4.59,10.71,10.71,0,0,1-.63-6.52,25.11,25.11,0,0,1,1-3.41l1.13-3.3a8.45,8.45,0,0,0,.66-3.35c-.18-2.3-2.13-4-3.9-5.48-2-1.63-4-3.76-3.84-6.51a9.62,9.62,0,0,1,2.72-5.64c1.4-1.61,3-3,4.31-4.7a6.81,6.81,0,0,0,1.61-4.21,7.12,7.12,0,0,0-.8-2.72,38.77,38.77,0,0,1-2.66-5.51c-.57-2-.36-4.35,1.22-5.66,1.29-1.07,3.13-1.13,4.8-.94a10.94,10.94,0,0,1,4.33,1.78c4.25,2.65,6.48,7.95,11,10.06A45.3,45.3,0,0,0,69.27,397c1.84.59,3.7,1.64,4.48,3.41,1.53,3.49-1.85,7.52-.83,11.19.9,3.25,3.94,4.63,5.54,7.6a6.87,6.87,0,0,1,.61,4.22,20,20,0,0,1-2.13,7,62.93,62.93,0,0,1-4.19,6.46Z" style="fill:#fff"></path></g><path d="M63.86,442.67h0a.55.55,0,0,1-.5-.59c2-21.57-7-45.95-14-53.26a.54.54,0,1,1,.78-.75c7.2,7.45,16.37,32.24,14.35,54.11A.56.56,0,0,1,63.86,442.67Z" style="fill:#fff"></path><path d="M61.72,416.07a.41.41,0,0,1-.16,0A72.6,72.6,0,0,0,46,412.72a.56.56,0,0,1-.5-.6.53.53,0,0,1,.6-.49A74.2,74.2,0,0,1,61.93,415a.55.55,0,0,1-.21,1.06Z" style="fill:#fff"></path></g></g><g id="freepik--Device--inject-5"><g id="freepik--device--inject-5"><g id="freepik--Mobile--inject-5"><path d="M177.74,385.89,262.79,435a9.14,9.14,0,0,0,8.87.17l171.22-98.86c1.89-1.09,4.84-3.54,4.82-6.55,0-1.63.07-3.3.07-4.13,0-2.74-2.19-6.22-4.88-7.78l-84.74-48.92a10.84,10.84,0,0,0-9.77,0L177.74,367.44c-2.7,1.55-4.88,5-4.88,7.78,0,.21,0,2.87,0,3.13C172.9,382.14,175.26,384.46,177.74,385.89Z" style="fill:#37474f"></path><path d="M262.79,435l-85.05-49.09c-2.2-1.27-4.84-3.32-4.84-7.54,0-.71,0-2.63,0-3.13,0-2.74,2.18-6.23,4.88-7.78l89.68-51.78V436.2A9,9,0,0,1,262.79,435Z" style="fill:#263238"></path><path d="M264.81,423.34a9.53,9.53,0,0,0,8.61,0l169.49-97.85c3.64-2.1,3.64-5.54,0-7.65l-84.75-48.93a10.85,10.85,0,0,0-9.77,0L177.75,367.44c-2.69,1.55-2.69,4.09,0,5.64Z" style="fill:#455a64"></path><path d="M273,413.49a10.25,10.25,0,0,0,9.28,0l145.84-84.2c2.56-1.48,2.56-3.88,0-5.36l-79.72-46a10.34,10.34,0,0,0-9.29,0l-145.83,84.2c-2.55,1.47-2.55,3.88,0,5.36Z" style="fill:#37474f"></path><path d="M344.08,276.82a9.35,9.35,0,0,1,4.36,1.09l79.72,46c2.56,1.48,2.56,3.88,0,5.36l-15.8,9.13-68.28-43.61Z" style="fill:#263238"></path><path d="M399,302.41l-14.13-8.16c-.84-.49-.89-1.25-.1-1.71a3.26,3.26,0,0,1,3,.06l14.13,8.15c.84.49.89,1.25.1,1.71A3.29,3.29,0,0,1,399,302.41Z" style="fill:#263238"></path><path d="M374.76,288.42a.87.87,0,0,1,0-1.65,3.14,3.14,0,0,1,2.86,0,.87.87,0,0,1,0,1.65A3.14,3.14,0,0,1,374.76,288.42Z" style="fill:#263238"></path><path d="M369,285.11a.88.88,0,0,1,0-1.66,3.2,3.2,0,0,1,2.86,0,.88.88,0,0,1,0,1.66A3.2,3.2,0,0,1,369,285.11Z" style="fill:#263238"></path><path d="M414.85,311.56a.87.87,0,0,1,0-1.65,3.14,3.14,0,0,1,2.86,0,.87.87,0,0,1,0,1.65A3.14,3.14,0,0,1,414.85,311.56Z" style="fill:#263238"></path><path d="M409.12,308.25a.87.87,0,0,1,0-1.65,3.16,3.16,0,0,1,2.87,0,.87.87,0,0,1,0,1.65A3.16,3.16,0,0,1,409.12,308.25Z" style="fill:#263238"></path></g><g id="freepik--window--inject-5"><path d="M339.1,281.39a10.32,10.32,0,0,1,9.28,0l79.72,46a4.74,4.74,0,0,1,1.22,1,5,5,0,0,1-1.16.9l-145.84,84.2a10.25,10.25,0,0,1-9.28,0l-79.72-46a5.07,5.07,0,0,1-1.21-1,5,5,0,0,1,1.15-.92Z" style="fill:#fafafa"></path><g id="freepik--window--inject-5"><path d="M336.78,291a.66.66,0,0,1-.15-.33l-.24-1.92a.36.36,0,0,1,.39-.43l3.32.14a.79.79,0,0,1,.68.56.36.36,0,0,1-.37.51l-2.87-.11.18,1.47c0,.29-.18.47-.48.41A.75.75,0,0,1,336.78,291Z" style="fill:#455a64"></path><path d="M404.38,327.76a2,2,0,0,1-1.83-.08c-.54-.31-.6-.78-.13-1.05a2,2,0,0,1,1.83.07C404.79,327,404.85,327.49,404.38,327.76Z" style="fill:#455a64"></path><path d="M408.52,330.15a2,2,0,0,1-1.83-.08c-.54-.31-.6-.78-.13-1.05a2,2,0,0,1,1.83.07C408.93,329.41,409,329.88,408.52,330.15Z" style="fill:#455a64"></path><path d="M412.66,332.54a2,2,0,0,1-1.83-.08c-.54-.31-.6-.78-.13-1a2,2,0,0,1,1.83.07C413.07,331.8,413.13,332.27,412.66,332.54Z" style="fill:#455a64"></path></g><path d="M397,333.9l-62.68-36.19a4.9,4.9,0,0,0-4.4-.18l-4.1,2.4a3.12,3.12,0,0,1-1.22-3.54,6.86,6.86,0,0,0-2.06,5.45l-11,6.43c-1.12.65-1,1.78.32,2.54L374.5,347a4.88,4.88,0,0,0,4.39.18l18.4-10.74C398.41,335.79,398.27,334.66,397,333.9Z" style="fill:#e0e0e0"></path><path d="M272.82,399.7l-62.69-36.19a4.88,4.88,0,0,0-4.39-.18l-3.45,2c-1.12.65-1,1.79.32,2.54l62.68,36.19a4.88,4.88,0,0,0,4.39.18l3.45-2C274.26,401.59,274.12,400.45,272.82,399.7Z" style="fill:#e0e0e0"></path><path d="M283.81,406.05l-2.87-1.67a4.88,4.88,0,0,0-4.39-.18l-3.45,2c-1.12.65-1,1.78.32,2.53l2.87,1.68a4.88,4.88,0,0,0,4.39.18l3.45-2C285.25,407.93,285.11,406.8,283.81,406.05Z" style="fill:#e0e0e0"></path></g></g></g><g id="freepik--speech-bubble--inject-5"><g id="freepik--speech-bubble--inject-5"><g id="freepik--speech-bubble--inject-5"><path d="M400.31,246.44l-2.1-6.54c-1.12-5.28,20.42,7.16,21.55,12.44L412.81,271a2.9,2.9,0,0,1-1.16,1.36c-1.52.93-7.14,4.1-7.63,4.4a3,3,0,0,1-4.43-1.65l-9-30.84C390,241.69,395,243.41,400.31,246.44Z" style="fill:#FF9E00"></path><path d="M372.89,177.64l81.91,47.25a6.11,6.11,0,0,1,2.77,4.79V271a6.06,6.06,0,0,1-2.79,4.77l-5.06,2.86a6.18,6.18,0,0,1-5.56,0l-81.9-47.24a6.13,6.13,0,0,1-2.77-4.8V185.25a6,6,0,0,1,2.79-4.77l5.06-2.87A6.23,6.23,0,0,1,372.89,177.64Z" style="fill:#FF9E00"></path><path d="M362.26,183.65l81.91,47.25a6.13,6.13,0,0,1,2.76,4.79V277c0,1.76-1.24,2.48-2.76,1.59L411,259.46l-5.75,16a3,3,0,0,1-5.61-.28l-7.8-26.74-29.53-17a6.13,6.13,0,0,1-2.77-4.8V185.25C359.49,183.48,360.73,182.77,362.26,183.65Z" style="fill:#fafafa"></path><path d="M361,184.47h0a1.28,1.28,0,0,1,.64.21l81.91,47.25a5,5,0,0,1,2.17,3.76V277c0,.18,0,.78-.34.78a1.34,1.34,0,0,1-.64-.22l-33.21-19.16-1.24-.71-.48,1.34L404.08,275a1.8,1.8,0,0,1-3.34-.17l-7.8-26.74-.14-.47-.41-.24-29.53-17a4.94,4.94,0,0,1-2.17-3.76V185.25c0-.19,0-.78.33-.78m0-1.2c-.9,0-1.53.72-1.53,2v41.32a6.13,6.13,0,0,0,2.77,4.8l29.53,17,7.8,26.74a3,3,0,0,0,5.61.28l5.75-16,33.22,19.15a2.45,2.45,0,0,0,1.23.38c.91,0,1.53-.72,1.53-2V235.69a6.13,6.13,0,0,0-2.76-4.79l-81.91-47.25a2.46,2.46,0,0,0-1.24-.38Z" style="fill:#e0e0e0"></path><path d="M359.53,184.74c.22-1.39,1.35-1.89,2.74-1.1l81.89,47.26a5.6,5.6,0,0,1,2,2.07l10.58-6.11a5.48,5.48,0,0,0-1.91-2l-81.9-47.25a6.16,6.16,0,0,0-5.55,0l-5.06,2.86A6.1,6.1,0,0,0,359.53,184.74Z" style="fill:#fff;opacity:0.2"></path></g><path d="M367.25,206.64a1.33,1.33,0,0,1-.09-.54.44.44,0,0,1,.17-.34l3.44-2.18a1.26,1.26,0,0,1,.26-.13.31.31,0,0,1,.29,0l1.24.71a.9.9,0,0,1,.3.37,1.34,1.34,0,0,1,.13.54v15.76a.55.55,0,0,1-.13.39.23.23,0,0,1-.3,0l-1.29-.74a.9.9,0,0,1-.3-.37,1.32,1.32,0,0,1-.12-.54V207.57L368.6,209a.26.26,0,0,1-.31,0,1,1,0,0,1-.29-.43Z" style="fill:#455a64"></path><path d="M381.11,216.65a1.38,1.38,0,0,0,.61-.85,4.19,4.19,0,0,0,.14-1,4.77,4.77,0,0,0-.4-1.93,3,3,0,0,0-1.31-1.45c-.58-.33-1-.36-1.28-.08a2.74,2.74,0,0,0-.58,1.35c0,.19-.09.32-.19.37a.26.26,0,0,1-.28,0l-1.25-.72a.87.87,0,0,1-.31-.36,1.08,1.08,0,0,1-.12-.55,5.69,5.69,0,0,1,.36-1.86,3,3,0,0,1,.85-1.22,2,2,0,0,1,1.24-.44,3,3,0,0,1,1.54.46,6.2,6.2,0,0,1,1.73,1.5,9.58,9.58,0,0,1,1.2,2,10.92,10.92,0,0,1,.71,2.16A10.21,10.21,0,0,1,384,216c0,.4,0,.78-.05,1.13a3.72,3.72,0,0,1-.22,1,3.25,3.25,0,0,1-.51.85,3.83,3.83,0,0,1-.89.77l-2.93,2.43,4.41,2.54a.9.9,0,0,1,.3.37,1.32,1.32,0,0,1,.12.54v1.73a.54.54,0,0,1-.12.39.23.23,0,0,1-.3,0l-7.4-4.27a.77.77,0,0,1-.3-.37,1.18,1.18,0,0,1-.13-.53V221.1a1,1,0,0,1,.16-.63.85.85,0,0,1,.27-.27Z" style="fill:#455a64"></path><path d="M394.59,216.92a.79.79,0,0,1,.31.37,1.28,1.28,0,0,1,.12.53v1.73a.74.74,0,0,1-.12.44,2,2,0,0,1-.23.27l-2.31,2.42a7.44,7.44,0,0,1,1.29,1.28,7.78,7.78,0,0,1,1,1.58,8.7,8.7,0,0,1,.64,1.84,9.78,9.78,0,0,1,.22,2,5.47,5.47,0,0,1-.33,2.07,2.19,2.19,0,0,1-.9,1.15,2.12,2.12,0,0,1-1.36.26,4.38,4.38,0,0,1-1.71-.61,8.05,8.05,0,0,1-1.92-1.52,9.91,9.91,0,0,1-1.36-1.82,8.45,8.45,0,0,1-.83-1.92,8,8,0,0,1-.34-1.78.45.45,0,0,1,.12-.4.25.25,0,0,1,.31,0l1.25.72a.73.73,0,0,1,.26.31,5.62,5.62,0,0,1,.22.58,4.78,4.78,0,0,0,.25.69,4.4,4.4,0,0,0,.42.71,4.75,4.75,0,0,0,.66.71,6,6,0,0,0,1,.68,1.81,1.81,0,0,0,1.57.3c.39-.17.59-.62.59-1.35a3.24,3.24,0,0,0-.59-1.92,5,5,0,0,0-1.57-1.37l-1.31-.76a.77.77,0,0,1-.3-.37,1.19,1.19,0,0,1-.13-.54v-1.73a.71.71,0,0,1,.12-.43,2.28,2.28,0,0,1,.23-.27l2.22-2.31L387.66,216a.77.77,0,0,1-.3-.37,1.19,1.19,0,0,1-.13-.54v-1.73a.5.5,0,0,1,.13-.39.23.23,0,0,1,.3,0Z" style="fill:#455a64"></path><path d="M398.82,230.58a.9.9,0,0,1-.3-.37,1.32,1.32,0,0,1-.12-.54v-1.61a.54.54,0,0,1,.12-.39.23.23,0,0,1,.3,0l4.84,2.79a.9.9,0,0,1,.3.37,1.32,1.32,0,0,1,.12.54V233a.54.54,0,0,1-.12.39.24.24,0,0,1-.3,0Z" style="fill:#455a64"></path><path d="M412.51,244.34a.89.89,0,0,1-.3-.37,1.34,1.34,0,0,1-.13-.54v-3l-4.91-2.84a.83.83,0,0,1-.3-.37,1.29,1.29,0,0,1-.13-.53V235a1.15,1.15,0,0,1,.11-.54c.07-.13.15-.27.24-.41l4.85-6.52c.21-.28.43-.36.65-.23l1.2.69a.84.84,0,0,1,.31.37,1.32,1.32,0,0,1,.12.54v9.75l1.37.79a.9.9,0,0,1,.3.37,1.32,1.32,0,0,1,.12.54v1.73a.54.54,0,0,1-.12.39.23.23,0,0,1-.3,0l-1.37-.79v2.95a.54.54,0,0,1-.12.39.24.24,0,0,1-.31,0Zm-.43-6.91v-5.22l-2.7,3.66Z" style="fill:#455a64"></path><path d="M419.28,231.83a.58.58,0,0,1,.12-.4.24.24,0,0,1,.3,0l6,3.44a.77.77,0,0,1,.3.37,1.19,1.19,0,0,1,.13.54v1.73a.5.5,0,0,1-.13.39.23.23,0,0,1-.3,0l-4.45-2.57-.17,3a1.82,1.82,0,0,1,.84.18,7.45,7.45,0,0,1,.69.34,7.84,7.84,0,0,1,1.65,1.32,8.32,8.32,0,0,1,1.31,1.85,10.6,10.6,0,0,1,.88,2.27,10.46,10.46,0,0,1,.31,2.6,7.9,7.9,0,0,1-.32,2.48,2.66,2.66,0,0,1-.89,1.32,1.79,1.79,0,0,1-1.32.28,4.49,4.49,0,0,1-1.62-.6,7.94,7.94,0,0,1-1.87-1.48,8,8,0,0,1-1.3-1.81,8.32,8.32,0,0,1-.78-2,9.38,9.38,0,0,1-.29-2,.47.47,0,0,1,.12-.41.24.24,0,0,1,.3,0l1.29.74a.82.82,0,0,1,.28.32,1.74,1.74,0,0,1,.18.53,4.23,4.23,0,0,0,.3,1.09,3.9,3.9,0,0,0,.47.83,3,3,0,0,0,.6.63,6.22,6.22,0,0,0,.7.48,1.24,1.24,0,0,0,1.46.08,2.15,2.15,0,0,0,.55-1.75,4.55,4.55,0,0,0-.55-2.15,4.06,4.06,0,0,0-1.46-1.6,2.61,2.61,0,0,0-.75-.32,1,1,0,0,0-.45,0l-.32.08a.56.56,0,0,1-.36-.1l-1.46-.85a.69.69,0,0,1-.3-.36,1.19,1.19,0,0,1-.13-.54Z" style="fill:#455a64"></path><path d="M429.26,248.22a6.37,6.37,0,0,1,.33-2.2,8.93,8.93,0,0,1,.73-1.45l3-4.8a1.12,1.12,0,0,1,.16-.22c.07-.08.18-.07.33,0l1.42.83a.79.79,0,0,1,.31.37,1.24,1.24,0,0,1,.12.53.74.74,0,0,1,0,.18.35.35,0,0,1-.06.09l-2,3.21a7.34,7.34,0,0,1,1.72,1.46,10,10,0,0,1,1.35,2,11.14,11.14,0,0,1,1.18,5,7.14,7.14,0,0,1-.32,2.27,3,3,0,0,1-.89,1.39,2,2,0,0,1-1.36.44,3.63,3.63,0,0,1-1.74-.57,6.75,6.75,0,0,1-1.75-1.44,9.53,9.53,0,0,1-1.36-2,11.06,11.06,0,0,1-1.2-5.05Zm6.46,3.73a5.56,5.56,0,0,0-.56-2.41,4.07,4.07,0,0,0-1.59-1.76c-.69-.39-1.22-.42-1.6-.07a2.32,2.32,0,0,0-.56,1.76,5.68,5.68,0,0,0,.56,2.43,4,4,0,0,0,1.6,1.79c.68.39,1.21.41,1.59.05A2.43,2.43,0,0,0,435.72,252Z" style="fill:#455a64"></path></g></g></svg>